<svg id="Layer_1" data-name="Layer 1" xmlns="http://www.w3.org/2000/svg" viewBox="0 0 183.56 161.19">
  <defs>
    <style>
      .cls-1 {
        fill: #eb6233;
      }

      .cls-2 {
        fill: #112b0f;
      }

      .cls-3, .cls-4 {
        fill: none;
      }

      .cls-3 {
        stroke: #1d1d1b;
      }

      .cls-3, .cls-4, .cls-5 {
        stroke-miterlimit: 10;
        stroke-width: 2px;
      }

      .cls-4, .cls-5 {
        stroke: #000;
      }
    </style>
  </defs>
  <title>apst-LHR-spot__bus</title>
  <circle cx="105.81" cy="68.5" r="16"/>
  <path class="cls-1" d="M105.81,0a16,16,0,0,0-16,16v7h32V16A16,16,0,0,0,105.81,0Z"/>
  <path d="M171.06,100.5h-12.5V72a12.5,12.5,0,0,0-12.5-12.5h-24.3V23H89.81V62.29h10V84.5h33.75V113a12.5,12.5,0,0,0,12.5,12.5h25a12.5,12.5,0,0,0,0-25Z"/>
  <g>
    <path class="cls-2" d="M104.51,11.9a2,2,0,1,1-2-2A2,2,0,0,1,104.51,11.9Z"/>
    <path class="cls-2" d="M114.29,11.9a2,2,0,1,1-2-2A2,2,0,0,1,114.29,11.9Z"/>
    <path class="cls-2" d="M105.41,17.37h4.07a1,1,0,0,0,0-2.05h-4.07a1,1,0,0,0,0,2.05Z"/>
  </g>
  <path class="cls-1" d="M99.81,84.5a10,10,0,0,0,10-10v-15h-20v15A10,10,0,0,0,99.81,84.5Z"/>
  <line class="cls-3" x1="89.81" y1="107" x2="89.81" y2="93.19"/>
  <line class="cls-3" x1="43.94" y1="107" x2="43.94" y2="93.19"/>
  <line class="cls-3" x1="66.87" y1="107" x2="66.87" y2="93.19"/>
  <line class="cls-3" x1="123.44" y1="134.62" x2="123.44" y2="120.81"/>
  <line class="cls-3" x1="132.16" y1="107" x2="1.13" y2="107"/>
  <line class="cls-3" x1="132.16" y1="93.19" x2="1.44" y2="93.19"/>
  <line class="cls-3" x1="112.74" y1="107" x2="112.74" y2="93.19"/>
  <line class="cls-3" x1="21" y1="107" x2="21" y2="93.19"/>
  <path class="cls-4" d="M1,156.29v-60A10.72,10.72,0,0,1,11.7,85.52H121.9a10.72,10.72,0,0,1,10.7,10.74v24.55H121.92a10.72,10.72,0,0,0-10.71,10.74v3.07H121.9a10.71,10.71,0,0,1,10.7,10.74v10.93Z"/>
  <path class="cls-5" d="M110.19,151.24a8.92,8.92,0,1,0,8.92-9A8.94,8.94,0,0,0,110.19,151.24Zm5.41,0a3.68,3.68,0,1,1,3.67,3.69A3.68,3.68,0,0,1,115.6,151.24Z"/>
  <path class="cls-5" d="M28.65,151.24a8.92,8.92,0,1,0,8.92-9A8.93,8.93,0,0,0,28.65,151.24Zm5.24,0a3.68,3.68,0,1,1,3.68,3.69A3.69,3.69,0,0,1,33.89,151.24Z"/>
  <line class="cls-3" x1="47" y1="134.62" x2="47" y2="120.81"/>
  <polygon class="cls-3" points="27.12 134.62 106.63 134.62 106.63 134.62 106.63 120.81 27.12 120.81 27.12 134.62 27.12 134.62"/>
  <line class="cls-3" x1="86.75" y1="134.62" x2="86.75" y2="120.81"/>
  <line class="cls-3" x1="66.87" y1="134.62" x2="66.87" y2="120.81"/>
</svg>
