<svg id="bdfm-icon__prey-predator" xmlns="http://www.w3.org/2000/svg" viewBox="0 0 146.28 216.09">
  <defs>
    <style>
      .cls-1, .cls-3, .cls-7 {
        fill: none;
      }

      .cls-1, .cls-2, .cls-5, .cls-6, .cls-7 {
        stroke: #010101;
      }

      .cls-1, .cls-3, .cls-5, .cls-6, .cls-7 {
        stroke-linecap: round;
      }

      .cls-1, .cls-3, .cls-5 {
        stroke-linejoin: round;
      }

      .cls-1, .cls-2, .cls-3, .cls-5, .cls-6, .cls-7 {
        stroke-width: 3.75px;
      }

      .cls-2, .cls-5, .cls-6 {
        fill: #fff;
      }

      .cls-2, .cls-6, .cls-7 {
        stroke-miterlimit: 10;
      }

      .cls-3 {
        stroke: #1d1d1b;
      }

      .cls-4 {
        fill: #010101;
      }
    </style>
  </defs>
  <title>bdfm-icon-prep__biodiversity</title>
  <line class="cls-1" x1="67.18" y1="129.05" x2="67.18" y2="93.66"/>
  <path class="cls-1" d="M79.69,78.84A12.52,12.52,0,1,1,67.18,66.32,12.51,12.51,0,0,1,79.69,78.84Z"/>
  <path class="cls-2" d="M75,99.77a7.86,7.86,0,1,1-7.85-7.86A7.85,7.85,0,0,1,75,99.77Z"/>
  <path class="cls-2" d="M75,58.46a7.86,7.86,0,1,1-7.85-7.86A7.85,7.85,0,0,1,75,58.46Z"/>
  <path class="cls-2" d="M87.34,88.16a7.86,7.86,0,1,1-11.12,0A7.86,7.86,0,0,1,87.34,88.16Z"/>
  <path class="cls-2" d="M58.13,59A7.86,7.86,0,1,1,47,59,7.86,7.86,0,0,1,58.13,59Z"/>
  <path class="cls-2" d="M87.83,71.25A7.86,7.86,0,1,1,80,79.11,7.87,7.87,0,0,1,87.83,71.25Z"/>
  <path class="cls-2" d="M46.52,71.25a7.86,7.86,0,1,1-7.86,7.86A7.87,7.87,0,0,1,46.52,71.25Z"/>
  <path class="cls-2" d="M76.21,59a7.87,7.87,0,1,1,0,11.12A7.88,7.88,0,0,1,76.21,59Z"/>
  <path class="cls-2" d="M47,88.16a7.86,7.86,0,1,1,0,11.12A7.86,7.86,0,0,1,47,88.16Z"/>
  <line class="cls-1" x1="115.88" y1="204.91" x2="115.88" y2="58.6"/>
  <path class="cls-1" d="M128.4,30.11A12.52,12.52,0,1,1,115.88,17.6,12.51,12.51,0,0,1,128.4,30.11Z"/>
  <path class="cls-2" d="M123.75,51a7.86,7.86,0,1,1-7.87-7.86A7.87,7.87,0,0,1,123.75,51Z"/>
  <path class="cls-2" d="M123.75,9.74a7.86,7.86,0,1,1-7.87-7.86A7.88,7.88,0,0,1,123.75,9.74Z"/>
  <path class="cls-2" d="M136.05,39.44a7.86,7.86,0,1,1-11.12,0A7.87,7.87,0,0,1,136.05,39.44Z"/>
  <path class="cls-2" d="M106.84,10.23a7.86,7.86,0,1,1-11.12,0A7.86,7.86,0,0,1,106.84,10.23Z"/>
  <path class="cls-2" d="M136.54,22.53a7.86,7.86,0,1,1-7.86,7.86A7.86,7.86,0,0,1,136.54,22.53Z"/>
  <path class="cls-2" d="M95.23,22.53a7.86,7.86,0,1,1-7.86,7.86A7.86,7.86,0,0,1,95.23,22.53Z"/>
  <path class="cls-2" d="M124.92,10.23a7.87,7.87,0,1,1,0,11.12A7.88,7.88,0,0,1,124.92,10.23Z"/>
  <path class="cls-2" d="M95.72,39.44a7.86,7.86,0,1,1,0,11.11A7.86,7.86,0,0,1,95.72,39.44Z"/>
  <path class="cls-3" d="M45.51,140.31a38.4,38.4,0,0,1,48.28,24.84c6.47,20.19,3.08,46.13-24.83,48.28S9.27,214.52,2.8,194.33,25.32,146.79,45.51,140.31Z"/>
  <path class="cls-4" d="M25.51,186a5.22,5.22,0,1,1-5.22-5.22A5.22,5.22,0,0,1,25.51,186Z"/>
  <path class="cls-5" d="M35.77,210.43c0-7.78,13.46-13.77,16.62-10.13"/>
  <path class="cls-6" d="M6.55,172.72c2.35-6.12,2-13.63,10-27.36S35.51,123.1,41,126.3s3.4,16.92-4.63,30.65a65.5,65.5,0,0,1-8.17,11.19"/>
  <path class="cls-2" d="M28.18,168.14"/>
  <path class="cls-7" d="M76.6,174.21a17.68,17.68,0,0,0-25,25"/>
  <path class="cls-2" d="M105.8,157.75a9.22,9.22,0,1,1-9.21-9.21A9.21,9.21,0,0,1,105.8,157.75Z"/>
</svg>
