<svg viewBox="0 0 463.53 750" xmlns="http://www.w3.org/2000/svg" xmlns:xlink="http://www.w3.org/1999/xlink"><clipPath id="a"><path d="m144.54 447.31c0-34.69 33.62-62.87 33.62-62.87s33.71 28.1 33.75 62.8l1.22 219.61-69.13.08z"/></clipPath><clipPath id="b"><path d="m71.3 570.62c0-34.69 33.62-62.87 33.62-62.87s33.71 28.1 33.75 62.8l1.22 96-69.13.08z"/></clipPath><path d="m-143.23 143.23h750v463.53h-750z" fill="#fff" transform="matrix(0 -1 1 0 -143.23 606.77)"/><path d="m115.91 97.41a35 35 0 1 1 -35 35 35 35 0 0 1 35-35z" fill="#70b52d"/><path d="m284.42 86.52c-23.31 0-29.13 23.66-30 30-2.84 20-39.22 36-38.33 72.18s24.8 65 21.41 84.54-27.17 43.91-21.41 68c9 37.43 38 21 49.84 57.77 7.18 22.33 18.51 66.27 18.51 66.27" fill="#4b9442"/><path d="m284.42 86.52c23.32 0 29.13 23.66 30 30 2.84 20 39.23 36 38.32 72.18s-24.8 65-21.4 84.54 27.17 43.91 21.4 68c-9 37.43-38 21-49.83 57.77-7.18 22.33-18.51 66.27-18.51 66.27" fill="#4b9442"/><path d="m284.42 86.52v581.83" fill="none" stroke="#1d1d1b" stroke-linejoin="round" stroke-width="3.41"/><path d="m144.54 447.31c0-34.69 33.62-62.87 33.62-62.87s33.71 28.1 33.75 62.8l1.22 219.61-69.13.08z" fill="#a6c74e" stroke="#a6c74e" stroke-miterlimit="10" stroke-width=".51"/><g clip-path="url(#a)" fill="none" stroke="#1d1d1b" stroke-linejoin="round" stroke-width="3.23"><path d="m174.37 574.47-31.66 31.49"/><path d="m174.3 501.88-31.67 31.49"/><path d="m183.45 550.81 31.73 31.4"/><path d="m160.56 401.03 31.74 31.42"/><path d="m181.66 628.23 31.74 31.42"/><path d="m206.98 415.71-31.67 31.5"/><path d="m149.27 421.72 64.57 61.65"/></g><path d="m71.3 570.62c0-34.69 33.62-62.87 33.62-62.87s33.71 28.1 33.75 62.8l1.22 96-69.13.08z" fill="#a6c74e" stroke="#a6c74e" stroke-miterlimit="10" stroke-width=".51"/><g clip-path="url(#b)" fill="none" stroke="#1d1d1b" stroke-linejoin="round" stroke-width="3.23"><path d="m100.06 632.19-31.67 31.49"/><path d="m87.32 524.35 31.74 31.41"/><path d="m133.74 540.03-31.67 31.49"/><path d="m76.03 545.03 64.57 61.65"/></g></svg>