<svg id="evevfd-spot__kitchen" xmlns="http://www.w3.org/2000/svg" viewBox="0 0 750 750">
  <defs>
    <style>
      .cls-1 {
        fill: #80c000;
      }

      .cls-2 {
        fill: #fff;
      }

      .cls-3 {
        fill: #eb563e;
      }

      .cls-4 {
        fill: #096;
      }

      .cls-5 {
        fill: #ffa017;
      }

      .cls-6 {
        fill: none;
        stroke: #fff;
        stroke-miterlimit: 10;
        stroke-width: 5.17px;
      }

      .cls-7 {
        fill: #f15a24;
      }

      .cls-8 {
        fill: red;
      }
    </style>
  </defs>
  <title>evfd-spot__kitchen</title>
  <rect class="cls-1" width="750" height="750"/>
  <rect class="cls-2" x="55.14" y="318.23" width="640.72" height="20.83"/>
  <polygon class="cls-3" points="355.55 708.16 309.26 708.57 379.73 347.17 424.25 355.85 355.55 708.16"/>
  <rect class="cls-3" x="307.17" y="213.06" width="45.68" height="345.64" transform="translate(79.95 -56.02) rotate(11.03)"/>
  <polygon class="cls-3" points="374.94 200.17 343.49 200.17 347.67 171.59 372.22 171.59 374.94 200.17"/>
  <circle class="cls-4" cx="297.88" cy="230.19" r="33.1"/>
  <circle class="cls-4" cx="423.35" cy="230.19" r="33.1"/>
  <rect class="cls-4" x="295.44" y="197.1" width="125.49" height="66.19"/>
  <circle cx="359.21" cy="128.88" r="40.86"/>
  <circle cx="359.21" cy="144.32" r="40.86"/>
  <rect x="318.36" y="128.88" width="81.72" height="15.44"/>
  <circle class="cls-4" cx="296.12" cy="230.19" r="33.1"/>
  <polygon class="cls-4" points="424.38 339.36 294.34 339.36 265.57 242.83 454.66 240.94 424.38 339.36"/>
  <circle class="cls-4" cx="327.15" cy="370.86" r="33.1"/>
  <rect class="cls-4" x="316.29" y="337.76" width="83.79" height="66.19" transform="translate(716.37 741.71) rotate(180)"/>
  <circle class="cls-4" cx="390.99" cy="370.86" r="33.1"/>
  <polygon class="cls-4" points="294.26 339.06 424.47 339.06 455.42 484.36 260.96 484.36 294.26 339.06"/>
  <path class="cls-5" d="M372.11,538.19" transform="translate(0 0)"/>
  <path d="M382.69,264.62c0,20,20.36,36.29,20.36,36.29s20.37-16.25,20.37-36.29-20.37-36.28-20.37-36.28S382.69,244.58,382.69,264.62Z" transform="translate(0 0)"/>
  <path class="cls-6" d="M352.48,429.82a15,15,0,0,1-21.24-21.25c5.87-5.86,26.36-5.11,26.36-5.11S358.35,424,352.48,429.82Z" transform="translate(0 0)"/>
  <path class="cls-6" d="M363.5,429.82a15,15,0,1,0,21.24-21.25c-5.87-5.86-26.36-5.11-26.36-5.11S357.63,424,363.5,429.82Z" transform="translate(0 0)"/>
  <g>
    <path d="M55.2,283.64c-.85,8.49,7.56,11.46,9.85,12,7.19,1.76,11.71,15.59,24.9,16.58s24.59-6.67,31.57-4.73,15,11.49,24,10.27c14-1.91,9-13.09,22.85-16.06,8.39-1.8,24.81-4.33,24.81-4.33" transform="translate(0 0)"/>
    <path d="M55.2,283.64c.85-8.49,9.68-9.75,12-9.85,7.4-.31,14.55-13,27.69-11.34s22.79,11.4,30,10.87,17-8.31,25.54-5.33c13.31,4.63,6.28,14.61,19.24,20.25,7.87,3.43,23.46,9.15,23.46,9.15" transform="translate(0 0)"/>
    <path class="cls-4" d="M286.19,299.53c-1.06.05-107.3,4.46-231-16.73l.28-1.6C179,302.36,285.06,298,286.12,297.91Z" transform="translate(0 0)"/>
  </g>
  <path class="cls-2" d="M527.08,159.55V319h123V159.55Zm90.17,21.61a6.38,6.38,0,0,1-6.36,6.36H566.32a6.38,6.38,0,0,1-6.36-6.36v-2.11a6.38,6.38,0,0,1,6.36-6.37h44.57a6.39,6.39,0,0,1,6.36,6.37Z" transform="translate(0 0)"/>
  <g>
    <g>
      <rect class="cls-4" x="638.93" y="286.39" width="55.81" height="7.42" transform="translate(-36.33 104.65) rotate(-8.74)"/>
      <rect class="cls-4" x="641.07" y="279.81" width="55.81" height="7.42" transform="translate(-53.91 356.7) rotate(-28.75)"/>
      <rect class="cls-4" x="635.71" y="276.45" width="55.81" height="7.42" transform="translate(-29.37 476.78) rotate(-38.73)"/>
      <rect class="cls-4" x="664.2" y="270.64" width="7.42" height="55.81" transform="translate(354.66 959.68) rotate(-88.73)"/>
    </g>
    <path class="cls-7" d="M619.83,316.61c-18.32,2.81-110,1.37-110,1.37s86.67-31.33,105-34.15,34.29,2.25,35.68,11.3S638.14,313.8,619.83,316.61Z" transform="translate(0 0)"/>
    <rect x="621.71" y="282.95" width="1.12" height="16.58" transform="translate(-36.99 97.82) rotate(-8.73)"/>
    <rect x="608.3" y="285.38" width="1.12" height="12.87" transform="translate(-37.34 96.14) rotate(-8.76)"/>
    <rect x="584.36" y="300.01" width="1.12" height="12.87" transform="translate(-39.58 91.89) rotate(-8.69)"/>
    <rect x="568.3" y="311.63" width="1.02" height="6.73" transform="translate(-41.05 89.52) rotate(-8.69)"/>
  </g>
  <polygon points="499.11 259.2 503.57 245.11 505.78 259.72 516.27 249.32 511.44 263.28 525.57 258.95 514.8 269.07 529.32 271.8 515.09 275.75 526.67 284.92 512.23 281.81 518.24 295.31 506.89 285.84 505.93 300.58 500.28 286.93 492.58 299.54 493.94 284.83 481.26 292.41 489.29 280.01 474.54 280.83 487.41 273.59 473.97 267.46 488.74 267.02 479.68 255.35 492.95 261.83 490.36 247.29 499.11 259.2"/>
  <path class="cls-8" d="M511,266.82a24.05,24.05,0,0,0-10.27,4.33,24,24,0,1,0,6.95,42.15,23.71,23.71,0,0,0,11.12.82,24,24,0,0,0-7.8-47.3Z" transform="translate(0 0)"/>
  <path class="cls-3" d="M358.69,660.55a47.83,47.83,0,0,0-47.61,48l95.63-.41A47.83,47.83,0,0,0,358.69,660.55Z" transform="translate(0 0)"/>
  <circle cx="403.05" cy="168.05" r="12.06"/>
  <circle cx="403.05" cy="192.16" r="12.06"/>
  <circle cx="403.05" cy="216.28" r="12.06"/>
  <line class="cls-6" x1="283.76" y1="384.86" x2="358.38" y2="403.46"/>
  <line class="cls-6" x1="434.36" y1="385.48" x2="358.38" y2="403.46"/>
  <polygon points="309.26 708.57 415.11 708.57 415.11 696.89 311.54 696.89 309.26 708.57"/>
  <path class="cls-3" d="M283.77,538.05a22.5,22.5,0,0,0-6.15,31.22l57.12,85.11,32-33L315,544.19A22.49,22.49,0,0,0,283.77,538.05Z" transform="translate(0 0)"/>
</svg>
