<svg id="evfd-spot__nuts--master" xmlns="http://www.w3.org/2000/svg" viewBox="0 0 463.53 750">
  <defs>
    <style>
      .cls-1, .cls-5 {
        fill: #373c2f;
      }

      .cls-2 {
        fill: #959f8b;
      }

      .cls-10, .cls-2, .cls-3, .cls-4, .cls-5, .cls-6, .cls-7, .cls-8, .cls-9 {
        stroke: #373c2f;
        stroke-miterlimit: 10;
      }

      .cls-2, .cls-3, .cls-4, .cls-6, .cls-7 {
        stroke-width: 4.43px;
      }

      .cls-3 {
        fill: #ced0c8;
      }

      .cls-4 {
        fill: #ff9093;
      }

      .cls-5 {
        stroke-width: 1.05px;
      }

      .cls-6, .cls-7 {
        fill: #d38c64;
      }

      .cls-6 {
        stroke-linecap: round;
      }

      .cls-8 {
        fill: #ffc2c3;
      }

      .cls-10, .cls-8, .cls-9 {
        stroke-width: 5.23px;
      }

      .cls-9 {
        fill: #f66;
      }

      .cls-10 {
        fill: none;
      }
    </style>
  </defs>
  <title>evfd-spot__seafood</title>
  <rect class="cls-1" x="-143.23" y="143.23" width="750" height="463.53" transform="translate(-143.23 606.77) rotate(-90)"/>
  <g>
    <g>
      <path class="cls-2" d="M167.21,325.7H122.16a167.32,167.32,0,0,0-9,53.08c0,59.72,35.86,113.21,68.15,149.3l13.59-15.7c-16.71-35.2-32.77-82.59-32.77-134.75A274.27,274.27,0,0,1,167.21,325.7Z"/>
      <path class="cls-2" d="M301.46,377.63c0,52.21-16.09,99.62-32.81,134.84l13.57,15.69c32.32-36.09,68.2-89.63,68.2-149.38a167.32,167.32,0,0,0-9-53.08h-45A275.1,275.1,0,0,1,301.46,377.63Z"/>
      <path class="cls-3" d="M243.11,558.2a394.19,394.19,0,0,0,25.54-45.73c16.72-35.22,32.81-82.63,32.81-134.84a275.1,275.1,0,0,0-5.12-51.93H167.21a274.27,274.27,0,0,0-5.13,51.93c0,52.16,16.06,99.55,32.77,134.75a390.51,390.51,0,0,0,25,44.86c-8.64,6.4-20.56,16.2-28.81,27-14.36,18.8-22,48.39-22,48.39H292.63s-7.65-29.59-22-48.39C262.77,574,251.61,564.6,243.11,558.2Z"/>
      <path class="cls-4" d="M231.76,351.15c-33.19,0-60.1-25.45-60.1-25.45s26.91-25.44,60.1-25.44,60.12,25.44,60.12,25.44S265,351.15,231.76,351.15Z"/>
      <path class="cls-5" d="M242.93,326.5a12.09,12.09,0,1,1-12.09-12.09A12.09,12.09,0,0,1,242.93,326.5Z"/>
      <line class="cls-6" x1="300.68" y1="357.66" x2="350.18" y2="387"/>
      <line class="cls-6" x1="299.48" y1="409.6" x2="338.08" y2="440.96"/>
      <line class="cls-6" x1="290.15" y1="455.62" x2="310.83" y2="491.82"/>
      <line class="cls-7" x1="163.29" y1="352.72" x2="113.33" y2="386.84"/>
      <line class="cls-7" x1="163.54" y1="405.19" x2="124.06" y2="437.25"/>
      <line class="cls-7" x1="171.92" y1="451.98" x2="150.8" y2="488.96"/>
    </g>
    <g>
      <path class="cls-8" d="M231.48,118.12A111,111,0,0,0,113.84,264.45l58.45-5.21c.1-1.27.21-2.53.35-3.8a77.44,77.44,0,0,1,85.78-68.08c16.47,1.89,31.13,8.84,44.84,22.89l22.94-13.44C310.7,153.54,275.63,123.18,231.48,118.12Z"/>
      <path class="cls-9" d="M314.54,204.83l-12.72,2.35c10.5,19.46,8.71,64.63,8.71,64.63l47.06-8s-1.61-13.28-3.11-19.93c-5.17-23.1-21.37-44.53-35-62.08Z"/>
      <path class="cls-10" d="M105.94,229.13a38.46,38.46,0,0,1,54.25-4.08"/>
      <path class="cls-10" d="M122.75,175.85a38.46,38.46,0,0,1,54.33,2.81"/>
      <path class="cls-10" d="M162.44,133.53a38.48,38.48,0,0,1,51.78,16.73"/>
    </g>
  </g>
</svg>
