<svg id="evfd-spot__green-trio--master" xmlns="http://www.w3.org/2000/svg" xmlns:xlink="http://www.w3.org/1999/xlink" viewBox="0 0 463.53 750">
  <defs>
    <style>
      .cls-1, .cls-5, .cls-8 {
        fill: none;
      }

      .cls-2 {
        fill: #fff;
      }

      .cls-3 {
        fill: #70b52d;
      }

      .cls-4 {
        fill: #4b9442;
      }

      .cls-5, .cls-8 {
        stroke: #1d1d1b;
        stroke-linejoin: round;
      }

      .cls-5 {
        stroke-width: 3.41px;
      }

      .cls-6 {
        fill: #a6c74e;
        stroke: #a6c74e;
        stroke-miterlimit: 10;
        stroke-width: 0.51px;
      }

      .cls-7 {
        clip-path: url(#clip-path);
      }

      .cls-8 {
        stroke-width: 3.23px;
      }

      .cls-9 {
        clip-path: url(#clip-path-2);
      }
    </style>
    <clipPath id="clip-path">
      <path class="cls-1" d="M144.54,447.31c0-34.69,33.62-62.87,33.62-62.87s33.71,28.1,33.75,62.8l1.22,219.61-69.13.08Z"/>
    </clipPath>
    <clipPath id="clip-path-2">
      <path class="cls-1" d="M71.3,570.62c0-34.69,33.62-62.87,33.62-62.87s33.71,28.1,33.75,62.8l1.22,96-69.13.08Z"/>
    </clipPath>
  </defs>
  <title>evfd-spot__green-trio</title>
  <rect class="cls-2" x="-143.23" y="143.23" width="750" height="463.53" transform="translate(-143.23 606.77) rotate(-90)"/>
  <path class="cls-3" d="M115.91,97.41a35,35,0,1,1-35,35A35,35,0,0,1,115.91,97.41Z"/>
  <path class="cls-4" d="M284.42,86.52c-23.31,0-29.13,23.66-30,30-2.84,20-39.22,36-38.33,72.18s24.8,65,21.41,84.54-27.17,43.91-21.41,68c9,37.43,38,21,49.84,57.77,7.18,22.33,18.51,66.27,18.51,66.27"/>
  <path class="cls-4" d="M284.42,86.52c23.32,0,29.13,23.66,30,30,2.84,20,39.23,36,38.32,72.18s-24.8,65-21.4,84.54,27.17,43.91,21.4,68c-9,37.43-38,21-49.83,57.77-7.18,22.33-18.51,66.27-18.51,66.27"/>
  <line class="cls-5" x1="284.42" y1="86.52" x2="284.42" y2="668.35"/>
  <path class="cls-6" d="M144.54,447.31c0-34.69,33.62-62.87,33.62-62.87s33.71,28.1,33.75,62.8l1.22,219.61-69.13.08Z"/>
  <g class="cls-7">
    <line class="cls-8" x1="174.37" y1="574.47" x2="142.71" y2="605.96"/>
    <line class="cls-8" x1="174.3" y1="501.88" x2="142.63" y2="533.37"/>
    <line class="cls-8" x1="183.45" y1="550.81" x2="215.18" y2="582.21"/>
    <line class="cls-8" x1="160.56" y1="401.03" x2="192.3" y2="432.45"/>
    <line class="cls-8" x1="181.66" y1="628.23" x2="213.4" y2="659.65"/>
    <line class="cls-8" x1="206.98" y1="415.71" x2="175.31" y2="447.21"/>
    <line class="cls-8" x1="149.27" y1="421.72" x2="213.84" y2="483.37"/>
  </g>
  <path class="cls-6" d="M71.3,570.62c0-34.69,33.62-62.87,33.62-62.87s33.71,28.1,33.75,62.8l1.22,96-69.13.08Z"/>
  <g class="cls-9">
    <line class="cls-8" x1="100.06" y1="632.19" x2="68.39" y2="663.68"/>
    <line class="cls-8" x1="87.32" y1="524.35" x2="119.06" y2="555.76"/>
    <line class="cls-8" x1="133.74" y1="540.03" x2="102.07" y2="571.52"/>
    <line class="cls-8" x1="76.03" y1="545.03" x2="140.6" y2="606.68"/>
  </g>
</svg>
