<svg id="evfd-spot__snap"
     xmlns="http://www.w3.org/2000/svg"
     xmlns:xlink="http://www.w3.org/1999/xlink"
     viewBox="0 0 750 750">
  <defs>
    <style>
      .cls-1 {
        fill: #096;
      }

      .cls-2 {
        fill: #eb563e;
      }

      .cls-3 {
        fill: #80c000;
      }

      .cls-4 {
        fill: #006837;
      }

      .cls-5 {
        fill: #fff;
      }

      .cls-10, .cls-6 {
        fill: none;
      }

      .cls-6 {
        stroke: #fff;
        stroke-linejoin: round;
        stroke-width: 0.33px;
      }

      .cls-7 {
        fill: #bbd18e;
      }

      .cls-8 {
        fill: #b8d78a;
      }

      .cls-9 {
        fill: #527425;
      }

      .cls-10 {
        stroke: #006837;
        stroke-miterlimit: 10;
        stroke-width: 3.1px;
      }
    </style>
  </defs>
  <title>evfd-spot__hi-spinach</title>
  <g>
    <rect class="cls-1" width="750" height="750"/>
    <path class="cls-2" d="M326,126.48a40.61,40.61,0,0,0-2.91-13.67l-77.16,42.1a41,41,0,0,0,26,27.28l-2.51,17.19H300.9l-1.66-17.49A40.87,40.87,0,0,0,326,143.94h0V126.48Z" transform="translate(0 0)"/>
    <path class="cls-3" d="M612.94,505.75c-6.25-3.27-27.81,8-32.64,17.79S572.6,541.7,569,546.45s-8.21,10.68-10,17.94c-2.85,11.28,7.24,11,5.25,22.46-1.21,7-4.34,20.34-4.34,20.34" transform="translate(0 0)"/>
    <path class="cls-3" d="M613,505.8c6.24,3.27,9.28,27.4,4,37s-10.54,16.67-12.37,22.37-4.09,12.83-9,18.47c-7.66,8.77-13.13.3-21.45,8.49-5,5-14.25,15.15-14.25,15.15" transform="translate(0 0)"/>
    <polyline class="cls-4" points="612.14 505.34 537.14 648.27 538.72 649.1 613.73 506.17"/>
    <polyline class="cls-4" points="557.29 507.62 536.1 649.27 537.87 649.53 559.06 507.88"/>
    <path d="M421.3,544.48c-4.82,5.13.2,28.93,8.35,36.22s15.41,12.3,19,17.09,8.08,10.78,14.58,14.49c10.1,5.78,12.5-4,23,1,6.4,3,18.42,9.64,18.42,9.64" transform="translate(0 0)"/>
    <path d="M421.37,544.4c4.83-5.13,28.89-1.56,36.66,6.12s13.23,14.63,18.22,17.93,11.26,7.4,15.36,13.66c6.39,9.73-3.24,12.72,2.4,22.93,3.43,6.21,10.76,17.8,10.76,17.8" transform="translate(0 0)"/>
    <polyline class="cls-4" points="421.61 544.15 524.16 640.62 523.55 641.27 420.99 544.8"/>
    <polyline class="cls-4" points="421.91 543.82 526.24 641.96 525.01 643.27 420.69 545.13"/>
    <polyline class="cls-4" points="423.69 545.49 528.02 643.63 526.79 644.94 422.47 546.8"/>
    <polyline class="cls-4" points="425.46 547.16 529.79 645.3 528.56 646.61 424.24 548.47"/>
    <polyline class="cls-4" points="427.24 548.83 531.57 646.97 530.34 648.27 426.01 550.14"/>
    <polyline class="cls-4" points="429.02 550.5 533.34 648.64 532.12 649.94 427.79 551.8"/>
    <path class="cls-5" d="M509.88,498.11c7-1,23.65,16.65,25,27.5s1.33,19.68,3.21,25.36,4.26,12.78,3.62,20.23c-1,11.6-10.43,8-12.32,19.5-1.15,7-2.57,20.64-2.57,20.64" transform="translate(0 0)"/>
    <path class="cls-5" d="M509.78,498.13c-7,1-17.75,22.84-15.87,33.61s4.49,19.2,4.35,25.19-.33,13.47,2.47,20.4c4.36,10.79,12.31,4.59,17.48,15,3.15,6.36,8.5,19,8.5,19" transform="translate(0 0)"/>
    <polyline class="cls-4" points="510.32 498.04 531.15 637.29 530.27 637.42 509.44 498.18"/>
    <path class="cls-3" d="M456.56,505.75c6.24-3.27,27.81,8,32.63,17.79s7.7,18.16,11.34,22.91,8.21,10.68,10,17.94c2.85,11.28-7.23,11-5.24,22.46,1.21,7,4.33,20.34,4.33,20.34" transform="translate(0 0)"/>
    <path class="cls-3" d="M456.46,505.8c-6.24,3.27-9.28,27.4-4,37s10.53,16.67,12.36,22.37,4.1,12.83,9,18.47c7.65,8.77,13.12.3,21.45,8.49,5.05,5,14.24,15.15,14.24,15.15" transform="translate(0 0)"/>
    <polyline class="cls-4" points="510.76 497.98 531.96 639.63 530.19 639.9 509 498.24"/>
    <polyline class="cls-4" points="457.35 505.34 532.36 648.27 530.77 649.1 455.77 506.17"/>
    <polyline class="cls-4" points="511.12 500.39 532.32 642.04 530.55 642.31 509.35 500.65"/>
    <polyline class="cls-4" points="511.48 502.8 532.67 644.45 530.9 644.72 509.71 503.06"/>
    <polyline class="cls-4" points="511.85 505.21 533.04 646.86 531.27 647.12 510.08 505.47"/>
    <polyline class="cls-4" points="512.21 507.62 533.4 649.27 531.63 649.53 510.44 507.88"/>
    <rect class="cls-2" x="271.83" y="347.55" width="45.37" height="349.49" transform="translate(105.4 -46.71) rotate(11.03)"/>
    <path class="cls-2" d="M217.06,660.42l59.53-305.3-44.53-8.68L163.84,696.3h93A47.87,47.87,0,0,0,217.06,660.42Z" transform="translate(0 0)"/>
    <path class="cls-3" d="M434.53,378.56l37.62-25.35L391.49,232.92c-.8,1.82-1.7,3.66-2.74,5.51-15.18,26.9-39.42,35.41-39.42,35.41L308,196.31H221.37a33.12,33.12,0,0,0-31.1,42.4h0l.07.21c.19.65.4,1.28.63,1.91L219.75,328,186.87,483.69H381.41L350.52,329.15l16.69-50.52Z" transform="translate(0 0)"/>
    <path d="M298.07,537.53" transform="translate(0 0)"/>
    <path d="M285.17,87.19a40.87,40.87,0,0,0-40.84,39.29h0v17.46h0a40.91,40.91,0,0,0,1.62,11l77.16-42.1A40.86,40.86,0,0,0,285.17,87.19Z" transform="translate(0 0)"/>
    <line class="cls-6" x1="479.35" y1="647.33" x2="494.06" y2="647.33"/>
    <path class="cls-2" d="M284.64,660A47.83,47.83,0,0,0,237,708l95.66-.41A47.83,47.83,0,0,0,284.64,660Z" transform="translate(0 0)"/>
    <rect x="283.81" y="650.7" width="11.69" height="102.87" transform="translate(-412.49 991.79) rotate(-90)"/>
    <polygon points="163.84 696.3 163.84 696.3 163.84 696.3 163.84 696.3"/>
    <path d="M162.17,708h.39c0-1.27.12-3,.27-4.62Z" transform="translate(0 0)"/>
    <path d="M258.22,707.58l-95.66.41H267.45V696.3H256.83A47.6,47.6,0,0,1,258.22,707.58Z" transform="translate(0 0)"/>
    <path d="M256.83,696.3h-93l-1,7.07c-.15,1.61-.27,3.35-.27,4.62l95.66-.41A47.6,47.6,0,0,0,256.83,696.3Z" transform="translate(0 0)"/>
    <path class="cls-3" d="M388.75,238.43c1-1.85,1.94-3.69,2.74-5.51l-13.78-20.55a33.08,33.08,0,0,0-28.38-16.06c-.81,0-1.62,0-2.42.09v-.09H308l41.29,77.53s24.24-8.51,39.42-35.41" transform="translate(0 0)"/>
    <path d="M299.2,166.26h0a20.81,20.81,0,0,1-14.81-6.14,3.1,3.1,0,0,1,4.39-4.39,14.73,14.73,0,0,0,20.86,0,3.1,3.1,0,0,1,4.39,4.39A20.84,20.84,0,0,1,299.2,166.26Z" transform="translate(0 0)"/>
    <path class="cls-5" d="M398,187.15l-73.48.25-1,8.91h23.4v.09c.8-.05,1.61-.09,2.42-.09a33.08,33.08,0,0,1,28.38,16.06l13.78,20.55c10.56-24.12,6.53-45.76,6.53-45.76" transform="translate(0 0)"/>
    <polyline class="cls-7" points="320.73 220.15 320.73 220.15 349.33 273.84 320.73 220.15"/>
    <path class="cls-8" d="M349.33,196.31c-.81,0-1.62,0-2.42.09v-.09h-23.4l-2.78,23.84,28.6,53.69s24.24-8.51,39.42-35.41c1-1.85,1.94-3.69,2.74-5.51l-13.78-20.55a33.08,33.08,0,0,0-28.38-16.06" transform="translate(0 0)"/>
    <path d="M303.33,187.47l21.21-.07.29-2.46a4.51,4.51,0,0,0-4.57-5.14H291a5.93,5.93,0,0,0-5.74,5.15l-8.3,75.24a4.53,4.53,0,0,0,4.6,5.14H310.3a6,6,0,0,0,5.77-5.14l4.66-40L308,196.31l-4.71-8.84" transform="translate(0 0)"/>
    <polyline class="cls-9" points="324.54 187.4 303.33 187.47 308.04 196.31 323.51 196.31 324.54 187.4"/>
    <polyline class="cls-9" points="308.04 196.31 320.73 220.15 320.73 220.15 308.04 196.31"/>
    <polyline class="cls-9" points="323.51 196.31 308.04 196.31 320.73 220.15 323.51 196.31"/>
    <path class="cls-5" d="M307.4,194.63a.79.79,0,0,1-.76.68h-3.78a.6.6,0,0,1-.61-.68l.71-6.79a.78.78,0,0,1,.76-.68h3.85a.6.6,0,0,1,.6.68Z" transform="translate(0 0)"/>
    <circle cx="286.2" cy="143.94" r="4.69"/>
    <path d="M316.89,143.94a4.69,4.69,0,1,1-4.68-4.68A4.68,4.68,0,0,1,316.89,143.94Z" transform="translate(0 0)"/>
    <path d="M225.15,191.61c0,20.25,20.58,36.67,20.58,36.67s20.58-16.42,20.58-36.67-20.58-36.67-20.58-36.67S225.15,171.35,225.15,191.61Z" transform="translate(0 0)"/>
    <path class="cls-2" d="M285.38,213a18.11,18.11,0,0,0-23.19-2.26l-.2-.21-2.22,2.17h0l-15,14.7,25.33,25.9,17.26-16.87-.2-.21A18.09,18.09,0,0,0,285.38,213Z" transform="translate(0 0)"/>
    <path d="M575.11,173.86c-8.62-5.39-16.24,2-18.05,4.16-5.68,6.75-22.84,4.25-30.87,17.82s-5.88,29.78-11.64,36.21-20.2,9.95-23.64,20.18c-5.34,15.92,9.2,16.57,5.06,32.89-2.51,9.92-8.48,28.79-8.48,28.79" transform="translate(0 0)"/>
    <path d="M575.11,173.86c8.62,5.39,5.29,15.49,4.15,18-3.58,8.07,6.17,22.4-2.53,35.55s-24.21,18.31-27.46,26.31-.11,22.52-7.82,30.09c-12,11.76-18.91-1-31.78,9.83-7.82,6.6-22.18,20.22-22.18,20.22" transform="translate(0 0)"/>
    <line class="cls-10" x1="575.11" y1="173.86" x2="440.53" y2="388.98"/>
    <path class="cls-2" d="M481.08,366.37A26.39,26.39,0,1,1,454.69,340,26.39,26.39,0,0,1,481.08,366.37Z" transform="translate(0 0)"/>
    <path d="M559.61,498.11c-7-1-23.65,16.65-25,27.5s-1.33,19.68-3.21,25.36-4.26,12.78-3.61,20.23c1,11.6,10.42,8,12.31,19.5,1.15,7,2.57,20.64,2.57,20.64" transform="translate(0 0)"/>
    <path d="M559.72,498.13c7,1,17.75,22.84,15.87,33.61s-4.5,19.2-4.36,25.19.33,13.47-2.47,20.4c-4.35,10.79-12.31,4.59-17.48,15-3.15,6.36-8.5,19-8.5,19" transform="translate(0 0)"/>
    <polyline class="cls-4" points="559.17 498.04 538.34 637.29 539.23 637.42 560.06 498.18"/>
    <polyline class="cls-4" points="558.73 497.98 537.53 639.63 539.3 639.9 560.5 498.24"/>
    <polyline class="cls-4" points="558.37 500.39 537.18 642.04 538.95 642.31 560.14 500.65"/>
    <polyline class="cls-4" points="558.01 502.8 536.82 644.45 538.59 644.72 559.78 503.06"/>
    <polyline class="cls-4" points="557.65 505.21 536.45 646.86 538.22 647.12 559.42 505.47"/>
    <path d="M648.19,544.48c4.83,5.13-.2,28.93-8.35,36.22s-15.41,12.3-19,17.09-8.08,10.78-14.57,14.49c-10.1,5.78-12.5-4-23,1-6.4,3-18.42,9.64-18.42,9.64" transform="translate(0 0)"/>
    <path d="M648.12,544.4c-4.82-5.13-28.89-1.56-36.66,6.12s-13.22,14.63-18.22,17.93-11.25,7.4-15.36,13.66c-6.38,9.73,3.25,12.72-2.4,22.93-3.43,6.21-10.76,17.8-10.76,17.8" transform="translate(0 0)"/>
    <polyline class="cls-4" points="647.89 544.15 545.33 640.62 545.95 641.27 648.5 544.8"/>
    <polyline class="cls-4" points="647.58 543.82 543.25 641.96 544.48 643.27 648.81 545.13"/>
    <polyline class="cls-4" points="645.8 545.49 541.48 643.63 542.7 644.94 647.03 546.8"/>
    <polyline class="cls-4" points="644.03 547.16 539.7 645.3 540.93 646.61 645.26 548.47"/>
    <polyline class="cls-4" points="642.25 548.83 537.93 646.97 539.15 648.27 643.48 550.14"/>
    <polyline class="cls-4" points="640.48 550.5 536.15 648.64 537.38 649.94 641.7 551.8"/>
    <path class="cls-2" d="M534.17,627.93a134.64,134.64,0,0,0-116.23,67.64H651.55A134.63,134.63,0,0,0,534.17,627.93Z" transform="translate(0 0)"/>
  </g>
</svg>
