<svg id="evfd-spot__nuts--master" xmlns="http://www.w3.org/2000/svg" viewBox="0 0 463.53 750">
  <defs>
    <style>
      .cls-1 {
        fill: #c96;
      }

      .cls-2 {
        fill: #684b02;
      }

      .cls-3 {
        fill: #fff;
      }
    </style>
  </defs>
  <title>evfd-spot__nuts</title>
  <rect class="cls-1" x="-143.23" y="143.23" width="750" height="463.53" transform="translate(-143.23 606.77) rotate(-90)"/>
  <g>
    <path class="cls-2" d="M247.2,518.72c-4.76-.66-10.11-1.22-15.87-1.65,4.09-19.26,17.34-45.78,38.91-77.74,6.29-9.31,12.57-18,18.28-25.67C274.93,443.57,257,488,253.91,519.81,251.92,519.44,249.7,519.07,247.2,518.72Z"/>
    <path class="cls-2" d="M269.48,529.42c0-.22,0-.44,0-.66,0-2.81-1.75-5.23-8.63-7.3,3.31-38,30.13-97.13,42.89-123.48V598a38.83,38.83,0,0,1-18.71-6.37,94.11,94.11,0,0,0,.64-10.88C285.71,567.64,280.24,550.37,269.48,529.42Z"/>
    <path class="cls-2" d="M245.67,624.28l.08-.18c.44-1,.87-2.11,1.28-3.22l.15-.44c.38-1,.75-2.08,1.09-3.17.08-.23.14-.46.21-.69.32-1,.63-2.06.92-3.14.09-.31.16-.64.24-1,.27-1,.52-2,.76-3.08.1-.43.18-.89.27-1.32.21-1,.42-2,.6-3,.11-.62.21-1.27.31-1.89.14-.88.29-1.73.42-2.63.21-1.55.41-3.14.58-4.78,0-.17,0-.34,0-.52.16-1.66.3-3.37.4-5.13,0-.25,0-.51,0-.76s0-.5,0-.76c0-.63.06-1.26.08-1.9,0-.12,0-.24,0-.36s0-.27,0-.41,0-.4,0-.6v-.24c0-.68,0-1.37,0-2.06,0-.28,0-.56,0-.84s0-.55,0-.83,0-.43,0-.65c0-.74,0-1.49,0-2.25,0-.27,0-.54,0-.82,0-.5,0-1-.06-1.51,0-.33-.05-.68-.07-1s-.06-.91-.1-1.38-.06-.77-.1-1.15-.08-.88-.13-1.33-.09-.83-.13-1.25-.1-.87-.16-1.32-.11-.87-.17-1.31l-.18-1.33-.21-1.38-.21-1.34c-.08-.48-.16-1-.25-1.44s-.16-.9-.24-1.36-.18-1-.28-1.5-.18-.92-.27-1.38-.2-1-.31-1.55l-.3-1.4c-.11-.53-.23-1.06-.35-1.6s-.22-.95-.33-1.43-.25-1.1-.38-1.65-.23-1-.35-1.43l-.42-1.73-.34-1.3c-.34-1.31-.7-2.64-1.07-4-.1-.36-.19-.72-.29-1.09s-.3-1.06-.46-1.59l1.12-.14c2.41-.34,4.56-.69,6.5-1l.64-.13.64-.12c.56-.11,1.09-.22,1.6-.34l.64-.14.64-.15,1.59-.4.64-.18.64-.18a32.81,32.81,0,0,0,3.54-1.26c9.5,18.94,14.33,34.38,14.33,45.92,0,1.83-.07,3.6-.17,5.33,0,.29,0,.59-.05.88l-.06.87c-.05.71-.12,1.41-.19,2.11,0,.24-.05.48-.08.71s-.05.51-.08.76c-.08.65-.17,1.3-.26,1.93,0,.16,0,.3-.07.46s0,.2-.05.3l-.06.35-.06.4a2.17,2.17,0,0,1,0,.25c-.09.54-.19,1.08-.29,1.61l-.15.72c0,.22-.09.44-.13.65-.12.53-.23,1.06-.35,1.58-.05.21-.11.42-.16.63s-.1.42-.16.62c-7.33,28.58-29.93,40.31-46,45.08C235.66,641.38,241.32,634.48,245.67,624.28Z"/>
    <path class="cls-2" d="M361.27,528.79c0-34.06-22.87-88.85-37.93-121.25,23.88,31.3,63.24,87.93,63.24,121.25,0,37.5-21.75,57.29-48.28,65.19C351.59,582.64,361.27,562,361.27,528.79Z"/>
    <path class="cls-2" d="M133.17,533.18c-.18-.14-.36-.28-.51-.42a6.23,6.23,0,0,1-1.13-1.35,4.43,4.43,0,0,1-.35-.73,4.26,4.26,0,0,1-.25-.93c.19-.36.37-.73.56-1.1v.11a5.1,5.1,0,0,0,.11,1.09c.18-.35.35-.7.53-1a3.93,3.93,0,0,0,.17,1.1,3.88,3.88,0,0,0,1,1.61c-.11.21-.22.42-.32.63.15.14.32.28.5.43Z"/>
    <path class="cls-2" d="M310.89,598V398c13.62,28.19,43.27,93.78,43.27,130.79C354.16,569.8,337.68,595.9,310.89,598Z"/>
    <path class="cls-2" d="M224.28,540.89l.65,0,1.62-.09.64,0,.64,0,1.62-.11.65-.05.64,0q4.26-.32,8.19-.71h0c.2.67.39,1.34.58,2,.12.45.24.89.37,1.33l.51,1.88c.13.47.25.94.37,1.42s.31,1.15.45,1.71.25,1,.37,1.46l.39,1.6c.12.5.24,1,.35,1.49s.24,1,.35,1.48l.33,1.5.3,1.4c.11.5.21,1,.31,1.5s.18.89.26,1.33.19,1,.28,1.47l.24,1.29.24,1.42q.1.65.21,1.26l.21,1.38c.06.42.12.83.17,1.24l.18,1.3.15,1.25c0,.41.09.82.14,1.22s.08.84.12,1.26.07.76.1,1.13c0,.15,0,.3,0,.46s0,.56.05.84c0,.08,0,.15,0,.23,0,.26,0,.52,0,.77s0,.2,0,.3c0,.39,0,.76,0,1.14l0,.78c0,.18,0,.34,0,.51s0,.62,0,.92,0,.48,0,.72v.18c0,.74,0,1.47,0,2.21,0,.28,0,.56,0,.84s0,.4,0,.59,0,.16,0,.25c0,.85-.06,1.69-.1,2.52,0,.3,0,.61,0,.9-1.79,33.73-15.76,56.24-37.7,60.94l-.58.13c-.46.09-.93.16-1.4.24s-.76.13-1.14.18l-1.16.13c-.37,0-.73.09-1.1.11h0V541.51c7.17,0,14.14-.24,20.71-.59Z"/>
    <path class="cls-2" d="M136.28,534.92c3.31,1.41,8.5,2.67,16.45,3.8,0,.16-.09.32-.13.48l-.3,1c-.31,1.13-.62,2.24-.91,3.33l-.12.44c-.24.94-.49,1.88-.72,2.8-.11.42-.2.82-.31,1.24-.16.64-.32,1.29-.47,1.93-.11.46-.21.91-.32,1.37s-.27,1.15-.39,1.71-.21,1-.31,1.42-.23,1.07-.34,1.6-.19.95-.29,1.42l-.3,1.51c-.09.48-.17,1-.26,1.42s-.17,1-.26,1.44-.15.93-.23,1.39-.15.94-.22,1.4-.14.9-.2,1.34-.13.92-.2,1.38-.11.86-.16,1.29-.11.9-.16,1.35-.1.82-.14,1.23-.09.91-.13,1.36-.07.76-.1,1.13-.07.94-.1,1.41l-.06,1c0,.52,0,1-.07,1.52l0,.82c0,.77,0,1.52,0,2.26,0,1.65,0,3.28.09,4.89,0,.47,0,.93.06,1.39,0,1.17.1,2.34.18,3.48,0,.48.06,1,.1,1.42.09,1.23.2,2.44.33,3.64,0,.32.06.65.1,1q.52,4.73,1.37,9.12c0,.17.07.34.1.51q.39,2,.84,3.87c.05.2.09.4.14.6.34,1.38.69,2.73,1.07,4.05v0q1.23,4.23,2.78,8.07l.1.24c.48,1.19,1,2.34,1.51,3.47l.14.32c.43.9.87,1.78,1.32,2.65.37.71.76,1.4,1.16,2.09l.24.44q1.46,2.49,3.06,4.76l.23.31c.66.92,1.35,1.81,2.05,2.67l.18.22q1.15,1.41,2.4,2.7c.82.87,1.67,1.7,2.54,2.49l.06.06a70.84,70.84,0,0,1-23.7-12.87C129.37,620.16,122,602.8,122,580.76,122,569.27,126.8,553.84,136.28,534.92Z"/>
    <path class="cls-2" d="M153,591.59c-.09-1.1-.17-2.22-.23-3.34,0-.41,0-.83,0-1.25,0-.81-.07-1.62-.09-2.44,0-1.25-.05-2.52-.05-3.8,0-.71,0-1.42,0-2.15,0-.26,0-.53,0-.8q0-.7.06-1.44c0-.33.05-.67.07-1l.09-1.3c0-.38.07-.77.11-1.15s.07-.82.12-1.24.09-.84.14-1.25.09-.81.15-1.23.11-.89.18-1.33.11-.81.17-1.22.14-.94.22-1.41.13-.82.19-1.23.17-1,.26-1.47.15-.83.22-1.25l.3-1.53c.08-.42.16-.85.25-1.28s.21-1,.32-1.57.19-.87.29-1.31.23-1.07.35-1.61.21-.91.32-1.37.25-1.08.39-1.63.23-1,.35-1.44.27-1.08.41-1.62.26-1,.4-1.54.28-1.07.43-1.61l.45-1.66c.14-.52.29-1,.43-1.56l.54-1.85,0-.09c10.4,1.11,22.81,1.77,35.95,1.89V649.93h0l-.23,0-.94-.11c-.52,0-1.05-.11-1.57-.18l-1-.17c-.48-.08-1-.16-1.45-.26l-1.11-.26c-.41-.1-.82-.19-1.22-.3l-1.32-.4-.93-.29c-.52-.18-1-.37-1.54-.57l-.62-.24c-.6-.25-1.19-.51-1.78-.79l-.31-.14c-.67-.33-1.34-.67-2-1h0c-15.09-8.43-24.72-27.31-26.82-53.34C153,591.74,153,591.66,153,591.59Z"/>
    <path class="cls-3" d="M162,532.67l-.65-.06-.66-.07c-1.6-.18-3.12-.36-4.56-.55l-.65-.08-.65-.09a85.21,85.21,0,0,1-14.58-3l-.3-.1,1.1-.37,1.28-.36c8.5-2.28,28.05-4.93,57.9-4.93,8.48,0,16.13.21,22.93.57l.64,0,.65,0,1.62.1.64,0,.64,0,1.62.11.65.05.64,0A200.45,200.45,0,0,1,253.47,527l.64.13.64.13,1.61.36.65.15.64.17.54.14,1.07.3.2.06.44.14.57.2-.57.19-.51.16-.13,0-1.61.45-.64.16-.65.15-1.61.36-.64.13-.64.13c-2.62.51-5.76,1-9.43,1.5l-.65.08-.65.08c-1.45.17-3,.35-4.58.51l-.65.06-.66.07q-3.19.31-6.78.57l-.64.05-.65,0-1.61.11-.64,0-.64,0-1.61.1-.65,0-.64,0c-6,.31-12.72.51-20.06.55h-7.11C182.2,534.27,170.88,533.59,162,532.67Z"/>
  </g>
  <g>
    <path class="cls-3" d="M208,209.69a40.28,40.28,0,0,0,.46-18c-.37-1.68-.78-3.24-1.19-4.76H163.56c-.37,1.37-.72,2.79-1.06,4.29a40.38,40.38,0,0,0,.56,18.44Z"/>
    <path class="cls-3" d="M174.75,254.21c-1.6-3.15-3.34-6.37-5.12-9.67-2.23-4.11-4.53-8.37-6.67-12.73H122.74c1.76,3.83,3.65,7.64,5.53,11.42s3.68,7.39,5.32,11Z"/>
    <path class="cls-3" d="M188,155.43l-.56-.52a6.13,6.13,0,0,0-.51-.51,2.7,2.7,0,0,0-1.63-.87,2.87,2.87,0,0,0-1.48.63l-1.18,1.11c-6.63,6.3-12.26,12.65-16.46,23.6h38.43C200.33,168,194.64,161.74,188,155.43Z"/>
    <path class="cls-3" d="M153.67,201.32h-39c-.18,7.4,1.74,14.9,4.63,22.4h40C156.27,216.46,154.07,209,153.67,201.32Z"/>
    <path class="cls-3" d="M148,292.77c1.22,2.32,2.49,4.68,3.79,7.07,2.67,4.93,5.44,10.05,7.91,15.32h40.15c-2.07-4.68-4.38-9.35-6.69-14-1.42-2.85-2.8-5.65-4.11-8.41Z"/>
    <path class="cls-3" d="M176.74,240.69c3.27,6,6.4,11.83,8.82,17.5,2.39-5.5,5.42-11.15,8.58-17,4.18-7.72,8.41-15.56,11.33-23.43H165.61C168.52,225.48,172.66,233.14,176.74,240.69Z"/>
    <path class="cls-3" d="M181.41,271.38a.31.31,0,0,1,0-.08c0-.25-.12-.5-.18-.75a51.32,51.32,0,0,0-2.69-8.25H137a60.12,60.12,0,0,1,2.58,8.95v0a4.93,4.93,0,0,1,.27.73,4.24,4.24,0,0,1,.13,1,55.49,55.49,0,0,0,4,11.67h41.44a66.18,66.18,0,0,1-3.59-11.5A3.88,3.88,0,0,1,181.41,271.38Z"/>
    <path class="cls-3" d="M113.15,336a39.38,39.38,0,0,0-.18,16.67c.48,2.16,1,4.17,1.56,6.07h42.93c.5-1.76,1-3.6,1.42-5.59A39.56,39.56,0,0,0,158.6,336Z"/>
    <path class="cls-3" d="M221.8,302.17c-5.6-10.34-10.9-20.13-13.11-29.53a4,4,0,0,1-.46-1.8,3.7,3.7,0,0,1,0-.47,1.5,1.5,0,0,1,0-.22.17.17,0,0,1,0-.07c.09-.58.19-1.16.31-1.74,1.88-9.48,6.85-19.46,12.1-30,8.82-17.71,17.93-36,13.41-53.56-6-23.18-15.57-31.5-25.73-40.32-10.33-9-21-18.22-29-41.69-.48-.92-5.51-9.82-22-10.06-6.87-.11-12,1.59-14.92,4.91a10,10,0,0,0-2.42,4.89,5.43,5.43,0,0,1-.16.76c-7.22,23.88-17.6,33.53-27.64,42.87-9.84,9.15-19.15,17.8-24.33,41.16-3.91,17.68,5.83,35.66,15.25,53,5.63,10.37,11,20.21,13.15,29.63.13.57.25,1.14.36,1.7v0c0,.08,0,.15,0,.22a3.88,3.88,0,0,1,0,.48,4,4,0,0,1-.39,1.79c-1.88,9.47-6.85,19.44-12.09,30-8.82,17.71-17.93,36-13.41,53.56,6,23.16,15.57,31.48,25.73,40.3s20.8,18,28.8,41a32.77,32.77,0,0,0,20.27,8.6c11.14.65,18.18-7.22,19.69-9.09,7.21-23.36,17.49-32.92,27.43-42.16s19.16-17.82,24.33-41.18C240.94,337.51,231.21,319.54,221.8,302.17Zm-8.31,51c-6.19,24-16.5,33-26.48,41.64l-1.76,1.53a4,4,0,1,1-5.33-6.08l1.78-1.56c9.06-7.88,17.64-15.37,23.23-34.95H167c-.08.39-.15.78-.24,1.18-4.7,21.21-12.81,30.93-22.24,39.91l0,0c-3.15,3.5-6.34,4.21-8.51,4.14a10.86,10.86,0,0,1-6.62-2.71l0,0,0,0a13.35,13.35,0,0,1-1.13-1.06l-.12-.14c-9.74-9.18-18.15-18.85-23-40.59-4.28-19.4,6-38.34,15-55.05,5.07-9.37,9.84-18.23,11.6-26.12-.07-.37-.14-.75-.23-1.12s-.08-.49-.14-.73c-1.79-7.46-5.94-15.8-10.31-24.58-8.49-17-18.1-36.33-13.13-55.59,6.2-24,16.53-33,26.53-41.68l1.72-1.5a4,4,0,1,1,5.32,6.09l-1.74,1.52c-9.47,8.22-18.41,16-24,37.55H154c.16-1.24.38-2.49.65-3.73,4.76-21.47,13-31.18,22.59-40.25.32-.33.7-.69,1.13-1.06l0,0a.1.1,0,0,0,.05,0,10.89,10.89,0,0,1,6.63-2.71c2.17-.07,5.35.64,8.5,4.14,9.65,9.12,18,18.81,22.78,40.42,4.28,19.4-6,38.35-15,55.07-4.92,9.08-9.54,17.67-11.43,25.36-.05.24-.11.47-.17.71v.05c1.5,7.91,5.95,16.9,10.68,26.41C208.85,314.6,218.46,333.9,213.49,353.16Z"/>
    <path class="cls-3" d="M144.63,303.7c-3.25-6-6.38-11.83-8.8-17.48-2.39,5.51-5.44,11.17-8.61,17-4.4,8.13-8.88,16.39-11.79,24.69h40.83C153.34,319.79,149,311.68,144.63,303.7Z"/>
    <path class="cls-3" d="M167.78,345.65h38.81c.69-7.38-.87-14.89-3.53-22.39H163.13C165.92,330.53,167.8,338,167.78,345.65Z"/>
    <path class="cls-3" d="M134.35,389.85a.81.81,0,0,0,.09.1l.33.31a2.92,2.92,0,0,0,1.48.63,2.36,2.36,0,0,0,1.36-.65c6.86-6.41,12.72-12.62,17.11-23.39H117.35C121.73,377.37,127.55,383.5,134.35,389.85Z"/>
  </g>
</svg>
