<svg id="evfm-spot-anim__family" xmlns="http://www.w3.org/2000/svg" viewBox="0 0 750 750">
  <defs>
    <style>
      .cls-1 {
        fill: #ffc15c;
      }

      .cls-2 {
        fill: #f4ceab;
      }

      .cls-3 {
        fill: #ff8c5c;
      }

      .cls-4 {
        fill: #edbf64;
      }

      .cls-5 {
        fill: #cc974f;
      }

      .cls-6 {
        fill: #999;
      }

      .cls-7 {
        fill: #eb9b00;
      }

      .cls-8 {
        fill: #db7c5a;
      }
    </style>
  </defs>
  <title>evfm-spot__family</title>
  <rect id="background" class="cls-1" width="750" height="750"/>
  <g id="daughter">
    <circle class="cls-2" cx="220.87" cy="455.37" r="96.63"/>
    <path class="cls-3" d="M308.31,451.72a96.32,96.32,0,0,0-175.07,0h-8.76v50.5h.57A96.37,96.37,0,0,0,189.57,583l-6,41H258l-4-41.68a96.35,96.35,0,0,0,62.5-80.07h.57v-50.5Z"/>
    <path d="M220.77,528.69h0a49.19,49.19,0,0,1-35-14.53,7.34,7.34,0,0,1,10.38-10.37,34.85,34.85,0,0,0,49.31,0,7.34,7.34,0,0,1,10.38,10.37A49.23,49.23,0,0,1,220.77,528.69Z"/>
    <path d="M220.77,359.56c-60.5-1.42-96.29,50.24-96.29,95.59v59.48L220.77,397l96.3,117.64V455.15C317.07,409.8,281.27,358.14,220.77,359.56Z"/>
    <g>
      <circle cx="190.04" cy="475.91" r="11.08"/>
      <circle cx="251.51" cy="475.91" r="11.08"/>
    </g>
    <g>
      <path d="M266.56,595.6c0,47.4,48.17,85.82,48.17,85.82S362.89,643,362.89,595.6s-48.16-85.81-48.16-85.81S266.56,548.21,266.56,595.6Z"/>
      <path d="M78.66,595.6c0,47.4,48.17,85.82,48.17,85.82S175,643,175,595.6s-48.16-85.81-48.16-85.81S78.66,548.21,78.66,595.6Z"/>
    </g>
  </g>
  <g id="grandma">
    <circle class="cls-4" cx="193.28" cy="178.44" r="78.27"/>
    <circle class="cls-4" cx="246.74" cy="178.44" r="78.27"/>
    <path class="cls-5" d="M325,230.67a78.3,78.3,0,0,0-57.93-75.59V98.93H172.94v56.15a78.27,78.27,0,0,0-1.86,150.64l-4.53,17.68H273.47l-3-18.13A78.29,78.29,0,0,0,325,230.67Z"/>
    <rect class="cls-5" x="115.01" y="179.21" width="210" height="50.67"/>
    <g>
      <path d="M220,231.6h0a49.22,49.22,0,0,1-35-14.52,7.34,7.34,0,0,1,10.38-10.38,34.85,34.85,0,0,0,49.31,0,7.34,7.34,0,1,1,10.38,10.38A49.26,49.26,0,0,1,220,231.6Z"/>
      <g>
        <rect x="168.28" y="176.62" width="29.5" height="13.29"/>
        <rect x="242.25" y="176.62" width="29.5" height="13.29"/>
      </g>
    </g>
    <path class="cls-6" d="M353.43,209.46c.05-.63.08-1.27.08-1.92s0-1.57-.11-2.34Q353.45,207.33,353.43,209.46Z"/>
    <path class="cls-6" d="M352,205.2c-1.73-77.29-66.29-138.62-141-132.14C144.25,77,89.67,134.47,88.07,205.46q0,2.13,0,4.26a24.43,24.43,0,0,0,42.75,14.16h0L220.12,114.8,309.2,223.63h0a24.42,24.42,0,0,0,41.26-7.48,23.86,23.86,0,0,0,1.48-6.68Q352,207.33,352,205.2Z"/>
  </g>
  <g id="mama">
    <g>
      <path d="M632.84,304.75a24.8,24.8,0,1,0-3,3Q631.37,306.28,632.84,304.75Z"/>
      <path d="M632.84,304.75c58.6-61.3,50.19-162.45-24.43-205.91l-18.83,188.7,0,0,34.47,23.9a24.41,24.41,0,0,0,5.77-3.68Q631.37,306.28,632.84,304.75Z"/>
    </g>
    <g>
      <path d="M443.82,304.75a24.61,24.61,0,1,1,3,3C445.79,306.78,444.79,305.77,443.82,304.75Z"/>
      <path d="M443.82,304.75c-58.6-61.3-50.2-162.45,24.42-205.91l18.83,188.7,0,0-34.47,23.9a24.62,24.62,0,0,1-5.77-3.68C445.79,306.78,444.79,305.77,443.82,304.75Z"/>
    </g>
    <path class="cls-7" d="M627.51,230.67a78.26,78.26,0,0,0-43.65-70.2V98.94H490.18v61.53a78.26,78.26,0,0,0-.75,140l-5.87,22.91H590.48l-4-23.87A78.27,78.27,0,0,0,627.51,230.67Z"/>
    <path d="M537,246.57h0a40,40,0,0,1-28.5-11.81,6,6,0,0,1,8.44-8.44,28.37,28.37,0,0,0,40.12,0,6,6,0,0,1,8.44,8.44A40,40,0,0,1,537,246.57Z"/>
    <circle cx="508.6" cy="199.83" r="10.24"/>
    <circle cx="565.43" cy="199.83" r="10.24"/>
    <g>
      <path d="M669.82,205.21a24.43,24.43,0,1,0-1.45,10.94,23.94,23.94,0,0,0,1.48-6.68C669.86,208,669.85,206.63,669.82,205.21Z"/>
      <path d="M669.82,205.21C667.92,120.43,590.45,54.85,507,76.88L627.07,223.64h0l41.26-7.48a23.94,23.94,0,0,0,1.48-6.68C669.86,208,669.85,206.63,669.82,205.21Z"/>
    </g>
    <g>
      <path d="M405.94,205.47a24.72,24.72,0,1,1,0,4.26Q405.9,207.59,405.94,205.47Z"/>
      <path d="M405.94,205.47c1.91-84.78,79.37-150.36,162.87-128.33L448.7,223.89h0l-41.27-7.48a24.3,24.3,0,0,1-1.48-6.68Q405.9,207.59,405.94,205.47Z"/>
    </g>
  </g>
  <g id="grandson">
    <path class="cls-8" d="M671.16,496.27A78.36,78.36,0,0,0,596.94,418v-.11H483.85a78.36,78.36,0,0,0,0,156.72h13.22l-12.2,47.62H591.78l-7.94-47.62h13.1v-.11A78.36,78.36,0,0,0,671.16,496.27Z"/>
    <path d="M538.32,543.58h0a40,40,0,0,1-28.5-11.82,6,6,0,1,1,8.45-8.44,28.34,28.34,0,0,0,40.12,0,6,6,0,1,1,8.44,8.44A40.05,40.05,0,0,1,538.32,543.58Z"/>
    <circle cx="509.91" cy="496.84" r="10.24"/>
    <circle cx="566.74" cy="496.84" r="10.24"/>
    <path d="M596.94,418v-.11H483.85A78.31,78.31,0,0,0,416,457H660.63A78.31,78.31,0,0,0,596.94,418Z"/>
  </g>
</svg>
