<svg id="everydayfood-icons" xmlns="http://www.w3.org/2000/svg" viewBox="0 0 400 400.99"><defs><style>.cls-1{fill:#bd9a67;}.cls-1,.cls-2{stroke:#000;stroke-miterlimit:10;stroke-width:4.5px;}.cls-2{fill:#fff7eb;}</style></defs><title>almond</title><path class="cls-1" d="M221.58,208.63c0,38.26-28.37,56.45-63.35,56.45s-63.38-18.19-63.38-56.45S158.23,95.69,158.23,95.69,221.58,170.38,221.58,208.63Z"/><path class="cls-1" d="M158.94,265.08c-21.54,0-39-18.19-39-56.45s39-112.94,39-112.94"/><path class="cls-1" d="M158.94,265.08c21.52,0,39-18.19,39-56.45s-39-112.94-39-112.94"/><line class="cls-1" x1="158.94" y1="95.69" x2="158.94" y2="265.08"/><path class="cls-1" d="M203.5,248.85c0-10.13,2.76-22.82,6.78-36-8.6-.89-15.27-2.13-19-3.57-7.52,14.44-12.81,28.53-12.81,39.57,0,38.26,28.36,56.45,63.36,56.45h.44C220.82,305.14,203.5,287,203.5,248.85Z"/><path class="cls-1" d="M305.15,248.85c0-11-5.3-25.13-12.81-39.57-3.57,1.36-9.75,2.55-17.67,3.42,4,13.24,6.81,26,6.81,36.15,0,37.59-16.86,55.76-37.85,56.39C277.76,304.61,305.15,286.44,305.15,248.85Z"/><path class="cls-1" d="M242.5,214.31h-.71a313.39,313.39,0,0,1-31.51-1.47c-4,13.18-6.78,25.87-6.78,36,0,38.1,17.32,56.29,38.73,56.44h.27Z"/><path class="cls-1" d="M281.48,248.85c0-10.17-2.77-22.91-6.81-36.15a305.54,305.54,0,0,1-32.17,1.61v91l1.13,0C264.62,304.61,281.48,286.44,281.48,248.85Z"/><path class="cls-2" d="M292.79,208.6c0,3.94-22.79,7.13-50.91,7.13S191,212.54,191,208.6s22.78-7.13,50.92-7.13S292.79,204.67,292.79,208.6Z"/></svg>