<svg id="everydayfood-icons" xmlns="http://www.w3.org/2000/svg" viewBox="0 0 400 400.99"><defs><style>.cls-1{fill:#a6c74e;}.cls-1,.cls-2{stroke:#1d1e1c;stroke-miterlimit:10;stroke-width:4.5px;}.cls-2{fill:#ede44a;}</style></defs><title>asparagus</title><path class="cls-1" d="M251.36,207.43c5.93-19.32-8.88-41-8.88-41s-24.44,9.65-30.37,29l-31.58,101,40.27,12.36Z"/><line class="cls-2" x1="218.13" y1="249.86" x2="230.98" y2="273.85"/><line class="cls-2" x1="220.79" y1="236.86" x2="196.7" y2="249.53"/><line class="cls-2" x1="228.7" y1="171.85" x2="241.55" y2="195.84"/><line class="cls-2" x1="251.18" y1="188.78" x2="227.08" y2="201.44"/><line class="cls-2" x1="218.02" y1="181.1" x2="244.55" y2="228.62"/><path class="cls-1" d="M188.74,129.84C188.07,108.7,167,92.2,167,92.2S147,110,147.7,131.13l4.92,174.11,42.11-1.31Z"/><line class="cls-2" x1="170.59" y1="206.15" x2="190.51" y2="224.7"/><line class="cls-2" x1="169.19" y1="161.92" x2="189.11" y2="180.48"/><line class="cls-2" x1="168.9" y1="192.99" x2="150.19" y2="212.75"/><line class="cls-2" x1="177.47" y1="102.59" x2="158.76" y2="122.36"/><line class="cls-2" x1="173.77" y1="252.05" x2="193.69" y2="270.61"/><line class="cls-2" x1="172.09" y1="238.89" x2="153.37" y2="258.65"/><line class="cls-2" x1="151.33" y1="113" x2="171.25" y2="131.56"/><line class="cls-2" x1="185.35" y1="114.34" x2="147.24" y2="153.18"/></svg>