<svg id="everydayfood-icons" xmlns="http://www.w3.org/2000/svg" viewBox="0 0 400 400.99"><defs><style>.cls-1{fill:#c5d123;}.cls-1,.cls-2{stroke:#1d1d1b;stroke-linecap:round;stroke-miterlimit:10;stroke-width:4.5px;}.cls-2{fill:#7e4e24;}</style></defs><title>avocado</title><path class="cls-1" d="M263.39,228.3c.43-28.16-21.7-42.59-21.91-57.35-.64-41.6-16.33-61.56-40.3-62.77v-.06c-.4,0-.79,0-1.18,0s-.78,0-1.18,0v.06c-24,1.21-39.66,21.17-40.29,62.77-.22,14.76-22.36,29.19-21.92,57.35a64.57,64.57,0,0,0,62.21,64.51v.06c.4,0,.78,0,1.18,0s.78,0,1.18,0v-.06A64.57,64.57,0,0,0,263.39,228.3Z"/><path class="cls-2" d="M230.19,230.5A30.19,30.19,0,1,1,200,200.3,30.19,30.19,0,0,1,230.19,230.5Z"/></svg>