<svg id="everydayfood-icons" xmlns="http://www.w3.org/2000/svg" viewBox="0 0 400 400.99"><defs><style>.cls-1{fill:#f8c933;stroke:#1d1d1b;stroke-linecap:round;stroke-linejoin:round;stroke-width:4.5px;}</style></defs><title>banana</title><path class="cls-1" d="M298.48,174.08c-11.05-6.67-15.05,2.4-33.22,11.38-47.58,23.52-109.21,9.45-130.45-39.19-2.06-4.71-1,2.87-2.74.28l-.91-12-16.44,3.16-1.3,8.7.71-.13c-3.45,12.59,1.12,33.08,10.79,52.61,23.53,47.59,80.47,65.62,128.74,43.56C307.87,217.72,310.07,181.05,298.48,174.08Z"/><path class="cls-1" d="M294.51,206.74c-10.06-8.09-15.24.35-34.46,6.82-50.29,16.94-102.88,1.31-117.42-49.73a64.56,64.56,0,0,0-4.27-11.46l-5.62-9.63-13.27-8.16-4.65,20,.72,0c-5.11,12-3.32,32.93,3.64,53.59,16.94,50.3,71,75.8,121.75,60.41C298,251.24,305.05,215.2,294.51,206.74Z"/><path class="cls-1" d="M253.11,261.31c-5.19-11.83-13.68-6.73-33.71-9.88C167,243.18,127.57,205,138.3,153a64.46,64.46,0,0,0,1.5-12.12L150.65,117l-21.53-9.76-11.2,24.75.66.3c-10.1,8.29-18.18,27.66-21.56,49.19-8.25,52.44,27.85,100,80,109.88C235.57,302.37,258.53,273.7,253.11,261.31Z"/></svg>