<svg id="everydayfood-icons" xmlns="http://www.w3.org/2000/svg" viewBox="0 0 400 400.99"><defs><style>.cls-1{fill:#c47d7d;}.cls-1,.cls-2{stroke:#000;stroke-miterlimit:10;stroke-width:4.5px;}.cls-2{fill:#fff;}</style></defs><title>bean</title><path class="cls-1" d="M207.06,88.58s19.39,14,2.1,31.33-21.82-2.49-38.64,14.35,2.18,22.11-15,39.24-31.28-2.16-31.28-2.16-25.07-31.77,13.4-69.91S207.06,88.58,207.06,88.58Z"/><path class="cls-2" d="M160.84,125.11c-9.4,9.4-6.6,17.31,0,23.91a16.12,16.12,0,0,0,2.1,1.72c-.18-4.62.68-9.58,7.58-16.48,6.63-6.64,11.35-7.58,15.69-7.35a17.68,17.68,0,0,0-1.46-1.8C178.14,118.51,170.23,115.72,160.84,125.11Z"/><path class="cls-1" d="M191.72,156.94s14-19.4,31.33-2.11-2.48,21.82,14.35,38.65,22.11-2.19,39.24,14.94-2.15,31.28-2.15,31.28-31.78,25.07-69.91-13.4S191.72,156.94,191.72,156.94Z"/><path class="cls-2" d="M228.25,203.15c9.4,9.4,17.31,6.6,23.91,0a16.12,16.12,0,0,0,1.72-2.1c-4.62.18-9.58-.67-16.48-7.57-6.64-6.63-7.58-11.35-7.35-15.7a17.54,17.54,0,0,0-1.8,1.47C221.66,185.85,218.86,193.76,228.25,203.15Z"/><path class="cls-1" d="M146.67,313.2s-19.82-13.41-3.09-31.24,21.88,1.8,38.18-15.56-2.87-22,13.7-39.69,31.33,1.16,31.33,1.16,26.06,31-11.19,70.3S146.67,313.2,146.67,313.2Z"/><path class="cls-2" d="M191.72,275.23c9.09-9.68,6.05-17.5-.76-23.89a16.32,16.32,0,0,0-2.16-1.66c.34,4.63-.36,9.6-7,16.72-6.43,6.84-11.11,7.93-15.46,7.84a17.8,17.8,0,0,0,1.52,1.75C174.63,282.38,182.62,284.92,191.72,275.23Z"/></svg>