<svg id="everydayfood-icons" xmlns="http://www.w3.org/2000/svg" viewBox="0 0 400 400.99"><defs><style>.cls-1{fill:#dbffb5;}.cls-1,.cls-2,.cls-3{stroke:#000;stroke-linejoin:round;stroke-width:4.5px;}.cls-1,.cls-2{stroke-linecap:round;}.cls-2{fill:#ffb700;}.cls-3{fill:none;}</style></defs><title>carrot</title><rect class="cls-1" x="200.99" y="15.48" width="14.88" height="111.84"/><rect class="cls-1" x="188.62" y="9.24" width="14.87" height="111.85" transform="translate(-10.46 71.02) rotate(-20.01)"/><rect class="cls-1" x="180.33" y="18.83" width="14.87" height="111.85" transform="translate(-12.23 103.88) rotate(-29.99)"/><polygon class="cls-1" points="208.44 125.62 223.09 128.2 242.5 18.06 227.86 15.48 208.44 125.62"/><path class="cls-2" d="M246.63,172.58c0,37.14-30.76,218.35-30.76,218.35s-35.69-181.21-35.69-218.35,14.88-67.23,33.23-67.23S246.63,135.44,246.63,172.58Z"/><line class="cls-3" x1="180.51" y1="160.02" x2="213.73" y2="160.02"/><line class="cls-3" x1="181.29" y1="186.76" x2="207.07" y2="186.76"/><line class="cls-3" x1="202.98" y1="238.62" x2="228.77" y2="238.62"/><line class="cls-3" x1="217.82" y1="286.05" x2="235.47" y2="286.05"/></svg>