<svg id="everydayfood-icons" xmlns="http://www.w3.org/2000/svg" viewBox="0 0 400 400.99"><defs><style>.cls-1{fill:#ebe7cc;stroke:#1d1e1c;stroke-miterlimit:10;stroke-width:4.5px;}</style></defs><title>cashew</title><path class="cls-1" d="M144.49,157c-7.06-7.06-10.25-23.09-2.29-29.12,8.65-6.55,14.42-2.47,18.23-.54,7.68,3.92,17.37-.5,20.24-4.87,7.27-11,4.36-14.7-2.7-21.75l-.05,0c-10.9-10.16-1.87-25.63,6.81-29.89,9-4.38,20.23-4.09,28.52,3.23,21.15,21.15,19.62,53.75-3,73.36-19.47,16.89-44.61,30.64-65.76,9.5Z"/><path class="cls-1" d="M194.24,182.27c7-7.06,18-7.92,24,0,6.56,8.65-.4,17.82-2.33,21.63-3.92,7.68-1,13.52,3.32,16.4,11,7.26,19.7,9.52,26.75,2.46l0,0c10.17-10.9,25.64-1.87,29.89,6.81,4.4,9,4.09,20.22-3.23,28.53-21.15,21.13-58.74,14.43-78.34-8.15-16.9-19.47-21.12-46.49,0-67.64Z"/><path class="cls-1" d="M202.32,243.53c-7.06-7.05-18-7.91-24,.05-6.54,8.65.4,17.81,2.33,21.63,3.93,7.68-.5,17.37-4.87,20.25-11,7.26-14.7,4.35-21.75-2.71l0-.05c-10.16-10.89-25.63-1.87-29.88,6.81-4.39,9-4.09,20.22,3.22,28.53,21.15,21.14,53.75,19.61,73.36-3,16.9-19.47,22.66-50.35,1.52-71.49Z"/></svg>