<svg id="everydayfood-icons" xmlns="http://www.w3.org/2000/svg" viewBox="0 0 400 400.99"><defs><style>.cls-1,.cls-2,.cls-3{fill:#dcff5c;stroke:#000;stroke-width:4.5px;}.cls-1,.cls-3{stroke-miterlimit:10;}.cls-2{stroke-linejoin:round;}.cls-3{stroke-linecap:round;}</style></defs><title>celery</title><rect class="cls-1" x="193.97" y="92.15" width="11.4" height="261"/><path class="cls-1" d="M224.18,155.37l4.33,136.25v-.68a58.77,58.77,0,0,1-29.4,51l.8.28s17.88,9.06,29.93,6.81h1A67.27,67.27,0,0,0,264,290.94L240.44,148.69"/><path class="cls-2" d="M173.93,155.37,169.6,293.05l.09-2.11c0,59.66,61.11,58.05,61.11,58.05-10,5.9-17.14,9.29-29.62,9.29h0a67.31,67.31,0,0,1-67.34-67.34l25.41-142"/><path class="cls-3" d="M169.6,162.87,178,148.29H194c-.18-13.31-2.59-32.09-23.93-22.75h-.88c-21.34-9.34-23.76,9.44-23.95,22.75h16l8.42,14.58Z"/><path class="cls-3" d="M228.52,162.87l8.42-14.58h15.95c-.18-13.31-2.6-32.09-23.93-22.75h-.89c-21.33-9.34-23.75,9.44-23.94,22.75h16l8.42,14.58Z"/><path class="cls-3" d="M262,121l8.42-14.59h15.95c-.18-13.3-2.6-32.08-23.94-22.75h-.88c-21.34-9.33-23.75,9.45-23.94,22.75h16L262,121Z"/><path class="cls-3" d="M138,121l8.42-14.59h16c-.18-13.3-2.6-32.08-23.93-22.75h-.89c-21.33-9.33-23.75,9.45-23.94,22.75h16L138,121Z"/><path class="cls-3" d="M199.8,121l8.42-14.59h16c-.18-13.3-2.61-32.08-23.94-22.75h-.89c-21.33-9.33-23.75,9.45-23.93,22.75h16L199.79,121Z"/><path class="cls-3" d="M168.68,82.55,177.1,68h16c-.18-13.31-2.6-32.08-23.94-22.76h-.88c-21.34-9.32-23.76,9.45-23.94,22.76h16l8.42,14.58Z"/><path class="cls-3" d="M231.28,82.55,239.7,68h16c-.18-13.31-2.61-32.08-23.95-22.76h-.88c-21.34-9.32-23.76,9.45-23.94,22.76h16l8.41,14.58Z"/></svg>