<svg id="everydayfood-icons" xmlns="http://www.w3.org/2000/svg" viewBox="0 0 400 400.99"><defs><style>.cls-1,.cls-2{fill:#fdf4af;stroke:#1d1d1b;stroke-width:4.5px;}.cls-1{stroke-linejoin:round;}.cls-2{stroke-miterlimit:10;}</style></defs><title>cheese</title><path class="cls-1" d="M292.08,196.06,292,269.15l-38.1,0a17.34,17.34,0,0,0,2.71-9.22c0-10-8.62-18.2-19.29-18.22S218,249.79,218,259.84a17,17,0,0,0,2.67,9.22l-112.74-.13.08-73.09-.19-1.13,38.09-62.87,16.75,7.22a15.05,15.05,0,0,0-.36,3.25A15.4,15.4,0,0,0,190.4,151l101.79,43.9Z"/><path class="cls-2" d="M125.14,235.47a15.41,15.41,0,1,0,15.42-15.39A15.42,15.42,0,0,0,125.14,235.47Z"/><line class="cls-1" x1="107.81" y1="194.71" x2="292.08" y2="196.06"/><path class="cls-2" d="M166.64,201.68a23,23,0,1,0,23.08-23A23,23,0,0,0,166.64,201.68Z"/></svg>