<svg id="everydayfood-icons" xmlns="http://www.w3.org/2000/svg" viewBox="0 0 400 400.99"><defs><style>.cls-1{fill:#ee9bc1;}.cls-1,.cls-2,.cls-3,.cls-4{stroke:#1d1d1b;stroke-width:4.5px;}.cls-1,.cls-2,.cls-4{stroke-miterlimit:10;}.cls-2{fill:#fff;}.cls-3{fill:#cdcdcd;stroke-linejoin:round;}.cls-4{fill:#8a7056;}</style></defs><title>chocolate</title><rect class="cls-1" x="147" y="92.94" width="86.92" height="216.04"/><line class="cls-2" x1="233.92" y1="259.13" x2="147" y2="259.13"/><polygon class="cls-3" points="147 259.13 253 288.13 233.92 259.13 147 259.13"/><rect class="cls-4" x="204.95" y="92.01" width="28.97" height="41.44"/><rect class="cls-4" x="175.98" y="92.01" width="28.98" height="41.44"/><rect class="cls-4" x="147" y="92.01" width="28.97" height="41.44"/><rect class="cls-4" x="204.95" y="133.45" width="28.97" height="41.43"/><rect class="cls-4" x="175.98" y="133.45" width="28.98" height="41.43"/><rect class="cls-4" x="147" y="133.45" width="28.97" height="41.43"/><rect class="cls-4" x="204.95" y="174.89" width="28.97" height="41.45"/><rect class="cls-4" x="175.98" y="174.89" width="28.98" height="41.45"/><rect class="cls-4" x="147" y="174.89" width="28.97" height="41.45"/><rect class="cls-4" x="204.95" y="216.34" width="28.97" height="41.44"/><rect class="cls-4" x="175.98" y="216.34" width="28.98" height="41.44"/><rect class="cls-4" x="147" y="216.34" width="28.97" height="41.44"/></svg>