<svg id="everydayfood-icons" xmlns="http://www.w3.org/2000/svg" xmlns:xlink="http://www.w3.org/1999/xlink" viewBox="0 0 400 400.99"><defs><style>.cls-1,.cls-5{fill:none;}.cls-2{clip-path:url(#clip-path);}.cls-3{fill:#fdef71;}.cls-3,.cls-4,.cls-5{stroke:#1d1e1c;stroke-miterlimit:10;stroke-width:4.5px;}.cls-4{fill:#9fc317;}</style><clipPath id="clip-path"><path class="cls-1" d="M228.32,67.54H171.68c-8.31,45-16.66,102.21-22.28,137.66L192,299.84,249,195.4C243.49,161.37,235.88,108.51,228.32,67.54Z"/></clipPath></defs><title>corn</title><g class="cls-2"><rect class="cls-3" x="148.94" y="67.54" width="25.15" height="27.41"/><rect class="cls-3" x="174.09" y="67.54" width="25.14" height="27.41"/><rect class="cls-3" x="199.23" y="67.54" width="25.14" height="27.41"/><rect class="cls-3" x="224.37" y="67.54" width="25.15" height="27.41"/><rect class="cls-3" x="148.94" y="94.95" width="25.15" height="27.42"/><rect class="cls-3" x="174.09" y="94.95" width="25.14" height="27.42"/><rect class="cls-3" x="199.23" y="94.95" width="25.14" height="27.42"/><rect class="cls-3" x="224.37" y="94.95" width="25.15" height="27.42"/><rect class="cls-3" x="148.94" y="122.37" width="25.15" height="27.42"/><rect class="cls-3" x="174.09" y="122.37" width="25.14" height="27.42"/><rect class="cls-3" x="199.23" y="122.37" width="25.14" height="27.42"/><rect class="cls-3" x="224.37" y="122.37" width="25.15" height="27.42"/><rect class="cls-3" x="148.94" y="149.79" width="25.15" height="27.42"/><rect class="cls-3" x="174.09" y="149.79" width="25.14" height="27.42"/><rect class="cls-3" x="199.23" y="149.79" width="25.14" height="27.42"/><rect class="cls-3" x="224.37" y="149.79" width="25.15" height="27.42"/><rect class="cls-3" x="148.94" y="177.21" width="25.15" height="27.42"/><rect class="cls-3" x="174.09" y="177.21" width="25.14" height="27.42"/><rect class="cls-3" x="199.23" y="177.21" width="25.14" height="27.42"/><rect class="cls-3" x="224.37" y="177.21" width="25.15" height="27.42"/><rect class="cls-3" x="148.94" y="204.63" width="25.15" height="27.42"/><rect class="cls-3" x="174.09" y="204.63" width="25.14" height="27.42"/><rect class="cls-3" x="199.23" y="204.63" width="25.14" height="27.42"/><rect class="cls-3" x="224.37" y="204.63" width="25.15" height="27.42"/><rect class="cls-3" x="148.94" y="232.05" width="25.15" height="27.42"/><rect class="cls-3" x="174.09" y="232.05" width="25.14" height="27.42"/><rect class="cls-3" x="199.23" y="232.05" width="25.14" height="27.42"/><rect class="cls-3" x="224.37" y="232.05" width="25.15" height="27.42"/><rect class="cls-3" x="148.94" y="259.47" width="25.15" height="27.42"/><rect class="cls-3" x="174.09" y="259.47" width="25.14" height="27.42"/><rect class="cls-3" x="199.23" y="259.47" width="25.14" height="27.42"/><rect class="cls-3" x="224.37" y="259.47" width="25.15" height="27.42"/><rect class="cls-3" x="148.94" y="286.89" width="25.15" height="27.42"/><rect class="cls-3" x="174.09" y="286.89" width="25.14" height="27.42"/><rect class="cls-3" x="199.23" y="286.89" width="25.14" height="27.42"/><rect class="cls-3" x="224.37" y="286.89" width="25.15" height="27.42"/></g><path class="cls-4" d="M142.58,263.05c0,38.88,25.71,70.4,57.41,70.4a47.21,47.21,0,0,0,5.61-.34L149.4,208.33C145.23,234.63,142.58,254.68,142.58,263.05Z"/><path class="cls-5" d="M228.32,70.68H171.68c-8.31,45-16.66,102.2-22.28,137.65L192,303l57-104.44C243.49,164.5,235.88,111.64,228.32,70.68Z"/><path class="cls-4" d="M192,303l13.57,30.13c29.08-3.46,51.82-33.5,51.82-70.06,0-9.37-3.33-33.42-8.39-64.51Z"/></svg>