<svg id="everydayfood-icons" xmlns="http://www.w3.org/2000/svg" viewBox="0 0 400 400.99"><defs><style>.cls-1{fill:#959f8b;}.cls-1,.cls-2,.cls-3,.cls-5{stroke:#1d1d1b;stroke-width:4.5px;}.cls-1,.cls-2,.cls-5{stroke-linecap:round;stroke-linejoin:round;}.cls-2{fill:#ced0c8;}.cls-3{fill:#f0b0ce;stroke-miterlimit:10;}.cls-4{fill:#1d1e1c;}.cls-5{fill:#d38c64;}</style></defs><title>fish</title><path class="cls-1" d="M154,100.3H122a119.25,119.25,0,0,0-6.44,37.79c0,42.51,25.53,80.6,48.51,106.28l9.67-11.17c-11.88-25.06-23.32-58.79-23.32-95.93A195.3,195.3,0,0,1,154,100.3Z"/><path class="cls-1" d="M249.62,137.27c0,37.17-11.46,70.92-23.36,96l9.66,11.17c23-25.69,48.55-63.8,48.55-106.34A119.24,119.24,0,0,0,278,100.3H246A196.13,196.13,0,0,1,249.62,137.27Z"/><path class="cls-2" d="M208.07,265.82a279.17,279.17,0,0,0,18.19-32.56c11.9-25.07,23.36-58.82,23.36-96a196.13,196.13,0,0,0-3.65-37H154a195.3,195.3,0,0,0-3.65,37c0,37.14,11.44,70.87,23.32,95.93a280.48,280.48,0,0,0,17.79,31.94c-6.15,4.55-14.63,11.53-20.51,19.22-10.22,13.37-15.66,34.44-15.66,34.44h88s-5.45-21.07-15.66-34.44C222.07,277.05,214.13,270.38,208.07,265.82Z"/><path class="cls-3" d="M200,118.42c-23.63,0-42.79-18.12-42.79-18.12S176.37,82.19,200,82.19s42.79,18.11,42.79,18.11S223.64,118.42,200,118.42Z"/><path class="cls-4" d="M208,100.87a8.61,8.61,0,1,1-8.61-8.61A8.62,8.62,0,0,1,208,100.87Z"/><line class="cls-5" x1="249.06" y1="123.05" x2="284.3" y2="143.94"/><line class="cls-5" x1="248.21" y1="160.03" x2="273.42" y2="180.51"/><line class="cls-5" x1="241.56" y1="192.79" x2="255.37" y2="216.96"/><line class="cls-5" x1="149.9" y1="120.46" x2="119.3" y2="141.35"/><line class="cls-5" x1="150.75" y1="157.44" x2="125.53" y2="177.92"/><line class="cls-5" x1="157.39" y1="190.2" x2="143.59" y2="214.37"/></svg>