<svg id="everydayfood-icons" xmlns="http://www.w3.org/2000/svg" viewBox="0 0 400 400.99"><defs><style>.cls-1{fill:#e4e6f3;}.cls-1,.cls-2{stroke:#1d1e1c;stroke-miterlimit:10;stroke-width:4.5px;}.cls-2{fill:none;}</style></defs><title>garlic</title><path class="cls-1" d="M272.63,244.11c0,26.94-32.52,35.33-72.63,35.33s-72.63-8.39-72.63-35.33,32.51-62.18,72.63-62.18S272.63,217.18,272.63,244.11Z"/><path class="cls-1" d="M212.05,179.49c0-16.21,3-60.9,3-60.9H185s3,39.54,3,60.9S174.56,201,174.32,236.6c0,25.29,11.49,45.8,25.68,45.8s25.67-20.51,25.67-45.8C225.67,199.17,212.05,195.7,212.05,179.49Z"/><path class="cls-2" d="M215.18,184.88c21.57,0,39.06,33.93,39.06,59.23s-17.49,32.38-39.06,32.38"/><path class="cls-2" d="M186.24,184.88c-21.56,0-39.06,33.93-39.06,59.23s17.5,32.38,39.06,32.38"/></svg>