<svg id="everydayfood-icons" xmlns="http://www.w3.org/2000/svg" viewBox="0 0 400 400.99"><defs><style>.cls-1{fill:#c8c7c7;}.cls-1,.cls-4{stroke:#1d1e1c;}.cls-1,.cls-4,.cls-5{stroke-miterlimit:10;stroke-width:4.5px;}.cls-2{fill:#fff;}.cls-3{fill:#9f2d56;}.cls-4,.cls-5{fill:none;}.cls-5{stroke:#fff;}</style></defs><title>meat</title><path class="cls-1" d="M269.61,80.45S178.08,267,223.93,380.88l-19.29,7.79s-45.77-50,13-239.52Z"/><path class="cls-2" d="M269.61,80.45s-38.72,78.89-54,170.75l-41.41-6.78s15.08-55.74-22.14-104.7C111.27,86,130.46,16.79,189.31,12.5S269.61,80.45,269.61,80.45Z"/><path class="cls-3" d="M215.78,185.8C226,127.57,250.4,80.45,250.4,80.45s-15.47-53.34-60.28-49.61c-43.16,3.58-57,45.25-31.52,89a495.87,495.87,0,0,1,33.06,68.82h.23c1.51,4.29,6.13,7.43,11.67,7.43S215.77,186.7,215.78,185.8Z"/><path class="cls-3" d="M209.69,214.46a9.87,9.87,0,0,0-19.52-2.88,9.4,9.4,0,0,0-.09,1.83l-.18,0-4.3,29.11,19.53,2.88,4.29-29.11-.18,0A9.88,9.88,0,0,0,209.69,214.46Z"/><path class="cls-4" d="M269.61,80.45s-38.72,78.89-54,170.75l-41.41-6.78s1.46-11.68,3-28.89c1.85-20.44-4.93-49.19-25.16-75.81C111.27,86,130.46,16.79,189.31,12.5S269.61,80.45,269.61,80.45Z"/><polyline class="cls-5" points="212.23 24.3 212.23 94.34 171.35 150.58"/><line class="cls-5" x1="220.55" y1="174.82" x2="212.23" y2="94.34"/></svg>