<svg id="everydayfood-icons" xmlns="http://www.w3.org/2000/svg" viewBox="0 0 400 400.99"><defs><style>.cls-1{fill:none;}.cls-1,.cls-2,.cls-3{stroke:#1d1e1c;stroke-width:4.5px;}.cls-1,.cls-2{stroke-linecap:round;stroke-linejoin:round;}.cls-2{fill:#fff;}.cls-3{fill:#e85e65;stroke-miterlimit:10;}</style></defs><title>milk</title><path class="cls-1" d="M248.39,163.43c-6.08-39.48-24-35.52-28-67.34H179.6c-4,31.82-21.9,27.86-28,67.34V190h96.78Z"/><path class="cls-2" d="M176.11,324.86h47.78a25.72,25.72,0,0,0,24.5-25.41V190H151.61V299.45C151.61,313.05,162.58,324.14,176.11,324.86Z"/><path class="cls-3" d="M228.57,86.57a10.71,10.71,0,0,0-10.95-10.44H182.38a10.71,10.71,0,0,0-10.95,10.44h0A10.7,10.7,0,0,0,182.38,97h35.24a10.7,10.7,0,0,0,10.95-10.43Z"/></svg>