<svg id="everydayfood-icons" xmlns="http://www.w3.org/2000/svg" viewBox="0 0 400 400.99"><defs><style>.cls-1{fill:#e4ce75;}.cls-1,.cls-2{stroke:#1d1d1b;stroke-miterlimit:10;stroke-width:4.5px;}.cls-2{fill:#9b9487;}</style></defs><title>mushroom</title><polygon class="cls-1" points="178.62 334.81 212 334.81 206.71 273.43 182.42 273.43 178.62 334.81"/><path class="cls-2" d="M195,252.13a41.09,41.09,0,0,1,41.09,41.09H153.88A41.1,41.1,0,0,1,195,252.13Z"/><polygon class="cls-1" points="176.12 235.69 207.71 246.46 222.5 186.64 199.51 178.81 176.12 235.69"/><path class="cls-2" d="M218.28,162.69a41.11,41.11,0,0,1,25.63,52.17l-77.79-26.53A41.12,41.12,0,0,1,218.28,162.69Z"/><polygon class="cls-1" points="200.17 151.93 231.73 141.09 206.8 84.76 183.82 92.65 200.17 151.93"/><path class="cls-2" d="M188.78,68.42A41.09,41.09,0,0,1,241,93.93l-77.73,26.7A41.1,41.1,0,0,1,188.78,68.42Z"/></svg>