<svg id="everydayfood-icons" xmlns="http://www.w3.org/2000/svg" viewBox="0 0 400 400.99"><defs><style>.cls-1{fill:#92be1f;stroke:#1d1d1b;stroke-linecap:round;stroke-linejoin:round;stroke-width:4.5px;}</style></defs><title>pea</title><path class="cls-1" d="M151.74,210.29c3.07,11.67-3.93,31.27,5.39,43.17,14.49,18.49,24.1,8.3,40,25.7,9.67,10.58,27.12,32.07,27.12,32.07s-4.87-27.26-6.55-41.47c-2.79-23.41,11.2-24,6.66-47.08-2.91-14.83-22.32-22.34-29.15-32.29"/><path class="cls-1" d="M151.89,210.61c-6.83-10-26.24-17.47-29.16-32.3-4.53-23,9.45-23.66,6.67-47.06-1.68-14.23-6.55-41.49-6.55-41.49s17.45,21.5,27.12,32.06c15.89,17.41,25.5,7.22,40,25.71,9.33,11.91,2.33,31.5,5.39,43.18"/><path class="cls-1" d="M184.34,175.67c-11.93,9.25-27.49,9.18-34.74-.18s-3.45-24.43,8.49-33.69,27.48-9.17,34.73.18S196.27,166.41,184.34,175.67Z"/><path class="cls-1" d="M199.33,245.23c-15.07-.92-26.7-11.26-26-23.06s13.54-20.64,28.61-19.71,26.71,11.25,26,23.06S214.41,246.16,199.33,245.23Z"/><path class="cls-1" d="M241,179.52c-12.78-8-18-22.67-11.74-32.68s21.77-11.63,34.55-3.6,18.05,22.69,11.75,32.7S253.76,187.57,241,179.52Z"/></svg>