<svg id="everydayfood-icons" xmlns="http://www.w3.org/2000/svg" viewBox="0 0 400 400.99"><defs><style>.cls-1{fill:#f2d299;stroke:#000;}.cls-1,.cls-2{stroke-linecap:round;}.cls-1,.cls-2,.cls-3{stroke-linejoin:round;stroke-width:4.5px;}.cls-2,.cls-3{fill:none;stroke:#80682e;}</style></defs><title>peanut</title><path class="cls-1" d="M166.13,201.56c-2.64,16.89-22.85,38.36-17.5,59.11C157,292.88,175.2,285.13,186,316.73a24.64,24.64,0,0,0,16,7.1c10.23.61,16-7.64,16-7.64,9.66-32,28.19-24.84,35.37-57.32,4.63-20.93-16.3-41.68-19.51-58.49"/><path class="cls-1" d="M166.15,202.05c-3.23-16.8-24.16-37.56-19.53-58.48,7.2-32.48,25.71-25.35,35.37-57.31,0,0,.82-9.33,14.56-9.13S214,85.7,214,85.7c10.76,31.61,29,23.84,37.33,56.07,5.34,20.76-14.86,42.22-17.5,59.13"/><path class="cls-2" d="M215.64,201c-3-15.73-22.61-35.16-18.28-54.73,3.31-14.92,9.16-20.91,15.34-26.68"/><path class="cls-2" d="M215.65,200.86c2.48,15.82,21.4,35.92,16.39,55.34-4.23,16.42-11.24,21.74-18.35,28"/><path class="cls-2" d="M215.64,201.32c3-15.72,22.61-35.17,18.29-54.74-3.31-14.92-9.15-20.91-15.33-26.67"/><line class="cls-3" x1="164.96" y1="150.95" x2="196.73" y2="150.95"/><line class="cls-3" x1="168.81" y1="171.67" x2="202.07" y2="171.67"/><line class="cls-3" x1="198.68" y1="141.18" x2="232.51" y2="141.18"/><line class="cls-3" x1="198.34" y1="162.13" x2="232.88" y2="162.13"/><line class="cls-3" x1="164.32" y1="242.5" x2="199.56" y2="242.5"/><line class="cls-3" x1="165.4" y1="263.45" x2="198.67" y2="263.45"/><line class="cls-3" x1="178.61" y1="192.39" x2="212.85" y2="192.39"/><line class="cls-3" x1="185.69" y1="213.1" x2="219.8" y2="213.1"/><line class="cls-3" x1="196.73" y1="233.82" x2="229.52" y2="233.82"/><line class="cls-3" x1="200.89" y1="254.54" x2="232.88" y2="254.54"/><path class="cls-2" d="M182,202.75c3,15.73,22.61,35.17,18.28,54.75-3.3,14.91-9.16,20.9-15.33,26.67"/><path class="cls-2" d="M182,202.88c-2.48-15.81-21.4-35.91-16.38-55.34,4.23-16.41,11.22-21.74,18.34-28"/><path class="cls-2" d="M182,202.42c-3,15.74-22.61,35.17-18.29,54.75,3.3,14.91,9.16,20.9,15.33,26.67"/></svg>