<svg id="everydayfood-icons" xmlns="http://www.w3.org/2000/svg" viewBox="0 0 400 400.99"><defs><style>.cls-1{fill:#70b52d;}.cls-1,.cls-2{stroke:#000;stroke-linejoin:round;stroke-width:4.5px;}.cls-2{fill:#d8d8bd;}</style></defs><title>pistachio</title><path class="cls-1" d="M236.21,224.21c0,25.88-16.21,46.88-36.22,46.88s-36.21-21-36.21-46.88c0-87.89,36.21-87.89,36.21-87.89S236.21,136.32,236.21,224.21Z"/><path class="cls-2" d="M169.48,126.42S126.12,138,144.53,233.89c5.44,28.24,29.25,45.95,53.2,39.55.3-.08.58-.21.89-.3l-28.21-146.9C169.82,126.33,169.48,126.42,169.48,126.42Z"/><path class="cls-2" d="M230.52,126.42S273.88,138,255.47,233.89c-5.44,28.24-29.25,45.95-53.2,39.55-.3-.08-.59-.21-.89-.3l28.22-146.9C230.18,126.33,230.52,126.42,230.52,126.42Z"/></svg>