<svg id="everydayfood-icons" xmlns="http://www.w3.org/2000/svg" viewBox="0 0 400 400.99"><defs><style>.cls-1{fill:#112b12;}</style></defs><title>seaweed</title><path class="cls-1" d="M160.48,354.62c-5.89-8.07-12.41-20.06-12.41-33.45a50.45,50.45,0,0,1,5.18-21.39,81.07,81.07,0,0,1,16.39-22.66c5.88-8.07,12.41-20.06,12.41-33.44,0-24.33-21.57-44.05-21.57-44.05-5.89-8.09-12.41-20.07-12.41-33.46a50.33,50.33,0,0,1,5.18-21.38c6.39-13.52,10.23-16,16.39-22.66s12.41-20.07,12.41-33.46c0-24.32-21.42-44.05-21.42-44.05s4.43,14.72,4.43,39.05c0,13.38-11.26,30.62-18.34,38.46s-10,9.14-16.39,22.66a50.33,50.33,0,0,0-5.19,21.38c0,13.39,6.53,25.37,12.41,33.46,0,0,21.58,19.72,21.58,44.05,0,13.38-6.53,25.37-12.41,33.44a81.07,81.07,0,0,0-16.39,22.66,50.45,50.45,0,0,0-5.19,21.39c0,13.39,6.53,25.38,12.41,33.45,0,0,.69.64,1.76,1.75h22.93C161.16,355.26,160.48,354.62,160.48,354.62Z"/><path class="cls-1" d="M188.85,354.62c-5.88-8.07-12.4-20.06-12.4-33.45a50.45,50.45,0,0,1,5.18-21.39A81.07,81.07,0,0,1,198,277.12c5.88-8.07,12.41-20.06,12.41-33.44,0-24.33-21.58-44.05-21.58-44.05-5.88-8.09-12.4-20.07-12.4-33.46a50.33,50.33,0,0,1,5.18-21.38c6.39-13.52,9.59-13,16.39-22.66,0,0,9.76-15.69,5.31-33.46-6.16-32.47-37-44.05-37-44.05s20,14.72,20,39.05c0,13.38-5,30.37-11.23,38.46s-10,9.14-16.39,22.66a50.33,50.33,0,0,0-5.18,21.38c0,13.39,6.53,25.37,12.39,33.46,0,0,21.59,19.72,21.59,44.05,0,13.38-6.53,25.37-12.41,33.44a81.07,81.07,0,0,0-16.39,22.66,50.45,50.45,0,0,0-5.18,21.39c0,13.39,6.53,25.38,12.39,33.45,0,0,.69.64,1.77,1.75h22.92C189.53,355.26,188.85,354.62,188.85,354.62Z"/><path class="cls-1" d="M218.44,329.27a50.4,50.4,0,0,1,5.18-21.38c6.39-13.52,10.23-16,16.39-22.66s12.41-20.06,12.41-33.44c0-24.33-21.42-44.06-21.42-44.06s4.43,14.72,4.43,39c0,13.39-11.27,30.63-18.34,38.46s-10,9.14-16.39,22.66a50.41,50.41,0,0,0-5.19,21.38c0,10.23,3.82,19.62,8.23,27.1h22.92C222.25,348.89,218.44,339.5,218.44,329.27Z"/><path class="cls-1" d="M246.82,329.27A50.4,50.4,0,0,1,252,307.89c6.39-13.52,9.58-13,16.39-22.66,0,0,9.76-15.68,5.3-33.44-6.16-32.48-36.95-44.06-36.95-44.06s20,14.72,20,39c0,13.39-5,30.37-11.23,38.46s-10,9.14-16.39,22.66a50.27,50.27,0,0,0-5.2,21.38c0,10.23,3.83,19.62,8.25,27.1h22.92C250.62,348.89,246.82,339.5,246.82,329.27Z"/></svg>