<svg xmlns="http://www.w3.org/2000/svg" viewBox="0 0 149.72 311.74"><defs><style>.cls-1{fill:#fff;stroke:#000;stroke-miterlimit:10;}.cls-2{fill:#112b12;}</style></defs><title>seeweed</title><g id="Layer_3" data-name="Layer 3"><rect class="cls-1" x="-245.82" y="-1358.5" width="2709.29" height="1856.95" rx="94.59" ry="94.59"/><path class="cls-2" d="M35.34,310c-5.89-8.07-12.41-20.06-12.41-33.45a50.41,50.41,0,0,1,5.18-21.39A81.07,81.07,0,0,1,44.5,232.5c5.88-8.07,12.41-20.06,12.41-33.44,0-24.34-21.57-44.05-21.57-44.05-5.89-8.09-12.41-20.07-12.41-33.46a50.33,50.33,0,0,1,5.18-21.38c6.39-13.52,10.23-16,16.39-22.66S56.91,57.44,56.91,44.05c0-24.32-21.43-44-21.43-44s4.44,14.72,4.44,39.05c0,13.38-11.26,30.62-18.34,38.46s-10,9.14-16.39,22.66A50.33,50.33,0,0,0,0,121.55C0,134.94,6.53,146.92,12.4,155c0,0,21.59,19.71,21.59,44.05,0,13.38-6.54,25.37-12.41,33.44A81.07,81.07,0,0,0,5.19,255.16,50.42,50.42,0,0,0,0,276.55C0,289.94,6.53,301.93,12.4,310c0,0,.69.63,1.77,1.74H37.09C36,310.63,35.34,310,35.34,310Z"/><path class="cls-2" d="M63.71,310c-5.88-8.07-12.41-20.06-12.41-33.45a50.27,50.27,0,0,1,5.19-21.39A80.85,80.85,0,0,1,72.88,232.5c5.88-8.07,12.4-20.06,12.4-33.44,0-24.34-21.57-44.05-21.57-44.05-5.88-8.09-12.41-20.07-12.41-33.46a50.19,50.19,0,0,1,5.19-21.38c6.38-13.52,9.59-13,16.39-22.66,0,0,9.76-15.69,5.31-33.46-6.16-32.47-37-44-37-44s20,14.72,20,39.05c0,13.38-5,30.37-11.23,38.46s-10,9.14-16.39,22.66a50.33,50.33,0,0,0-5.19,21.38c0,13.39,6.54,25.37,12.4,33.46,0,0,21.58,19.71,21.58,44.05,0,13.38-6.52,25.37-12.4,33.44a80.85,80.85,0,0,0-16.39,22.66,50.42,50.42,0,0,0-5.19,21.39c0,13.39,6.54,25.38,12.4,33.45,0,0,.69.63,1.77,1.74H65.47C64.39,310.63,63.71,310,63.71,310Z"/><path class="cls-2" d="M93.29,284.65a50.26,50.26,0,0,1,5.19-21.38c6.39-13.52,10.23-16,16.38-22.66s12.41-20.07,12.41-33.45c0-24.32-21.41-44-21.41-44s4.42,14.72,4.42,39c0,13.39-11.26,30.63-18.34,38.46s-10,9.14-16.38,22.66a50.26,50.26,0,0,0-5.19,21.38c0,10.23,3.82,19.62,8.23,27.09h22.92C97.11,304.27,93.29,294.88,93.29,284.65Z"/><path class="cls-2" d="M121.67,284.65a50.41,50.41,0,0,1,5.19-21.38c6.38-13.52,9.58-13,16.39-22.66,0,0,9.76-15.69,5.3-33.45-6.16-32.48-37-44-37-44s20,14.72,20,39c0,13.39-5,30.37-11.23,38.46s-10,9.14-16.4,22.66a50.41,50.41,0,0,0-5.19,21.38c0,10.23,3.82,19.62,8.24,27.09h22.93C125.48,304.27,121.67,294.88,121.67,284.65Z"/></g></svg>