<svg id="everydayfood-icons" xmlns="http://www.w3.org/2000/svg" viewBox="0 0 400 400.99"><defs><style>.cls-1{fill:#f8dfec;}.cls-1,.cls-2,.cls-3{stroke:#1d1e1c;stroke-miterlimit:10;stroke-width:4.5px;}.cls-2{fill:#e85e65;}.cls-3{fill:none;}</style></defs><title>shrimp</title><path class="cls-1" d="M252.62,200.3a76.39,76.39,0,0,0-100.68-81l3.58,40.22q1.3.1,2.61.24a53.29,53.29,0,0,1,46.85,59c-1.3,11.34-6.08,21.42-15.75,30.85l9.25,15.79C228.25,254.81,249.14,230.67,252.62,200.3Z"/><path class="cls-2" d="M193,257.45l-1.62-8.75c-13.39,7.22-44.47,6-44.47,6l5.5,32.38s9.14-1.11,13.72-2.14c15.89-3.56,30.64-14.7,42.71-24.06Z"/><path class="cls-3" d="M176.24,113.92a26.48,26.48,0,0,1,2.81,37.33"/><path class="cls-3" d="M212.9,125.48A26.46,26.46,0,0,1,211,162.87"/><path class="cls-3" d="M242,152.8a26.45,26.45,0,0,1-11.51,35.62"/></svg>