<svg id="everydayfood-icons" xmlns="http://www.w3.org/2000/svg" viewBox="0 0 400 400.99"><defs><style>.cls-1{fill:#4b9442;}.cls-1,.cls-2{stroke:#1d1d1b;stroke-linecap:round;stroke-linejoin:round;stroke-width:4.5px;}.cls-2{fill:none;}</style></defs><title>spinach</title><path class="cls-1" d="M222.92,2.37c-13.63-1.54-18.58,11.9-19.54,15.57-3,11.53-25.31,18.48-27.17,39.67s10.2,39.67,6.93,50.85-18.79,23.87-17,38.33c2.78,22.46,20.84,14.8,25.32,37.07,2.72,13.53,6.45,40,6.45,40"/><path class="cls-1" d="M222.92,2.37c13.63,1.54,15.47,15.75,15.58,19.54.33,11.9,20.55,23.66,17.64,44.73s-18.8,36.39-18.1,48,13,27.47,8,41.18c-7.71,21.28-23.62,9.77-32.95,30.48-5.67,12.58-15.2,37.51-15.2,37.51"/><path class="cls-2" d="M193.73,378.75S188.41,208.63,225.48,8.13"/><path class="cls-1" d="M184.32,21.46c-13.72,0-17.13,13.92-17.67,17.67C165,50.91,143.57,60.33,144.1,81.6s14.59,38.27,12.6,49.74-16,25.83-12.6,40c5.28,22,22.37,12.36,29.32,34,4.23,13.14,10.9,39,10.9,39"/><path class="cls-1" d="M184.32,21.46c13.72,0,17.14,13.92,17.67,17.67,1.67,11.78,23.08,21.2,22.55,42.47S210,119.87,212,131.34s16,25.83,12.59,40c-5.28,22-22.37,12.36-29.32,34-4.22,13.14-10.89,39-10.89,39"/><path class="cls-2" d="M197.57,398.74S173.18,230.29,187.51,26.9"/></svg>