<svg id="everydayfood-icons" xmlns="http://www.w3.org/2000/svg" viewBox="0 0 400 400.99"><defs><style>.cls-1{fill:#1d1d1b;}.cls-2{fill:#e85e65;stroke:#1d1d1b;stroke-miterlimit:10;stroke-width:4.5px;}</style></defs><title>tomato</title><polygon class="cls-1" points="200 153.15 213.36 126.83 212.97 156.35 237.04 139.25 222.99 165.21 252.24 161.26 227.72 177.72 255.46 187.81 226.12 190.99 245.98 212.82 218.52 201.99 225.97 230.55 206.68 208.21 200 236.95 193.3 208.21 174.03 230.55 181.48 201.99 154.01 212.82 173.89 190.99 144.53 187.81 172.26 177.72 147.75 161.26 177.01 165.21 162.95 139.25 187.01 156.35 186.63 126.83 200 153.15"/><path class="cls-2" d="M221.65,178.38A47.7,47.7,0,0,0,200,183.59a47.9,47.9,0,1,0,0,85.35,47.87,47.87,0,1,0,21.65-90.56Z"/></svg>