<svg id="everydayfood-icons" xmlns="http://www.w3.org/2000/svg" viewBox="0 0 400 400.99"><defs><style>.cls-1{fill:#9a7091;}.cls-1,.cls-2{stroke:#1d1d1b;stroke-linecap:round;stroke-linejoin:round;stroke-width:4.5px;}.cls-2{fill:none;}</style></defs><title>yam</title><path class="cls-1" d="M240.09,197.48c-2.57-11.7,5.69-41.13,5.94-49.65,1.07-36.46-46-53.61-46-53.61s-47.1,17.15-46,53.61c.05,2,7.9,40.73,5.94,49.65-2.58,11.7-10.32,27.45-5.94,41.9,6.8,22.46,22.94,17.29,31.9,39.35a250.29,250.29,0,0,0,14.13,28,249.49,249.49,0,0,0,14.14-28c9-22.06,25.09-16.89,31.89-39.35C250.41,224.93,242.67,209.18,240.09,197.48Z"/><path class="cls-2" d="M198.23,173.62s-25.15-.2-42.72-16.67"/><path class="cls-2" d="M197.06,196.24s25.15-.2,42.72-16.66"/><path class="cls-2" d="M207.8,215.43s14.41,3.65,32-12.82"/></svg>