<svg id="icons-outline" xmlns="http://www.w3.org/2000/svg" viewBox="0 0 400 400.99">
  <title>almond</title>
  <g>
    <g>
      <g>
        <path d="M221.58,208.63c0,38.26-28.37,56.45-63.35,56.45s-63.38-18.19-63.38-56.45S158.23,95.69,158.23,95.69,221.58,170.38,221.58,208.63Z" fill="#bd9a67"/>
        <path d="M158.23,267.33c-18.68,0-34.67-5-46.23-14.38-12.69-10.32-19.4-25.65-19.4-44.32,0-38.64,61.3-111.32,63.91-114.4l1.72-2,1.71,2c2.61,3.08,63.89,75.76,63.89,114.4,0,18.67-6.7,34-19.39,44.32C192.88,262.35,176.9,267.33,158.23,267.33Zm0-168.12C148.14,111.46,97.1,175.12,97.1,208.63c0,40,31.58,54.2,61.13,54.2s61.1-14.24,61.1-54.2c0-15.19-10.81-39.23-31.27-69.52C175.47,120.46,162.74,104.69,158.23,99.21Z"/>
      </g>
      <g>
        <path d="M158.94,265.08c-21.54,0-39-18.19-39-56.45s39-112.94,39-112.94" fill="#bd9a67"/>
        <path d="M158.94,267.33c-19.94,0-41.24-15.42-41.24-58.7,0-38.37,37.64-110.91,39.24-114l4,2.08c-.39.74-38.73,74.64-38.73,111.9,0,33.43,14.07,54.2,36.74,54.2Z"/>
      </g>
      <g>
        <path d="M158.94,265.08c21.52,0,39-18.19,39-56.45s-39-112.94-39-112.94" fill="#bd9a67"/>
        <path d="M158.94,267.33v-4.5c22.64,0,36.71-20.77,36.71-54.2,0-37.27-38.32-111.16-38.71-111.9l4-2.08c1.6,3.07,39.22,75.62,39.22,114C200.15,251.91,178.86,267.33,158.94,267.33Z"/>
      </g>
      <rect x="156.69" y="95.69" width="4.5" height="169.39"/>
    </g>
    <g>
      <path d="M203.5,248.85c0-10.13,2.76-22.82,6.78-36-8.6-.89-15.27-2.13-19-3.57-7.52,14.44-12.81,28.53-12.81,39.57,0,38.26,28.36,56.45,63.36,56.45h.44C220.82,305.14,203.5,287,203.5,248.85Z" fill="#bd9a67"/>
      <path d="M241.79,307.55c-18.68,0-34.67-5-46.23-14.38-12.68-10.32-19.38-25.64-19.38-44.32,0-10.3,4.39-24,13.07-40.61l.93-1.79,1.87.73c3.51,1.34,10.07,2.57,18.46,3.44l2.72.28-.8,2.61c-4.43,14.51-6.68,26.4-6.68,35.34,0,33.27,14,54,36.49,54.19v4.5h-.44ZM192.36,212c-7.75,15.21-11.68,27.6-11.68,36.82,0,30.48,18.36,46,40.18,51.64-11.19-8.29-19.61-24.48-19.61-51.64,0-8.83,2.05-20.28,6.1-34.06A94,94,0,0,1,192.36,212Z"/>
    </g>
    <g>
      <path d="M305.15,248.85c0-11-5.3-25.13-12.81-39.57-3.57,1.36-9.75,2.55-17.67,3.42,4,13.24,6.81,26,6.81,36.15,0,37.59-16.86,55.76-37.85,56.39C277.76,304.61,305.15,286.44,305.15,248.85Z" fill="#bd9a67"/>
      <path d="M243.67,307.49l-.11-4.5c22-.66,35.67-21.41,35.67-54.14,0-9-2.26-20.92-6.71-35.49l-.8-2.59,2.7-.3c7.71-.85,13.79-2,17.12-3.3l1.87-.71.93,1.78c8.66,16.67,13.06,30.34,13.06,40.61C307.4,284.29,283,306.76,243.67,307.49Zm33.92-92.86c4.07,13.84,6.14,25.34,6.14,34.22,0,23.72-6.88,41.62-18.83,51.1a56.7,56.7,0,0,0,20.84-10.77c11.38-9.55,17.16-23.12,17.16-40.33,0-9.2-3.93-21.58-11.67-36.82A87.72,87.72,0,0,1,277.59,214.63Z"/>
    </g>
    <g>
      <path d="M242.5,214.31h-.71a313.39,313.39,0,0,1-31.51-1.47c-4,13.18-6.78,25.87-6.78,36,0,38.1,17.32,56.29,38.73,56.44h.27Z" fill="#bd9a67"/>
      <path d="M242.3,307.54c-19.89-.14-41.05-15.63-41.05-58.69,0-9.38,2.32-21.72,6.88-36.65l.54-1.78,1.84.19a309,309,0,0,0,31.28,1.46h3v95.36Zm-30.4-92.26c-4.08,13.71-6.15,25-6.15,33.57,0,32.27,13.16,52.78,34.5,54.12v-86.4C230.12,216.53,220.4,216.08,211.9,215.28Z"/>
    </g>
    <g>
      <path d="M281.48,248.85c0-10.17-2.77-22.91-6.81-36.15a305.54,305.54,0,0,1-32.17,1.61v91l1.13,0C264.62,304.61,281.48,286.44,281.48,248.85Z" fill="#bd9a67"/>
      <path d="M240.25,307.55V212.07h2.24a302.7,302.7,0,0,0,31.93-1.59l1.85-.21.55,1.79c4.58,15,6.91,27.38,6.91,36.8,0,35.43-15.34,57.89-40,58.64l-.49,0-.69,0Zm4.5-91v86.39c21.29-1.36,34.48-21.94,34.48-54.09,0-8.61-2.08-19.95-6.18-33.71C264.69,216,255,216.47,244.75,216.55Z"/>
    </g>
    <g>
      <path d="M292.79,208.6c0,3.94-22.79,7.13-50.91,7.13S191,212.54,191,208.6s22.78-7.13,50.92-7.13S292.79,204.67,292.79,208.6Z" fill="#fff7eb"/>
      <path d="M241.88,218a276,276,0,0,1-36.32-2.11c-14.81-2.07-16.85-4.72-16.85-7.27s2-5.19,16.85-7.27a276,276,0,0,1,36.32-2.11,276.09,276.09,0,0,1,36.31,2.11C293,203.41,295,206.05,295,208.6s-2,5.2-16.85,7.27A276.09,276.09,0,0,1,241.88,218Zm-48-9.38c4.36,2.18,22,4.88,48,4.88s43.6-2.7,48-4.88c-4.35-2.18-22-4.88-48-4.88S198.27,206.42,193.91,208.6Z"/>
    </g>
  </g>
</svg>
