<svg id="icons-outline" xmlns="http://www.w3.org/2000/svg" viewBox="0 0 400 400.99">
  <title>asparagus</title>
  <g>
    <g>
      <path d="M251.36,207.43c5.93-19.32-8.88-41-8.88-41s-24.44,9.65-30.37,29l-31.58,101,40.27,12.36Z" fill="#a6c74e"/>
      <path d="M222.3,311.6l-44.59-13.68L210,194.71c6.17-20.12,30.65-30,31.69-30.39l1.67-.66,1,1.48c.63.93,15.35,22.82,9.19,43Zm-38.94-16.66,35.94,11,29.91-99.21c4.66-15.19-4.49-32.32-7.61-37.52-5.49,2.56-22.69,11.62-27.34,26.8Z" fill="#1d1e1c"/>
    </g>
    <g>
      <line x1="218.13" y1="249.86" x2="230.98" y2="273.85" fill="#ede44a"/>
      <rect x="222.31" y="248.24" width="4.5" height="27.22" transform="translate(-97 136.97) rotate(-28.16)" fill="#1d1e1c"/>
    </g>
    <g>
      <line x1="220.79" y1="236.86" x2="196.7" y2="249.53" fill="#ede44a"/>
      <rect x="195.14" y="240.95" width="27.21" height="4.5" transform="translate(-89.18 125.05) rotate(-27.73)" fill="#1d1e1c"/>
    </g>
    <g>
      <line x1="228.7" y1="171.85" x2="241.55" y2="195.84" fill="#ede44a"/>
      <rect x="232.87" y="170.24" width="4.5" height="27.21" transform="translate(-58.93 132.72) rotate(-28.16)" fill="#1d1e1c"/>
    </g>
    <g>
      <line x1="251.18" y1="188.78" x2="227.08" y2="201.44" fill="#ede44a"/>
      <rect x="225.52" y="192.86" width="27.22" height="4.5" transform="translate(-63.31 133.6) rotate(-27.72)" fill="#1d1e1c"/>
    </g>
    <g>
      <line x1="218.02" y1="181.1" x2="244.55" y2="228.62" fill="#ede44a"/>
      <rect x="229.03" y="177.65" width="4.5" height="54.43" transform="translate(-70.53 138.75) rotate(-29.18)" fill="#1d1e1c"/>
    </g>
    <g>
      <path d="M188.74,129.84C188.07,108.7,167,92.2,167,92.2S147,110,147.7,131.13l4.92,174.11,42.11-1.31Z" fill="#a6c74e"/>
      <path d="M150.43,307.56l-5-176.37c-.29-9.12,3.1-19.06,9.81-28.74a72.85,72.85,0,0,1,10.26-11.93l1.4-1.25,1.48,1.16c.89.7,21.9,17.4,22.59,39.33l6.07,176.34ZM167.11,95.23c-4.41,4.44-17.69,19.21-17.17,35.83l4.86,171.86,37.61-1.17-5.92-171.84C186,113.29,171.79,99.38,167.11,95.23Z" fill="#1d1e1c"/>
    </g>
    <g>
      <line x1="170.59" y1="206.15" x2="190.51" y2="224.7" fill="#ede44a"/>
      <rect x="178.3" y="201.81" width="4.5" height="27.22" transform="translate(-100.14 200.69) rotate(-47.03)" fill="#1d1e1c"/>
    </g>
    <g>
      <line x1="169.19" y1="161.92" x2="189.11" y2="180.48" fill="#ede44a"/>
      <rect x="176.9" y="157.59" width="4.5" height="27.22" transform="translate(-68.23 185.61) rotate(-47.03)" fill="#1d1e1c"/>
    </g>
    <g>
      <line x1="168.9" y1="192.99" x2="150.19" y2="212.75" fill="#ede44a"/>
      <rect x="145.93" y="200.62" width="27.21" height="4.5" transform="translate(-97.46 179.24) rotate(-46.57)" fill="#1d1e1c"/>
    </g>
    <g>
      <line x1="177.47" y1="102.59" x2="158.76" y2="122.36" fill="#ede44a"/>
      <rect x="154.51" y="110.22" width="27.22" height="4.5" transform="translate(-29.14 157.22) rotate(-46.57)" fill="#1d1e1c"/>
    </g>
    <g>
      <line x1="173.77" y1="252.05" x2="193.69" y2="270.61" fill="#ede44a"/>
      <rect x="181.48" y="247.72" width="4.5" height="27.22" transform="translate(-132.72 217.64) rotate(-47.03)" fill="#1d1e1c"/>
    </g>
    <g>
      <line x1="172.09" y1="238.89" x2="153.37" y2="258.65" fill="#ede44a"/>
      <rect x="149.12" y="246.52" width="27.22" height="4.5" transform="translate(-129.8 195.9) rotate(-46.57)" fill="#1d1e1c"/>
    </g>
    <g>
      <line x1="151.33" y1="113" x2="171.25" y2="131.56" fill="#ede44a"/>
      <rect x="159.04" y="108.67" width="4.5" height="27.22" transform="translate(-38.13 156.91) rotate(-47.02)" fill="#1d1e1c"/>
    </g>
    <g>
      <line x1="185.35" y1="114.34" x2="147.24" y2="153.18" fill="#ede44a"/>
      <rect x="139.09" y="131.51" width="54.42" height="4.5" transform="translate(-45.65 158.75) rotate(-45.54)" fill="#1d1e1c"/>
    </g>
  </g>
</svg>
