<svg id="icons-outline" xmlns="http://www.w3.org/2000/svg" viewBox="0 0 400 400.99">
  <title>avocado</title>
  <g>
    <path d="M263.39,228.3c.43-28.16-21.7-42.59-21.91-57.35-.64-41.6-16.33-61.56-40.3-62.77v-.06c-.4,0-.79,0-1.18,0s-.78,0-1.18,0v.06c-24,1.21-39.66,21.17-40.29,62.77-.22,14.76-22.36,29.19-21.92,57.35a64.57,64.57,0,0,0,62.21,64.51v.06c.4,0,.78,0,1.18,0s.78,0,1.18,0v-.06A64.57,64.57,0,0,0,263.39,228.3Z" fill="#c5d123"/>
    <path d="M201.18,295.12l-.67,0q-.51,0-1,0l-.67,0h-2.25V295a66.56,66.56,0,0,1-62.21-66.65c-.27-17.14,7.58-29.48,13.88-39.39,4.27-6.72,8-12.52,8-18,.6-39.46,14.88-62.38,40.29-64.84v-.15l2.25-.06.76,0h.84l.76,0h2.25v.21c25.41,2.46,39.7,25.38,40.3,64.84.08,5.47,3.76,11.27,8,18,6.3,9.91,14.14,22.25,13.88,39.41A66.56,66.56,0,0,1,203.43,295v.11ZM200,290.59h.5l.6,0a62.07,62.07,0,0,0,60-62.26v0c.24-15.82-6.89-27-13.18-36.93-4.63-7.3-8.63-13.6-8.73-20.35-.58-37.83-14.13-59.34-38.17-60.56l-.63,0h-1l-.48,0c-24,1.22-37.59,22.73-38.16,60.56-.1,6.75-4.11,13.05-8.74,20.34-6.29,9.9-13.43,21.12-13.18,36.94a62.08,62.08,0,0,0,60,62.3l.85,0Z" fill="#1d1d1b"/>
  </g>
  <g>
    <path d="M230.19,230.5A30.19,30.19,0,1,1,200,200.3,30.19,30.19,0,0,1,230.19,230.5Z" fill="#7e4e24"/>
    <path d="M200,262.94a32.45,32.45,0,1,1,32.44-32.44A32.47,32.47,0,0,1,200,262.94Zm0-60.39a27.95,27.95,0,1,0,27.94,27.95A28,28,0,0,0,200,202.55Z" fill="#1d1d1b"/>
  </g>
</svg>
