<svg id="icons-outline" xmlns="http://www.w3.org/2000/svg" viewBox="0 0 400 400.99">
  <title>banana</title>
  <g>
    <g>
      <path d="M298.48,174.08c-11.05-6.67-15.05,2.4-33.22,11.38-47.58,23.52-109.21,9.45-130.45-39.19-2.06-4.71-1,2.87-2.74.28l-.91-12-16.44,3.16-1.3,8.7.71-.13c-3.45,12.59,1.12,33.08,10.79,52.61,23.53,47.59,80.47,65.62,128.74,43.56C307.87,217.72,310.07,181.05,298.48,174.08Z" fill="#f8c933"/>
      <path d="M211.14,254.09c-36.69,0-71.24-19.8-88.24-54.17-9.74-19.69-14-39.45-11.39-52.29a2.25,2.25,0,0,1-.32-1.52l1.31-8.71a2.24,2.24,0,0,1,1.8-1.87l16.43-3.16a2.25,2.25,0,0,1,2.67,2l.61,8c1.65.15,2.42,1.93,2.86,2.92,8.72,20,25.35,35.29,46.83,43.13,25.34,9.24,55.46,7.36,80.56-5.06a121.12,121.12,0,0,0,13.41-7.9c7.95-5.23,13.2-8.69,22-3.39h0c4.64,2.79,7.15,9,6.72,16.62-.5,8.8-4.86,18.56-12.27,27.47-9.11,11-22.4,20.48-39.49,28.29A104.48,104.48,0,0,1,211.14,254.09ZM115.92,144.94a2.25,2.25,0,0,1,.38,2c-3.21,11.73.86,31.28,10.64,51,16.2,32.79,49.18,51.66,84.21,51.67a100,100,0,0,0,41.58-9.15c35-16,48.31-37.3,49.14-51.93.33-5.83-1.41-10.62-4.55-12.5h0c-6.35-3.83-9.52-1.74-17.17,3.3a125.55,125.55,0,0,1-13.89,8.18c-26.19,12.94-57.63,14.91-84.1,5.25-21.93-8-39.07-23.43-48.51-43.56a2,2,0,0,1-.44.13,2.82,2.82,0,0,1-3-1.48,2.15,2.15,0,0,1-.39-1.1l-.73-9.46-12.39,2.39Zm16.39,1.37Z" fill="#1d1d1b"/>
    </g>
    <g>
      <path d="M294.51,206.74c-10.06-8.09-15.24.35-34.46,6.82-50.29,16.94-102.88,1.31-117.42-49.73a64.56,64.56,0,0,0-4.27-11.46l-5.62-9.63-13.27-8.16-4.65,20,.72,0c-5.11,12-3.32,32.93,3.64,53.59,16.94,50.3,71,75.8,121.75,60.41C298,251.24,305.05,215.2,294.51,206.74Z" fill="#f8c933"/>
      <path d="M211,275.26c-41.94,0-80.16-25.57-93.91-66.43-7-20.82-8.6-41-4.29-53.35a2.19,2.19,0,0,1-.13-1.43l4.65-20a2.25,2.25,0,0,1,3.37-1.41l13.27,8.16a2.21,2.21,0,0,1,.77.78l5.61,9.64.07.11a66.42,66.42,0,0,1,4.42,11.86c5.78,20.29,18.15,35.91,35.78,45.18,21.78,11.45,50.49,12.56,78.77,3a118.64,118.64,0,0,0,14.34-6c8.58-4.11,14.25-6.83,22.24-.41h0c4.22,3.39,5.87,9.88,4.43,17.36-1.68,8.66-7.3,17.75-15.84,25.59-10.5,9.64-24.95,17.3-42.93,22.75A105.48,105.48,0,0,1,211,275.26Zm-93.54-122a2.28,2.28,0,0,1,.19,2.12c-4.76,11.18-3.34,31.1,3.71,52,13.12,39,49.6,63.35,89.66,63.35a100.49,100.49,0,0,0,29.3-4.38c36.78-11.15,52.86-30.49,55.65-44.88,1.11-5.73,0-10.71-2.83-13h0c-5.78-4.65-9.2-3-17.47,1a125.2,125.2,0,0,1-14.86,6.24c-29.44,9.92-59.43,8.71-82.3-3.32-18.74-9.86-31.88-26.43-38-47.93a62.66,62.66,0,0,0-4.08-11l-5.3-9.09L121,138.13Z" fill="#1d1d1b"/>
    </g>
    <g>
      <path d="M253.11,261.31c-5.19-11.83-13.68-6.73-33.71-9.88C167,243.18,127.57,205,138.3,153a64.46,64.46,0,0,0,1.5-12.12L150.65,117l-21.53-9.76-11.2,24.75.66.3c-10.1,8.29-18.18,27.66-21.56,49.19-8.25,52.44,27.85,100,80,109.88C235.57,302.37,258.53,273.7,253.11,261.31Z" fill="#f8c933"/>
      <path d="M201.94,296.06a137.31,137.31,0,0,1-25.34-2.54c-54.18-10.23-90.11-59.62-81.81-112.43,3.42-21.72,11.34-40.32,20.89-49.3a2.18,2.18,0,0,1,.19-.78l11.2-24.75a2.27,2.27,0,0,1,3-1.12l21.53,9.76a2.23,2.23,0,0,1,1.18,1.25,2.26,2.26,0,0,1-.06,1.73L142,141.4a68.16,68.16,0,0,1-1.54,12.06c-4.26,20.67-.52,40.24,10.82,56.62,14,20.23,39,34.49,68.43,39.13a119.5,119.5,0,0,0,15.51,1.28c9.51.32,15.79.53,19.91,9.92h0c2.17,5,.63,11.48-4.12,17.45-5.49,6.9-14.68,12.35-25.88,15.35A89.6,89.6,0,0,1,201.94,296.06ZM120.65,131.37a2.16,2.16,0,0,1,.16.58,2.25,2.25,0,0,1-.81,2c-9.38,7.72-17.34,26-20.76,47.81-7.92,50.4,26.42,97.54,78.2,107.32,37.76,7.13,61-2.58,70.09-14,3.64-4.57,5-9.5,3.51-12.85-3-6.79-6.77-6.91-15.93-7.22a123.35,123.35,0,0,1-16.06-1.34c-30.69-4.82-56.72-19.77-71.43-41-12.06-17.41-16-38.19-11.53-60.08a63.8,63.8,0,0,0,1.46-11.7,2.36,2.36,0,0,1,.2-.9l9.93-21.89-17.43-7.9Z" fill="#1d1d1b"/>
    </g>
  </g>
</svg>
