<svg id="icons-outline" xmlns="http://www.w3.org/2000/svg" viewBox="0 0 400 400.99">
  <title>bean</title>
  <g>
    <g>
      <g>
        <path d="M207.06,88.58s19.39,14,2.1,31.33-21.82-2.49-38.64,14.35,2.18,22.11-15,39.24-31.28-2.16-31.28-2.16-25.07-31.77,13.4-69.91S207.06,88.58,207.06,88.58Z" fill="#c47d7d"/>
        <path d="M141,182.84c-.47,0-.93,0-1.4-.06-10.12-.77-16.8-9.72-17.08-10.11A46,46,0,0,1,114.33,151c-1.39-12.09,1.27-30.78,21.78-51.11,11.32-11.23,29.36-24,51-21.37a44.94,44.94,0,0,1,21.35,8.32c.84.62,9.32,7.13,10.1,16.93.49,6.15-2.13,12.13-7.78,17.78-9.49,9.49-15.86,8.68-21.48,8-5.14-.64-9.59-1.2-17.16,6.38s-7.21,12.27-6.72,17.64c.52,5.74,1.12,12.25-8.23,21.6C152,180.24,146.57,182.84,141,182.84ZM181.35,82.52c-11.37,0-26,4.54-42.07,20.51-36.51,36.2-14.18,65.69-13.22,66.92.1.14,5.83,7.75,13.87,8.35,4.73.36,9.45-1.8,14-6.39,7.85-7.86,7.42-12.56,6.93-18-.52-5.68-1.11-12.11,8-21.23s15.39-8.35,20.91-7.66c5.26.66,9.81,1.23,17.74-6.69,4.67-4.67,6.84-9.45,6.47-14.21-.62-8-8.23-13.66-8.3-13.71l-.1-.08A40.65,40.65,0,0,0,181.35,82.52Z"/>
      </g>
      <g>
        <path d="M160.84,125.11c-9.4,9.4-6.6,17.31,0,23.91a16.12,16.12,0,0,0,2.1,1.72c-.18-4.62.68-9.58,7.58-16.48,6.63-6.64,11.35-7.58,15.69-7.35a17.68,17.68,0,0,0-1.46-1.8C178.14,118.51,170.23,115.72,160.84,125.11Z" fill="#fff"/>
        <path d="M165.38,155.24l-3.74-2.67a18.15,18.15,0,0,1-2.4-2c-4.1-4.1-6.28-8.12-6.64-12.29-.44-5,1.8-9.94,6.65-14.79h0c9-9,18.09-9,27.09,0a17.32,17.32,0,0,1,1.45,1.74l3.17,4.15-4.86-.26c-3.35-.17-7.48.19-14,6.7-6.67,6.66-7.07,11.13-6.92,14.79Zm7.41-33.91c-3.39,0-6.78,1.79-10.36,5.37h0c-3.92,3.92-5.67,7.59-5.35,11.22.23,2.6,1.51,5.22,3.92,8,.7-3.77,2.74-8.05,7.92-13.23,4.89-4.89,9-6.91,12.41-7.66C178.41,122.56,175.6,121.33,172.79,121.33Z"/>
      </g>
    </g>
    <g>
      <g>
        <path d="M191.72,156.94s14-19.4,31.33-2.11-2.48,21.82,14.35,38.65,22.11-2.19,39.24,14.94-2.15,31.28-2.15,31.28-31.78,25.07-69.91-13.4S191.72,156.94,191.72,156.94Z" fill="#c47d7d"/>
        <path d="M248.69,250c-11.91,0-28.19-4.42-45.71-22.09-11.22-11.32-24-29.35-21.36-51a44.81,44.81,0,0,1,8.31-21.35c.62-.84,7.13-9.33,16.93-10.11,6.16-.49,12.13,2.13,17.78,7.78,9.48,9.49,8.68,15.86,8,21.48-.65,5.15-1.21,9.59,6.37,17.17s12.27,7.21,17.64,6.72c5.75-.53,12.26-1.13,21.6,8.22,5.58,5.58,8.17,11.5,7.7,17.61-.77,10.12-9.73,16.8-10.11,17.08a46,46,0,0,1-21.73,8.14A47.93,47.93,0,0,1,248.69,250Zm-55.23-91.61c-1,1.2-23.46,29.86,12.72,66.35s65.68,14.19,66.92,13.22c.13-.1,7.75-5.82,8.35-13.86.35-4.73-1.8-9.46-6.4-14.06-7.86-7.85-12.56-7.42-18-6.92-5.67.52-12.11,1.11-21.23-8s-8.35-15.39-7.66-20.91c.66-5.26,1.23-9.81-6.69-17.74-4.68-4.67-9.49-6.85-14.24-6.47-8.05.64-13.63,8.23-13.68,8.31Z"/>
      </g>
      <g>
        <path d="M228.25,203.15c9.4,9.4,17.31,6.6,23.91,0a16.12,16.12,0,0,0,1.72-2.1c-4.62.18-9.58-.67-16.48-7.57-6.64-6.63-7.58-11.35-7.35-15.7a17.54,17.54,0,0,0-1.8,1.47C221.66,185.85,218.86,193.76,228.25,203.15Z" fill="#fff"/>
        <path d="M240.24,211.45c-4.56,0-9.12-2.25-13.58-6.71h0c-9-9-9-18.1,0-27.08a17.17,17.17,0,0,1,1.87-1.55l4-3-.25,4.79c-.18,3.36.18,7.49,6.69,14,6.66,6.66,11.13,7.06,14.8,6.91l4.6-.19-2.68,3.75a19.1,19.1,0,0,1-2,2.38c-4.12,4.11-8.14,6.29-12.31,6.65C241.05,211.43,240.64,211.45,240.24,211.45Zm-12.08-28.78c-5.43,6.44-4.86,12.34,1.69,18.89h0c3.91,3.92,7.57,5.67,11.21,5.35,2.6-.23,5.22-1.51,8-3.92-3.77-.7-8-2.73-13.23-7.92C230.92,190.19,228.9,186.13,228.16,182.67Z"/>
      </g>
    </g>
    <g>
      <g>
        <path d="M146.67,313.2s-19.82-13.41-3.09-31.24,21.88,1.8,38.18-15.56-2.87-22,13.7-39.69,31.33,1.16,31.33,1.16,26.06,31-11.19,70.3S146.67,313.2,146.67,313.2Z" fill="#c47d7d"/>
        <path d="M171.29,322.88c-1.42,0-2.87-.07-4.33-.2a44.85,44.85,0,0,1-21.6-7.65c-.86-.59-9.54-6.82-10.63-16.59-.68-6.13,1.74-12.19,7.21-18,9.19-9.78,15.58-9.18,21.22-8.65,5.16.49,9.62.91,17-6.91s6.82-12.49,6.16-17.84c-.7-5.73-1.5-12.21,7.54-21.85,5.39-5.75,11.23-8.53,17.35-8.25,10.14.45,17.1,9.19,17.39,9.57A46,46,0,0,1,237.39,248c1.77,12-.29,30.79-20.16,51.77C207,310.51,191,322.88,171.29,322.88ZM148,311.42c1.24.94,30.6,22.5,65.93-14.8s11.34-67,11.1-67.3c-.11-.13-6.07-7.56-14.13-7.91-4.73-.2-9.39,2.1-13.84,6.84-7.6,8.1-7,12.79-6.35,18.22.69,5.65,1.48,12.06-7.35,21.47s-15.12,8.84-20.66,8.31c-5.28-.49-9.84-.92-17.52,7.25-4.52,4.83-6.55,9.68-6,14.44.9,8,8.65,13.35,8.73,13.4Z"/>
      </g>
      <g>
        <path d="M191.72,275.23c9.09-9.68,6.05-17.5-.76-23.89a16.32,16.32,0,0,0-2.16-1.66c.34,4.63-.36,9.6-7,16.72-6.43,6.84-11.11,7.93-15.46,7.84a17.8,17.8,0,0,0,1.52,1.75C174.63,282.38,182.62,284.92,191.72,275.23Z" fill="#fff"/>
        <path d="M179.6,283.94q-6.57,0-13.32-6.31a16.6,16.6,0,0,1-1.54-1.74l-3.21-4,4.82.1c3.34.06,7.46-.42,13.77-7.13,6.45-6.88,6.71-11.35,6.44-15l-.34-4.67,3.86,2.65a18.84,18.84,0,0,1,2.42,1.87c4.24,4,6.54,7.93,7,12.08.59,5-1.49,10-6.18,15C188.87,281.55,184.27,283.94,179.6,283.94Zm-8.36-8c6.61,5.22,12.49,4.47,18.84-2.29h0c3.79-4,5.42-7.76,5-11.37-.31-2.59-1.68-5.17-4.17-7.86-.58,3.8-2.48,8.13-7.5,13.48C178.66,273,174.67,275.12,171.24,276Z"/>
      </g>
    </g>
  </g>
</svg>
