<svg id="icons-outline" xmlns="http://www.w3.org/2000/svg" viewBox="0 0 400 400.99">
  <title>bread</title>
  <g>
    <g>
      <path d="M134.45,200.49c0-70.18,29.35-127.07,65.55-127.07s65.55,56.89,65.55,127.07S236.19,327.57,200,327.57,134.45,270.68,134.45,200.49Z" fill="#e08d4b"/>
      <path d="M200,329.82c-18.4,0-35.57-13.65-48.35-38.44-12.55-24.31-19.45-56.59-19.45-90.89s6.9-66.57,19.45-90.88C164.43,84.82,181.6,71.17,200,71.17s35.56,13.65,48.35,38.44c12.54,24.31,19.45,56.59,19.45,90.88s-6.91,66.57-19.45,90.89C235.56,316.17,218.39,329.82,200,329.82Zm0-254.15c-34.91,0-63.3,56-63.3,124.82S165.09,325.32,200,325.32s63.3-56,63.3-124.83S234.9,75.67,200,75.67Z" fill="#1d1d1b"/>
    </g>
    <g>
      <path d="M200,73.42c36.19,0,65.55,56.89,65.55,127.07S236.19,327.57,200,327.57" fill="#a46c3f"/>
      <path d="M200,329.82v-4.5c34.9,0,63.3-56,63.3-124.83S234.9,75.67,200,75.67v-4.5c18.39,0,35.56,13.65,48.35,38.44,12.54,24.31,19.45,56.59,19.45,90.88s-6.91,66.57-19.45,90.89C235.56,316.17,218.39,329.82,200,329.82Z" fill="#1d1d1b"/>
    </g>
    <path d="M232.77,149c-16.26-.49-39.41-30.84-65.55,2.7,23.29-17.42,42.69,18.11,65.55-2.7Z" fill="#422918"/>
    <path d="M240.6,200.42c-20.14-.49-48.83-30.51-81.2,2.68,28.85-17.24,52.89,17.9,81.2-2.68Z" fill="#422918"/>
    <path d="M232.77,251.86c-16.26-.48-39.41-30.84-65.55,2.72,23.29-17.43,42.69,18.1,65.55-2.72Z" fill="#422918"/>
  </g>
</svg>
