<svg id="icons-outline" xmlns="http://www.w3.org/2000/svg" viewBox="0 0 400 400.99">
  <title>carrot</title>
  <g>
    <g>
      <g>
        <rect x="200.99" y="15.48" width="14.88" height="111.84" fill="#dbffb5"/>
        <path d="M215.87,129.57H201a2.25,2.25,0,0,1-2.25-2.25V15.48A2.25,2.25,0,0,1,201,13.23h14.88a2.25,2.25,0,0,1,2.25,2.25V127.32A2.25,2.25,0,0,1,215.87,129.57Zm-12.63-4.5h10.38V17.73H203.24Z"/>
      </g>
      <g>
        <rect x="188.62" y="9.24" width="14.87" height="111.85" transform="matrix(0.94, -0.34, 0.34, 0.94, -10.46, 71.02)" fill="#dbffb5"/>
        <path d="M208.2,122.51a2.23,2.23,0,0,1-.95-.21,2.31,2.31,0,0,1-1.17-1.27L167.83,15.92A2.24,2.24,0,0,1,169.17,13l14-5.09a2.23,2.23,0,0,1,1.72.07A2.31,2.31,0,0,1,186,9.29L224.29,114.4a2.25,2.25,0,0,1-1.35,2.88l-14,5.09A2.28,2.28,0,0,1,208.2,122.51Zm-35.37-106,36.71,100.87,9.75-3.55L182.58,13Z"/>
      </g>
      <g>
        <rect x="180.33" y="18.83" width="14.87" height="111.85" transform="translate(-12.23 103.88) rotate(-29.99)" fill="#dbffb5"/>
        <path d="M209.29,129.16a2.26,2.26,0,0,1-1.95-1.13L151.42,31.17a2.27,2.27,0,0,1-.23-1.71,2.24,2.24,0,0,1,1.05-1.36l12.88-7.44a2.26,2.26,0,0,1,3.08.82l55.92,96.86a2.27,2.27,0,0,1-.82,3.08l-12.89,7.43A2.18,2.18,0,0,1,209.29,129.16ZM156.44,30.87l53.67,93,9-5.18-53.68-93Z"/>
      </g>
      <g>
        <polygon points="208.44 125.62 223.09 128.2 242.5 18.06 227.86 15.48 208.44 125.62" fill="#dbffb5"/>
        <path d="M223.09,130.45a2.56,2.56,0,0,1-.39,0l-14.65-2.59a2.23,2.23,0,0,1-1.83-2.6L225.65,15.09a2.24,2.24,0,0,1,2.6-1.82l14.64,2.58a2.21,2.21,0,0,1,1.45.92,2.23,2.23,0,0,1,.38,1.68L225.3,128.59a2.25,2.25,0,0,1-.92,1.46A2.29,2.29,0,0,1,223.09,130.45ZM211,123.79l10.22,1.81L239.89,19.89l-10.2-1.8Z"/>
      </g>
    </g>
    <g>
      <path d="M246.63,172.58c0,37.14-30.76,218.35-30.76,218.35s-35.69-181.21-35.69-218.35,14.88-67.23,33.23-67.23S246.63,135.44,246.63,172.58Z" fill="#ffb700"/>
      <path d="M215.87,393.18a2.26,2.26,0,0,1-2.21-1.82c-1.45-7.41-35.73-181.85-35.73-218.78,0-39,15.59-69.48,35.48-69.48s35.47,30.52,35.47,69.48c0,36.9-29.53,211.32-30.79,218.72a2.26,2.26,0,0,1-2.19,1.88ZM213.41,107.6c-16.79,0-31,29.75-31,65,0,30.9,25.31,164.43,33.28,205.71,6.88-41.36,28.67-174.8,28.67-205.71C244.38,137.35,230.2,107.6,213.41,107.6Z"/>
    </g>
    <rect x="180.51" y="157.77" width="33.22" height="4.5"/>
    <rect x="181.29" y="184.51" width="25.79" height="4.5"/>
    <rect x="202.98" y="236.37" width="25.79" height="4.5"/>
    <rect x="217.82" y="283.8" width="17.65" height="4.5"/>
  </g>
</svg>
