<svg id="icons-outline" xmlns="http://www.w3.org/2000/svg" viewBox="0 0 400 400.99">
  <title>celery</title>
  <g>
    <g>
      <rect x="193.97" y="92.15" width="11.4" height="261" fill="#dcff5c"/>
      <path d="M207.62,355.4H191.73V89.9h15.89Zm-11.39-4.5h6.89V94.4h-6.89Z"/>
    </g>
    <g>
      <path d="M224.18,155.37l4.33,136.25v-.68a58.77,58.77,0,0,1-29.4,51l.8.28s17.88,9.06,29.93,6.81h1A67.27,67.27,0,0,0,264,290.94L240.44,148.69" fill="#dcff5c"/>
      <path d="M225.67,351.59c-11.54,0-25-6.53-26.64-7.34l-5.28-1.85L198,340a56.75,56.75,0,0,0,28.28-48.4l-4.33-136.1,4.5-.15,4.31,135.64h0v.68a61.28,61.28,0,0,1-26.85,49.92c5.44,2.36,17.16,6.8,25.51,5.23l.42,0h.34a65.42,65.42,0,0,0,31.53-55.62L238.22,149.05l4.44-.73,23.55,142.44v.18a69.91,69.91,0,0,1-34.26,60l-.53.32H230A26,26,0,0,1,225.67,351.59Z"/>
    </g>
    <g>
      <path d="M173.93,155.37,169.6,293.05l.09-2.11c0,59.66,61.11,58.05,61.11,58.05-10,5.9-17.14,9.29-29.62,9.29h0a67.31,67.31,0,0,1-67.34-67.34l25.41-142" fill="#dcff5c"/>
      <path d="M201.18,360.53a69.67,69.67,0,0,1-69.59-69.59,2.56,2.56,0,0,1,0-.39L157,148.49l4.43.8L136.09,291.14A65.16,65.16,0,0,0,201.18,356a44.27,44.27,0,0,0,21.76-5.22c-9.81-1.08-26.72-4.75-39.42-17.12-10.09-9.83-15.48-23.23-16-39.86a2.4,2.4,0,0,1-.13-.85l4.33-137.68,4.5.14-4.26,135.25a2.11,2.11,0,0,1,0,.25c0,16.71,4.95,30,14.72,39.53,17.23,16.78,43.82,16.28,44.08,16.27a2.22,2.22,0,0,1,2.23,1.62,2.26,2.26,0,0,1-1,2.56C222.41,356.55,214.62,360.53,201.18,360.53Z"/>
    </g>
    <g>
      <path d="M169.6,162.87,178,148.29H194c-.18-13.31-2.59-32.09-23.93-22.75h-.88c-21.34-9.34-23.76,9.44-23.95,22.75h16l8.42,14.58Z" fill="#dcff5c"/>
      <path d="M170.9,165.12h-2.61l-8.42-14.58H142.93l0-2.29c.12-8.6,1.15-20.59,8.63-25.4,4.48-2.89,10.54-2.74,18,.43,7.47-3.17,13.53-3.32,18-.43,7.48,4.82,8.5,16.81,8.62,25.41l0,2.28H179.32Zm-1.3-2.25h0ZM147.51,146h15l7.13,12.35L176.73,146h15c-.18-5.58-1.07-15.9-6.51-19.41-3.23-2.08-8-1.75-14.23,1l-.43.19h-1.83l-.43-.19c-6.21-2.72-11-3-14.23-1C148.59,130.13,147.69,140.45,147.51,146Z"/>
    </g>
    <g>
      <path d="M228.52,162.87l8.42-14.58h15.95c-.18-13.31-2.6-32.09-23.93-22.75h-.89c-21.33-9.34-23.75,9.44-23.94,22.75h16l8.42,14.58Z" fill="#dcff5c"/>
      <path d="M229.82,165.12h-2.61l-8.42-14.58H201.85l0-2.29c.12-8.6,1.15-20.59,8.62-25.4,4.49-2.89,10.55-2.75,18,.43,7.47-3.17,13.53-3.32,18-.43,7.48,4.82,8.5,16.81,8.61,25.41l0,2.28H238.24Zm-1.3-2.25h0ZM206.43,146h15l7.12,12.35L235.64,146h15c-.18-5.58-1.07-15.9-6.51-19.41-3.23-2.08-8-1.75-14.23,1l-.43.19H227.6l-.43-.19c-6.21-2.72-11-3-14.23-1C207.5,130.13,206.61,140.45,206.43,146Z"/>
    </g>
    <g>
      <path d="M262,121l8.42-14.59h15.95c-.18-13.3-2.6-32.08-23.94-22.75h-.88c-21.34-9.33-23.75,9.45-23.94,22.75h16L262,121Z" fill="#dcff5c"/>
      <path d="M263.29,123.29h-2.61l-8.42-14.59H235.31l0-2.28c.12-8.6,1.15-20.59,8.62-25.4,4.49-2.89,10.54-2.75,18,.42,7.47-3.17,13.53-3.31,18-.42,7.48,4.82,8.5,16.81,8.61,25.4l0,2.28H271.71ZM262,121h0ZM239.9,104.2h14.95L262,116.55l7.13-12.35h14.95c-.17-5.58-1.06-15.89-6.5-19.4-3.23-2.08-8-1.76-14.23,1l-.43.18h-1.83l-.43-.18c-6.21-2.72-11-3-14.23-1C241,88.3,240.08,98.62,239.9,104.2Z"/>
    </g>
    <g>
      <path d="M138,121l8.42-14.59h16c-.18-13.3-2.6-32.08-23.93-22.75h-.89c-21.33-9.33-23.75,9.45-23.94,22.75h16L138,121Z" fill="#dcff5c"/>
      <path d="M139.33,123.29h-2.61L128.3,108.7H111.36l0-2.28c.12-8.6,1.15-20.59,8.63-25.4,4.48-2.89,10.54-2.74,18,.42,7.48-3.17,13.53-3.31,18-.42,7.48,4.82,8.5,16.81,8.61,25.4l0,2.28H147.75ZM138,121h0ZM115.94,104.2h15L138,116.55l7.13-12.35h15c-.18-5.58-1.07-15.89-6.51-19.4-3.23-2.08-8-1.76-14.23,1l-.43.18h-1.83l-.43-.18c-6.21-2.72-11-3-14.23-1C117,88.3,116.12,98.62,115.94,104.2Z"/>
    </g>
    <g>
      <path d="M199.8,121l8.42-14.59h16c-.18-13.3-2.61-32.08-23.94-22.75h-.89c-21.33-9.33-23.75,9.45-23.93,22.75h16L199.79,121Z" fill="#dcff5c"/>
      <path d="M201.1,123.29h-2.61l-8.41-14.59H173.14l0-2.28c.11-8.59,1.13-20.58,8.61-25.4,4.49-2.89,10.55-2.75,18,.42,7.47-3.17,13.53-3.31,18-.42,7.49,4.82,8.51,16.81,8.62,25.4l0,2.28H209.52ZM199.8,121h0ZM177.71,104.2h15l7.12,12.35,7.13-12.35h14.95c-.17-5.57-1.06-15.89-6.51-19.4-3.22-2.08-8-1.76-14.23,1l-.43.18h-1.83l-.43-.18c-6.21-2.72-11-3-14.23-1C178.78,88.31,177.89,98.62,177.71,104.2Z"/>
    </g>
    <g>
      <path d="M168.68,82.55,177.1,68h16c-.18-13.31-2.6-32.08-23.94-22.76h-.88c-21.34-9.32-23.76,9.45-23.94,22.76h16l8.42,14.58Z" fill="#dcff5c"/>
      <path d="M170,84.8h-2.61L159,70.22H142l0-2.28c.12-8.6,1.14-20.59,8.62-25.41,4.48-2.88,10.54-2.74,18,.43,7.47-3.17,13.53-3.32,18-.43,7.48,4.82,8.49,16.81,8.61,25.41l0,2.28H178.4Zm-1.3-2.25h0ZM146.59,65.72h14.95l7.13,12.35,7.13-12.35h14.95c-.18-5.58-1.06-15.9-6.5-19.4-3.23-2.08-8-1.76-14.23,1l-.44.19h-1.82l-.43-.19c-6.21-2.72-11-3-14.23-1C147.66,49.82,146.77,60.14,146.59,65.72Z"/>
    </g>
    <g>
      <path d="M231.28,82.55,239.7,68h16c-.18-13.31-2.61-32.08-23.95-22.76h-.88c-21.34-9.32-23.76,9.45-23.94,22.76h16l8.41,14.58Z" fill="#dcff5c"/>
      <path d="M232.58,84.8H230l-8.41-14.58H204.61l0-2.28c.12-8.59,1.14-20.58,8.62-25.41,4.48-2.89,10.54-2.74,18,.43,7.47-3.17,13.53-3.31,18-.42,7.48,4.82,8.5,16.81,8.62,25.4l0,2.28H241Zm-1.3-2.25h0ZM209.19,65.72h15l7.12,12.34,7.13-12.34h15c-.18-5.57-1.07-15.89-6.51-19.4-3.23-2.09-8-1.76-14.24,1l-.43.19h-1.82l-.43-.19c-6.22-2.72-11-3-14.24-1C210.26,49.82,209.37,60.14,209.19,65.72Z"/>
    </g>
  </g>
</svg>
