<svg id="icons-outline" xmlns="http://www.w3.org/2000/svg" viewBox="0 0 400 400.99">
  <title>cheese</title>
  <g>
    <g>
      <path d="M292.08,196.06,292,269.15l-38.1,0a17.34,17.34,0,0,0,2.71-9.22c0-10-8.62-18.2-19.29-18.22S218,249.79,218,259.84a17,17,0,0,0,2.67,9.22l-112.74-.13.08-73.09-.19-1.13,38.09-62.87,16.75,7.22a15.05,15.05,0,0,0-.36,3.25A15.4,15.4,0,0,0,190.4,151l101.79,43.9Z" fill="#fdf4af"/>
      <path d="M292,271.4h0l-38.1,0a2.26,2.26,0,0,1-1.9-3.45,15.16,15.16,0,0,0,2.37-8c0-8.78-7.63-15.94-17-16h0c-9.41,0-17.06,7.14-17.07,15.92a14.93,14.93,0,0,0,2.32,8,2.25,2.25,0,0,1-1.9,3.45h0l-112.74-.13a2.25,2.25,0,0,1-2.25-2.25l.08-72.9-.16-.93a2.27,2.27,0,0,1,.29-1.55L144,130.67a2.25,2.25,0,0,1,2.81-.9L163.54,137a2.26,2.26,0,0,1,1.31,2.55,12.71,12.71,0,0,0-.31,2.77,13.18,13.18,0,0,0,13.14,13.18h0a13.14,13.14,0,0,0,10.85-5.73,2.24,2.24,0,0,1,2.75-.79l101.79,43.9a2.25,2.25,0,0,1,1.35,2.29l-.1,1-.08,73A2.25,2.25,0,0,1,292,271.4Zm-34.46-4.54,32.21,0,.08-70.53-98.72-42.58a17.62,17.62,0,0,1-13.42,6.2h0A17.69,17.69,0,0,1,160,142.3a16.74,16.74,0,0,1,.1-1.87l-13.33-5.75-36.64,60.48,0,.29a2.56,2.56,0,0,1,0,.39l-.08,70.85,106.85.12a19.35,19.35,0,0,1-1.28-7c0-11.25,9.69-20.41,21.57-20.41h0c11.89,0,21.55,9.2,21.53,20.47A19.51,19.51,0,0,1,257.54,266.86Z" fill="#1d1d1b"/>
    </g>
    <g>
      <path d="M125.14,235.47a15.41,15.41,0,1,0,15.42-15.39A15.42,15.42,0,0,0,125.14,235.47Z" fill="#fdf4af"/>
      <path d="M140.52,253.15a17.69,17.69,0,0,1-17.63-17.68h0a17.66,17.66,0,1,1,17.63,17.69Zm-13.13-17.68a13.15,13.15,0,1,0,13.17-13.14,13.19,13.19,0,0,0-13.17,13.14Z" fill="#1d1d1b"/>
    </g>
    <g>
      <line x1="107.81" y1="194.71" x2="292.08" y2="196.06" fill="#fdf4af"/>
      <rect x="197.69" y="103.25" width="4.5" height="184.28" transform="translate(3.11 393.9) rotate(-89.58)" fill="#1d1d1b"/>
    </g>
    <g>
      <path d="M166.64,201.68a23,23,0,1,0,23.08-23A23,23,0,0,0,166.64,201.68Z" fill="#fdf4af"/>
      <path d="M189.7,227h0a25.3,25.3,0,0,1-25.27-25.31h0a25.34,25.34,0,0,1,25.31-25.27h0a25.29,25.29,0,0,1,0,50.58Zm-20.81-25.31a20.79,20.79,0,0,0,20.77,20.81h0a20.79,20.79,0,0,0,0-41.58h0a20.84,20.84,0,0,0-20.81,20.77Z" fill="#1d1d1b"/>
    </g>
  </g>
</svg>
