<svg id="icons-outline" xmlns="http://www.w3.org/2000/svg" xmlns:xlink="http://www.w3.org/1999/xlink" viewBox="0 0 400 400.99">
  <defs>
    <clipPath id="clip-path">
      <path d="M228.32,67.54H171.68c-8.31,45-16.66,102.21-22.28,137.66L192,299.84,249,195.4C243.49,161.37,235.88,108.51,228.32,67.54Z" fill="none"/>
    </clipPath>
  </defs>
  <title>corn</title>
  <g>
    <g clip-path="url(#clip-path)">
      <g>
        <rect x="148.94" y="67.54" width="25.15" height="27.41" fill="#fdef71"/>
        <path d="M176.34,97.2H146.69V65.29h29.65Zm-25.15-4.5h20.65V69.79H151.19Z" fill="#1d1e1c"/>
      </g>
      <g>
        <rect x="174.09" y="67.54" width="25.14" height="27.41" fill="#fdef71"/>
        <path d="M201.48,97.2H171.84V65.29h29.64Zm-25.14-4.5H197V69.79H176.34Z" fill="#1d1e1c"/>
      </g>
      <g>
        <rect x="199.23" y="67.54" width="25.14" height="27.41" fill="#fdef71"/>
        <path d="M226.62,97.2H197V65.29h29.64Zm-25.14-4.5h20.64V69.79H201.48Z" fill="#1d1e1c"/>
      </g>
      <g>
        <rect x="224.37" y="67.54" width="25.15" height="27.41" fill="#fdef71"/>
        <path d="M251.77,97.2H222.12V65.29h29.65Zm-25.15-4.5h20.65V69.79H226.62Z" fill="#1d1e1c"/>
      </g>
      <g>
        <rect x="148.94" y="94.95" width="25.15" height="27.42" fill="#fdef71"/>
        <path d="M176.34,124.62H146.69V92.7h29.65Zm-25.15-4.5h20.65V97.2H151.19Z" fill="#1d1e1c"/>
      </g>
      <g>
        <rect x="174.09" y="94.95" width="25.14" height="27.42" fill="#fdef71"/>
        <path d="M201.48,124.62H171.84V92.7h29.64Zm-25.14-4.5H197V97.2H176.34Z" fill="#1d1e1c"/>
      </g>
      <g>
        <rect x="199.23" y="94.95" width="25.14" height="27.42" fill="#fdef71"/>
        <path d="M226.62,124.62H197V92.7h29.64Zm-25.14-4.5h20.64V97.2H201.48Z" fill="#1d1e1c"/>
      </g>
      <g>
        <rect x="224.37" y="94.95" width="25.15" height="27.42" fill="#fdef71"/>
        <path d="M251.77,124.62H222.12V92.7h29.65Zm-25.15-4.5h20.65V97.2H226.62Z" fill="#1d1e1c"/>
      </g>
      <g>
        <rect x="148.94" y="122.37" width="25.15" height="27.42" fill="#fdef71"/>
        <path d="M176.34,152H146.69V120.12h29.65Zm-25.15-4.5h20.65V124.62H151.19Z" fill="#1d1e1c"/>
      </g>
      <g>
        <rect x="174.09" y="122.37" width="25.14" height="27.42" fill="#fdef71"/>
        <path d="M201.48,152H171.84V120.12h29.64Zm-25.14-4.5H197V124.62H176.34Z" fill="#1d1e1c"/>
      </g>
      <g>
        <rect x="199.23" y="122.37" width="25.14" height="27.42" fill="#fdef71"/>
        <path d="M226.62,152H197V120.12h29.64Zm-25.14-4.5h20.64V124.62H201.48Z" fill="#1d1e1c"/>
      </g>
      <g>
        <rect x="224.37" y="122.37" width="25.15" height="27.42" fill="#fdef71"/>
        <path d="M251.77,152H222.12V120.12h29.65Zm-25.15-4.5h20.65V124.62H226.62Z" fill="#1d1e1c"/>
      </g>
      <g>
        <rect x="148.94" y="149.79" width="25.15" height="27.42" fill="#fdef71"/>
        <path d="M176.34,179.46H146.69V147.54h29.65ZM151.19,175h20.65V152H151.19Z" fill="#1d1e1c"/>
      </g>
      <g>
        <rect x="174.09" y="149.79" width="25.14" height="27.42" fill="#fdef71"/>
        <path d="M201.48,179.46H171.84V147.54h29.64ZM176.34,175H197V152H176.34Z" fill="#1d1e1c"/>
      </g>
      <g>
        <rect x="199.23" y="149.79" width="25.14" height="27.42" fill="#fdef71"/>
        <path d="M226.62,179.46H197V147.54h29.64ZM201.48,175h20.64V152H201.48Z" fill="#1d1e1c"/>
      </g>
      <g>
        <rect x="224.37" y="149.79" width="25.15" height="27.42" fill="#fdef71"/>
        <path d="M251.77,179.46H222.12V147.54h29.65ZM226.62,175h20.65V152H226.62Z" fill="#1d1e1c"/>
      </g>
      <g>
        <rect x="148.94" y="177.21" width="25.15" height="27.42" fill="#fdef71"/>
        <path d="M176.34,206.88H146.69V175h29.65Zm-25.15-4.5h20.65V179.46H151.19Z" fill="#1d1e1c"/>
      </g>
      <g>
        <rect x="174.09" y="177.21" width="25.14" height="27.42" fill="#fdef71"/>
        <path d="M201.48,206.88H171.84V175h29.64Zm-25.14-4.5H197V179.46H176.34Z" fill="#1d1e1c"/>
      </g>
      <g>
        <rect x="199.23" y="177.21" width="25.14" height="27.42" fill="#fdef71"/>
        <path d="M226.62,206.88H197V175h29.64Zm-25.14-4.5h20.64V179.46H201.48Z" fill="#1d1e1c"/>
      </g>
      <g>
        <rect x="224.37" y="177.21" width="25.15" height="27.42" fill="#fdef71"/>
        <path d="M251.77,206.88H222.12V175h29.65Zm-25.15-4.5h20.65V179.46H226.62Z" fill="#1d1e1c"/>
      </g>
      <g>
        <rect x="148.94" y="204.63" width="25.15" height="27.42" fill="#fdef71"/>
        <path d="M176.34,234.3H146.69V202.38h29.65Zm-25.15-4.5h20.65V206.88H151.19Z" fill="#1d1e1c"/>
      </g>
      <g>
        <rect x="174.09" y="204.63" width="25.14" height="27.42" fill="#fdef71"/>
        <path d="M201.48,234.3H171.84V202.38h29.64Zm-25.14-4.5H197V206.88H176.34Z" fill="#1d1e1c"/>
      </g>
      <g>
        <rect x="199.23" y="204.63" width="25.14" height="27.42" fill="#fdef71"/>
        <path d="M226.62,234.3H197V202.38h29.64Zm-25.14-4.5h20.64V206.88H201.48Z" fill="#1d1e1c"/>
      </g>
      <g>
        <rect x="224.37" y="204.63" width="25.15" height="27.42" fill="#fdef71"/>
        <path d="M251.77,234.3H222.12V202.38h29.65Zm-25.15-4.5h20.65V206.88H226.62Z" fill="#1d1e1c"/>
      </g>
      <g>
        <rect x="148.94" y="232.05" width="25.15" height="27.42" fill="#fdef71"/>
        <path d="M176.34,261.72H146.69V229.8h29.65Zm-25.15-4.5h20.65V234.3H151.19Z" fill="#1d1e1c"/>
      </g>
      <g>
        <rect x="174.09" y="232.05" width="25.14" height="27.42" fill="#fdef71"/>
        <path d="M201.48,261.72H171.84V229.8h29.64Zm-25.14-4.5H197V234.3H176.34Z" fill="#1d1e1c"/>
      </g>
      <g>
        <rect x="199.23" y="232.05" width="25.14" height="27.42" fill="#fdef71"/>
        <path d="M226.62,261.72H197V229.8h29.64Zm-25.14-4.5h20.64V234.3H201.48Z" fill="#1d1e1c"/>
      </g>
      <g>
        <rect x="224.37" y="232.05" width="25.15" height="27.42" fill="#fdef71"/>
        <path d="M251.77,261.72H222.12V229.8h29.65Zm-25.15-4.5h20.65V234.3H226.62Z" fill="#1d1e1c"/>
      </g>
      <g>
        <rect x="148.94" y="259.47" width="25.15" height="27.42" fill="#fdef71"/>
        <path d="M176.34,289.14H146.69V257.22h29.65Zm-25.15-4.5h20.65V261.72H151.19Z" fill="#1d1e1c"/>
      </g>
      <g>
        <rect x="174.09" y="259.47" width="25.14" height="27.42" fill="#fdef71"/>
        <path d="M201.48,289.14H171.84V257.22h29.64Zm-25.14-4.5H197V261.72H176.34Z" fill="#1d1e1c"/>
      </g>
      <g>
        <rect x="199.23" y="259.47" width="25.14" height="27.42" fill="#fdef71"/>
        <path d="M226.62,289.14H197V257.22h29.64Zm-25.14-4.5h20.64V261.72H201.48Z" fill="#1d1e1c"/>
      </g>
      <g>
        <rect x="224.37" y="259.47" width="25.15" height="27.42" fill="#fdef71"/>
        <path d="M251.77,289.14H222.12V257.22h29.65Zm-25.15-4.5h20.65V261.72H226.62Z" fill="#1d1e1c"/>
      </g>
      <g>
        <rect x="148.94" y="286.89" width="25.15" height="27.42" fill="#fdef71"/>
        <path d="M176.34,316.55H146.69V284.64h29.65Zm-25.15-4.5h20.65V289.14H151.19Z" fill="#1d1e1c"/>
      </g>
      <g>
        <rect x="174.09" y="286.89" width="25.14" height="27.42" fill="#fdef71"/>
        <path d="M201.48,316.55H171.84V284.64h29.64Zm-25.14-4.5H197V289.14H176.34Z" fill="#1d1e1c"/>
      </g>
      <g>
        <rect x="199.23" y="286.89" width="25.14" height="27.42" fill="#fdef71"/>
        <path d="M226.62,316.55H197V284.64h29.64Zm-25.14-4.5h20.64V289.14H201.48Z" fill="#1d1e1c"/>
      </g>
      <g>
        <rect x="224.37" y="286.89" width="25.15" height="27.42" fill="#fdef71"/>
        <path d="M251.77,316.55H222.12V284.64h29.65Zm-25.15-4.5h20.65V289.14H226.62Z" fill="#1d1e1c"/>
      </g>
    </g>
    <g>
      <path d="M142.58,263.05c0,38.88,25.71,70.4,57.41,70.4a47.21,47.21,0,0,0,5.61-.34L149.4,208.33C145.23,234.63,142.58,254.68,142.58,263.05Z" fill="#9fc317"/>
      <path d="M200,335.7c-32.9,0-59.66-32.59-59.66-72.65,0-7.85,2.3-26.38,6.85-55.07l1.18-7.44L208.91,335l-3,.36A48.83,48.83,0,0,1,200,335.7ZM150.46,216.15c-3.74,24.21-5.63,40-5.63,46.9,0,37.58,24.74,68.15,55.16,68.15.75,0,1.5,0,2.26-.06Z" fill="#1d1e1c"/>
    </g>
    <path d="M191.84,308l-44.76-99.38.1-.67c1.41-8.91,3-19.21,4.71-30.33C157,144.83,163.24,104,169.47,70.27l.34-1.84h60.38l.34,1.84c5.16,27.94,10.32,61.26,14.87,90.66,2.1,13.58,4.08,26.41,5.85,37.25l.12.76-.37.68ZM151.73,208l40.49,89.91,54.46-99.79C245,187.45,243,174.89,241,161.61c-4.45-28.72-9.47-61.19-14.5-88.68h-52.9c-6.1,33.28-12.25,73.21-17.21,105.4C154.67,189.19,153.12,199.26,151.73,208Z" fill="#1d1e1c"/>
    <g>
      <path d="M192,303l13.57,30.13c29.08-3.46,51.82-33.5,51.82-70.06,0-9.37-3.33-33.42-8.39-64.51Z" fill="#9fc317"/>
      <path d="M204.23,335.54l-14.71-32.66L250.19,191.7l1.06,6.48c5.59,34.36,8.42,56.18,8.42,64.87,0,37.57-23.13,68.65-53.8,72.29Zm-9.69-32.47L207,330.65c12.89-2,24.78-9.6,33.65-21.5,9.39-12.61,14.56-29,14.56-46.1,0-7.9-2.46-27.28-7.32-57.66Z" fill="#1d1e1c"/>
    </g>
  </g>
</svg>
