<svg id="icons-outline" xmlns="http://www.w3.org/2000/svg" viewBox="0 0 400 400.99">
  <title>garlic</title>
  <g>
    <g>
      <path d="M272.63,244.11c0,26.94-32.52,35.33-72.63,35.33s-72.63-8.39-72.63-35.33,32.51-62.18,72.63-62.18S272.63,217.18,272.63,244.11Z" fill="#e4e6f3"/>
      <path d="M200,281.69c-49.69,0-74.88-12.64-74.88-37.58,0-29,34.55-64.43,74.88-64.43s74.88,35.43,74.88,64.43C274.88,269.05,249.69,281.69,200,281.69Zm0-97.51c-17.94,0-35.64,7.24-49.83,20.39-12.68,11.75-20.55,26.9-20.55,39.54,0,21.95,23.68,33.08,70.38,33.08s70.38-11.13,70.38-33.08c0-12.64-7.87-27.79-20.55-39.54C235.64,191.42,217.94,184.18,200,184.18Z" fill="#1d1e1c"/>
    </g>
    <g>
      <path d="M212.05,179.49c0-16.21,3-60.9,3-60.9H185s3,39.54,3,60.9S174.56,201,174.32,236.6c0,25.29,11.49,45.8,25.68,45.8s25.67-20.51,25.67-45.8C225.67,199.17,212.05,195.7,212.05,179.49Z" fill="#e4e6f3"/>
      <path d="M200,284.65c-15.66,0-27.93-21.11-27.93-48,.14-20.56,4.51-29.55,8.37-37.49,2.81-5.79,5.24-10.79,5.24-19.62,0-21-2.94-60.33-3-60.73l-.18-2.42h34.91l-.16,2.4c0,.45-3,44.8-3,60.75,0,5.92,2,10,4.51,15.22,4.06,8.37,9.11,18.8,9.11,41.89C227.92,263.54,215.66,284.65,200,284.65ZM187.37,120.84c.65,8.94,2.81,40.49,2.81,58.65,0,9.87-2.77,15.56-5.69,21.59-3.65,7.5-7.79,16-7.92,35.53,0,23.59,10.73,43.54,23.43,43.54s23.42-19.95,23.42-43.55c0-22.06-4.8-32-8.66-39.93-2.66-5.49-5-10.23-5-17.18,0-13.93,2.22-49.13,2.84-58.65Z" fill="#1d1e1c"/>
    </g>
    <path d="M215.18,278.74v-4.5c25.11,0,36.81-9.57,36.81-30.13,0-25.12-17.33-57-36.81-57v-4.5c24,0,41.31,36.72,41.31,61.48C256.49,267.09,242.59,278.74,215.18,278.74Z" fill="#1d1e1c"/>
    <path d="M186.24,278.74c-27.41,0-41.31-11.65-41.31-34.63,0-24.76,17.35-61.48,41.31-61.48v4.5c-19.48,0-36.81,31.86-36.81,57,0,20.56,11.7,30.13,36.81,30.13Z" fill="#1d1e1c"/>
  </g>
</svg>
