<svg id="icons-outline" xmlns="http://www.w3.org/2000/svg" viewBox="0 0 400 400.99">
  <title>meat</title>
  <g>
    <g>
      <path d="M269.61,80.45S178.08,267,223.93,380.88l-19.29,7.79s-45.77-50,13-239.52Z" fill="#c8c7c7"/>
      <path d="M204,391.34,203,390.19c-.49-.53-12-13.46-16.11-50C183.1,307,185,246.75,215.49,148.48l.11-.37,52.22-69,3.81,2.35a710.14,710.14,0,0,0-39.91,107.18c-28.15,100-18.64,159.27-5.7,191.42l.83,2.08Zm15.64-241.15C166.9,320.6,199.29,377.33,205.38,386L221,379.62c-10-25.91-13.86-57.48-11.54-93.89,1.9-29.8,7.93-62.91,17.93-98.4a737.58,737.58,0,0,1,31.88-89.5Z" fill="#1d1e1c"/>
    </g>
    <path d="M269.61,80.45s-38.72,78.89-54,170.75l-41.41-6.78s15.08-55.74-22.14-104.7C111.27,86,130.46,16.79,189.31,12.5S269.61,80.45,269.61,80.45Z" fill="#fff"/>
    <path d="M215.78,185.8C226,127.57,250.4,80.45,250.4,80.45s-15.47-53.34-60.28-49.61c-43.16,3.58-57,45.25-31.52,89a495.87,495.87,0,0,1,33.06,68.82h.23c1.51,4.29,6.13,7.43,11.67,7.43S215.77,186.7,215.78,185.8Z" fill="#9f2d56"/>
    <path d="M209.69,214.46a9.87,9.87,0,0,0-19.52-2.88,9.4,9.4,0,0,0-.09,1.83l-.18,0-4.3,29.11,19.53,2.88,4.29-29.11-.18,0A9.88,9.88,0,0,0,209.69,214.46Z" fill="#9f2d56"/>
    <path d="M217.49,253.79l-45.76-7.5.27-2.15c0-.11,1.47-11.84,3-28.81,2.11-23.35-7.13-51.11-24.71-74.25-22.42-29.49-28.4-65.42-15.61-93.75,9.82-21.75,29.67-35.27,54.45-37.07s47.08,9.69,64.2,33.28a132.56,132.56,0,0,1,18.43,36.27l.25.84-.39.79c-.38.79-38.75,79.67-53.77,170.13Zm-40.76-11.24,37.06,6.07c14.54-85.24,49.3-159.74,53.41-168.34a132,132,0,0,0-17.57-34.19C233.25,23.57,213,13,189.47,14.75S148,28.69,138.79,49.19c-12.11,26.82-6.33,61,15.09,89.17,18.24,24,27.82,52.93,25.61,77.37C178.33,228.55,177.21,238.4,176.73,242.55Z" fill="#1d1e1c"/>
    <polygon points="173.17 151.91 169.53 149.26 209.98 93.61 209.98 24.3 214.48 24.3 214.48 95.08 173.17 151.91" fill="#fff"/>
    <rect x="214.14" y="94.13" width="4.5" height="80.9" transform="translate(-12.69 22.97) rotate(-5.9)" fill="#fff"/>
  </g>
</svg>
