<svg id="icons-outline" xmlns="http://www.w3.org/2000/svg" viewBox="0 0 400 400.99">
  <title>milk</title>
  <g>
    <path d="M248.39,192.23H151.61a2.25,2.25,0,0,1-2.25-2.25V163.43c0-.12,0-.23,0-.34,3.26-21.1,10-30.34,15.91-38.5,5.5-7.56,10.25-14.1,12.08-28.78a2.25,2.25,0,0,1,2.23-2h40.81a2.25,2.25,0,0,1,2.23,2c1.82,14.68,6.57,21.22,12.07,28.78,5.93,8.16,12.65,17.41,15.91,38.5,0,.11,0,.22,0,.34V190A2.25,2.25,0,0,1,248.39,192.23Zm-94.53-4.5h92.28V163.6c-3.09-19.89-9.18-28.26-15.07-36.36-5.38-7.41-10.48-14.42-12.63-28.9H181.56c-2.15,14.48-7.25,21.49-12.63,28.9-5.89,8.1-12,16.47-15.07,36.36Z" fill="#1d1e1c"/>
    <g>
      <path d="M176.11,324.86h47.78a25.72,25.72,0,0,0,24.5-25.41V190H151.61V299.45C151.61,313.05,162.58,324.14,176.11,324.86Z" fill="#fff"/>
      <path d="M223.89,327.11H176a27.89,27.89,0,0,1-26.63-27.65V190a2.25,2.25,0,0,1,2.25-2.25h96.78a2.25,2.25,0,0,1,2.25,2.25V299.45A27.88,27.88,0,0,1,224,327.1Zm-47.72-4.5h47.66a23.39,23.39,0,0,0,22.31-23.16V192.23H153.86V299.45A23.4,23.4,0,0,0,176.17,322.61Z" fill="#1d1e1c"/>
    </g>
    <g>
      <path d="M228.57,86.57a10.71,10.71,0,0,0-10.95-10.44H182.38a10.71,10.71,0,0,0-10.95,10.44h0A10.7,10.7,0,0,0,182.38,97h35.24a10.7,10.7,0,0,0,10.95-10.43Z" fill="#e85e65"/>
      <path d="M217.62,99.25H182.38a12.7,12.7,0,1,1,0-25.37h35.24a12.7,12.7,0,1,1,0,25.37ZM182.38,78.38a8.2,8.2,0,1,0,0,16.37h35.24a8.2,8.2,0,1,0,0-16.37Z" fill="#1d1e1c"/>
    </g>
  </g>
</svg>
