<svg id="icons-outline" xmlns="http://www.w3.org/2000/svg" viewBox="0 0 400 400.99">
  <title>mushroom</title>
  <g>
    <g>
      <polygon points="178.62 334.81 212 334.81 206.71 273.43 182.42 273.43 178.62 334.81" fill="#e4ce75"/>
      <path d="M214.45,337.06H176.23l4.07-65.88h28.47ZM181,332.56h28.54l-4.91-56.88H184.53Z" fill="#1d1d1b"/>
    </g>
    <g>
      <path d="M195,252.13a41.09,41.09,0,0,1,41.09,41.09H153.88A41.1,41.1,0,0,1,195,252.13Z" fill="#9b9487"/>
      <path d="M238.32,295.47H151.63v-2.25a43.35,43.35,0,0,1,86.69,0ZM156.2,291h77.55a38.84,38.84,0,0,0-77.55,0Z" fill="#1d1d1b"/>
    </g>
    <g>
      <polygon points="176.12 235.69 207.71 246.46 222.5 186.64 199.51 178.81 176.12 235.69" fill="#e4ce75"/>
      <path d="M209.3,249.38,173.13,237l25.1-61,27,9.19Zm-30.19-15,27,9.21,13.71-55.43-19-6.49Z" fill="#1d1d1b"/>
    </g>
    <g>
      <path d="M218.28,162.69a41.11,41.11,0,0,1,25.63,52.17l-77.79-26.53A41.12,41.12,0,0,1,218.28,162.69Z" fill="#9b9487"/>
      <path d="M245.31,217.71l-82.05-28,.73-2.13a43.4,43.4,0,0,1,55-27.05h0a43.36,43.36,0,0,1,27,55ZM169,187l73.41,25a38.86,38.86,0,0,0-24.89-47.16h0A38.92,38.92,0,0,0,169,187Z" fill="#1d1d1b"/>
    </g>
    <g>
      <polygon points="200.17 151.93 231.73 141.09 206.8 84.76 183.82 92.65 200.17 151.93" fill="#e4ce75"/>
      <path d="M198.63,154.84,181.09,91.21,208,82l26.76,60.46ZM186.55,94.09,201.7,149l27-9.27-23.11-52.2Z" fill="#1d1d1b"/>
    </g>
    <g>
      <path d="M188.78,68.42A41.09,41.09,0,0,1,241,93.93l-77.73,26.7A41.1,41.1,0,0,1,188.78,68.42Z" fill="#9b9487"/>
      <path d="M161.86,123.49l-.73-2.13A43.4,43.4,0,0,1,188,66.29h0A43.35,43.35,0,0,1,243.12,93.2l.73,2.13Zm27.65-52.94a38.9,38.9,0,0,0-24.8,47.2l73.36-25.19a38.83,38.83,0,0,0-48.56-22Z" fill="#1d1d1b"/>
    </g>
  </g>
</svg>
