<svg id="icons-outline" xmlns="http://www.w3.org/2000/svg" viewBox="0 0 400 400.99">
  <title>pea</title>
  <g>
    <g>
      <path d="M151.74,210.29c3.07,11.67-3.93,31.27,5.39,43.17,14.49,18.49,24.1,8.3,40,25.7,9.67,10.58,27.12,32.07,27.12,32.07s-4.87-27.26-6.55-41.47c-2.79-23.41,11.2-24,6.66-47.08-2.91-14.83-22.32-22.34-29.15-32.29" fill="#92be1f"/>
      <path d="M224.25,313.48a2.26,2.26,0,0,1-1.75-.83c-.17-.22-17.52-21.57-27-32-7.31-8-13-9.77-19-11.64-6.5-2-13.22-4.12-21.11-14.19-6.32-8.07-5.76-19.13-5.28-28.89.29-5.67.56-11-.51-15.1a2.25,2.25,0,0,1,4.35-1.14c1.25,4.75,1,10.44.66,16.46-.47,9.41-1,19.15,4.33,25.9,7,9,12.52,10.67,18.9,12.66,6,1.88,12.85,4,21,12.9,6.25,6.84,15.81,18.31,21.78,25.54-1.58-9.24-4-24-5.11-33.16-1.42-12,1.42-18.53,3.94-24.31,2.66-6.13,4.95-11.43,2.76-22.59-1.66-8.41-9.34-14.4-16.78-20.2-4.76-3.71-9.25-7.21-12-11.26a2.25,2.25,0,1,1,3.71-2.55c2.39,3.48,6.61,6.77,11.09,10.26,7.71,6,16.44,12.82,18.42,22.88,2.47,12.54-.33,19-3,25.25-2.5,5.77-4.87,11.23-3.59,22,1.66,14,6.49,41.07,6.54,41.34a2.25,2.25,0,0,1-1.28,2.44A2.22,2.22,0,0,1,224.25,313.48Z" fill="#1d1d1b"/>
    </g>
    <g>
      <path d="M151.89,210.61c-6.83-10-26.24-17.47-29.16-32.3-4.53-23,9.45-23.66,6.67-47.06-1.68-14.23-6.55-41.49-6.55-41.49s17.45,21.5,27.12,32.06c15.89,17.41,25.5,7.22,40,25.71,9.33,11.91,2.33,31.5,5.39,43.18" fill="#92be1f"/>
      <path d="M151.89,212.86a2.24,2.24,0,0,1-1.86-1c-2.38-3.47-6.61-6.77-11.09-10.26-7.7-6-16.44-12.82-18.42-22.87-2.46-12.55.34-19,3-25.25,2.51-5.77,4.88-11.23,3.6-22-1.66-14-6.49-41.08-6.54-41.35a2.25,2.25,0,0,1,4-1.82c.18.22,17.53,21.57,27,32,7.3,8,13,9.78,19,11.65,6.5,2,13.23,4.13,21.11,14.19,6.32,8.07,5.77,19.14,5.28,28.9-.28,5.67-.55,11,.52,15.1a2.25,2.25,0,1,1-4.35,1.14c-1.25-4.75-1-10.44-.66-16.46.47-9.42.95-19.15-4.33-25.91-7-8.95-12.53-10.67-18.91-12.66-6-1.88-12.85-4-21-12.91-6.25-6.82-15.81-18.29-21.78-25.53,1.58,9.24,4,24,5.11,33.17,1.42,12-1.43,18.53-3.94,24.31-2.66,6.13-5,11.42-2.76,22.59,1.65,8.4,9.34,14.39,16.77,20.19,4.76,3.71,9.26,7.22,12,11.26a2.26,2.26,0,0,1-1.85,3.53Z" fill="#1d1d1b"/>
    </g>
    <g>
      <path d="M184.34,175.67c-11.93,9.25-27.49,9.18-34.74-.18s-3.45-24.43,8.49-33.69,27.48-9.17,34.73.18S196.27,166.41,184.34,175.67Z" fill="#92be1f"/>
      <path d="M165.35,184.81h-.15c-7.27,0-13.44-2.86-17.37-7.94-8-10.31-4-26.84,8.88-36.85s29.89-9.74,37.89.58,4,26.84-8.88,36.85h0A33.68,33.68,0,0,1,165.35,184.81Zm11.73-47.66a29.33,29.33,0,0,0-17.62,6.42c-10.93,8.49-14.56,22.19-8.08,30.54,3.07,4,8,6.17,13.85,6.2h.12A29.15,29.15,0,0,0,183,173.89c10.93-8.48,14.56-22.18,8.08-30.53C187.83,139.22,182.74,137.15,177.08,137.15Zm7.26,38.52h0Z" fill="#1d1d1b"/>
    </g>
    <g>
      <path d="M199.33,245.23c-15.07-.92-26.7-11.26-26-23.06s13.54-20.64,28.61-19.71,26.71,11.25,26,23.06S214.41,246.16,199.33,245.23Z" fill="#92be1f"/>
      <path d="M201.53,247.55c-.78,0-1.55,0-2.34-.08a33.58,33.58,0,0,1-20.27-8c-5.43-4.82-8.21-11-7.82-17.43.81-13,14.72-22.8,31-21.82s28.89,12.42,28.09,25.45A21,21,0,0,1,222.83,240C217.36,244.87,209.7,247.55,201.53,247.55Zm-1.73-42.91c-12.92,0-23.58,7.63-24.2,17.67-.31,5,1.93,9.9,6.31,13.79A29.08,29.08,0,0,0,199.47,243h0c7.86.5,15.28-1.81,20.37-6.31a16.35,16.35,0,0,0,5.86-11.28c.64-10.56-10.07-19.84-23.88-20.69C201.14,204.66,200.46,204.64,199.8,204.64Z" fill="#1d1d1b"/>
    </g>
    <g>
      <path d="M241,179.52c-12.78-8-18-22.67-11.74-32.68s21.77-11.63,34.55-3.6,18.05,22.69,11.75,32.7S253.76,187.57,241,179.52Z" fill="#92be1f"/>
      <path d="M257.91,186.87a34.45,34.45,0,0,1-18.15-5.44h0a33.66,33.66,0,0,1-13.94-16.75c-2.46-6.84-1.93-13.6,1.5-19,6.94-11,23.83-13,37.65-4.31a33.66,33.66,0,0,1,13.95,16.76c2.46,6.85,1.93,13.61-1.5,19C273.41,183.53,266.06,186.87,257.91,186.87Zm-11.12-46.49c-6.62,0-12.49,2.61-15.66,7.65-2.67,4.25-3,9.62-1.08,15.13a29.13,29.13,0,0,0,12.11,14.46h0c11.72,7.36,25.83,6.07,31.45-2.87,2.68-4.25,3.06-9.62,1.08-15.14a29.11,29.11,0,0,0-12.11-14.47A30.12,30.12,0,0,0,246.79,140.38Z" fill="#1d1d1b"/>
    </g>
  </g>
</svg>
