<svg id="icons-outline" xmlns="http://www.w3.org/2000/svg" viewBox="0 0 400 400.99">
  <title>peanut</title>
  <g>
    <g>
      <g>
        <path d="M166.13,201.56c-2.64,16.89-22.85,38.36-17.5,59.11C157,292.88,175.2,285.13,186,316.73a24.64,24.64,0,0,0,16,7.1c10.23.61,16-7.64,16-7.64,9.66-32,28.19-24.84,35.37-57.32,4.63-20.93-16.3-41.68-19.51-58.49" fill="#f2d299"/>
        <path d="M203.06,326.12c-.4,0-.81,0-1.22,0a26.77,26.77,0,0,1-17.55-7.85,2.17,2.17,0,0,1-.46-.77c-5-14.77-11.79-20.64-18.32-26.31-7.18-6.23-14.6-12.67-19.06-29.91-3.53-13.74,3.38-27.63,9.49-39.88,3.61-7.26,7-14.11,8-20.15a2.25,2.25,0,0,1,4.45.7c-1.06,6.72-4.62,13.88-8.4,21.46-6,12.11-12.27,24.64-9.15,36.74,4.1,15.89,10.68,21.6,17.65,27.64s14.07,12.21,19.47,27.77a22.89,22.89,0,0,0,14.18,6.07c7.91.46,12.84-5.16,13.86-6.44,4.86-15.82,11.81-22.28,18.53-28.53s13.14-12.21,16.68-28.24c2.7-12.2-4-24.49-10.39-36.38-4-7.46-7.86-14.5-9.13-21.19a2.25,2.25,0,1,1,4.42-.85c1.14,6,4.8,12.76,8.66,19.9,6.52,12,13.9,25.66,10.84,39.49-3.85,17.4-11.05,24.09-18,30.57-6.34,5.89-12.9,12-17.41,26.92a2.53,2.53,0,0,1-.31.64C219.59,317.84,213.65,326.12,203.06,326.12Z"/>
      </g>
      <g>
        <path d="M166.15,202.05c-3.23-16.8-24.16-37.56-19.53-58.48,7.2-32.48,25.71-25.35,35.37-57.31,0,0,.82-9.33,14.56-9.13S214,85.7,214,85.7c10.76,31.61,29,23.84,37.33,56.07,5.34,20.76-14.86,42.22-17.5,59.13" fill="#f2d299"/>
        <path d="M166.15,204.3a2.26,2.26,0,0,1-2.21-1.82c-1.15-6-4.8-12.75-8.67-19.88-6.52-12-13.91-25.68-10.85-39.51,3.86-17.4,11.05-24.09,18-30.56,6.32-5.88,12.85-12,17.37-26.79.31-1.82,2.57-10.87,16.32-10.87h.47c15,.22,19.33,9.51,19.5,9.9a1.67,1.67,0,0,1,.08.2c5,14.77,11.79,20.63,18.32,26.3,7.18,6.22,14.61,12.66,19.06,29.92,3.53,13.74-3.38,27.63-9.48,39.88-3.62,7.27-7,14.13-8,20.17a2.25,2.25,0,0,1-4.45-.7c1.06-6.73,4.62-13.89,8.4-21.47,6-12.12,12.27-24.64,9.15-36.75-4.1-15.9-10.68-21.61-17.65-27.65S217.37,102.38,212,86.55c-.38-.74-3.92-7-15.43-7.17-4.78-.08-8.44,1.14-10.52,3.5a7.22,7.22,0,0,0-1.77,3.6,2.17,2.17,0,0,1-.08.43c-4.87,16.1-11.88,22.61-18.65,28.91S152.37,128,148.81,144.06c-2.69,12.2,4,24.5,10.42,36.4,4,7.44,7.85,14.48,9.13,21.17a2.24,2.24,0,0,1-1.78,2.63A2.15,2.15,0,0,1,166.15,204.3Z"/>
      </g>
    </g>
    <g>
      <path d="M215.64,203.24a2.25,2.25,0,0,1-2.21-1.83c-1.07-5.6-4.49-11.9-8.1-18.58-6.11-11.28-13-24.06-10.17-37.06,3.34-15,9.22-21.51,16-27.84a2.25,2.25,0,1,1,3.07,3.29c-6.44,6-11.61,11.72-14.67,25.52-2.51,11.36,3.71,22.84,9.73,33.95,3.78,7,7.36,13.59,8.56,19.88a2.24,2.24,0,0,1-1.79,2.63A2,2,0,0,1,215.64,203.24Z" fill="#80682e"/>
      <path d="M213.69,286.42a2.25,2.25,0,0,1-1.48-3.94l1.21-1.06c6.49-5.64,12.62-11,16.44-25.78,2.91-11.28-2.92-23-8.56-34.3-3.54-7.1-6.88-13.82-7.87-20.13a2.25,2.25,0,0,1,4.45-.7c.88,5.63,4.07,12,7.45,18.83,5.73,11.49,12.22,24.52,8.89,37.43-4.17,16.16-11.12,22.2-17.85,28.05l-1.2,1A2.19,2.19,0,0,1,213.69,286.42Z" fill="#80682e"/>
      <path d="M215.64,203.57a2,2,0,0,1-.42,0,2.25,2.25,0,0,1-1.79-2.63c1.21-6.28,4.78-12.88,8.57-19.87,6-11.11,12.24-22.6,9.73-34-3.06-13.8-8.23-19.5-14.67-25.51a2.25,2.25,0,0,1,3.08-3.29c6.77,6.33,12.65,12.79,16,27.83,2.87,13-4.06,25.8-10.18,37.09-3.61,6.67-7,13-8.1,18.56A2.25,2.25,0,0,1,215.64,203.57Z" fill="#80682e"/>
    </g>
    <rect x="164.96" y="148.7" width="31.78" height="4.5" fill="#80682e"/>
    <rect x="168.81" y="169.42" width="33.26" height="4.5" fill="#80682e"/>
    <rect x="198.68" y="138.94" width="33.82" height="4.5" fill="#80682e"/>
    <rect x="198.34" y="159.88" width="34.54" height="4.5" fill="#80682e"/>
    <rect x="164.32" y="240.25" width="35.23" height="4.5" fill="#80682e"/>
    <rect x="165.4" y="261.2" width="33.27" height="4.5" fill="#80682e"/>
    <rect x="178.61" y="190.14" width="34.24" height="4.5" fill="#80682e"/>
    <rect x="185.69" y="210.85" width="34.11" height="4.5" fill="#80682e"/>
    <rect x="196.73" y="231.57" width="32.78" height="4.5" fill="#80682e"/>
    <rect x="200.89" y="252.29" width="31.99" height="4.5" fill="#80682e"/>
    <g>
      <path d="M184.94,286.42a2.25,2.25,0,0,1-1.54-3.9c6.44-6,11.62-11.71,14.67-25.51,2.51-11.36-3.71-22.86-9.73-34-3.79-7-7.36-13.58-8.56-19.87a2.25,2.25,0,0,1,4.42-.85c1.07,5.6,4.48,11.91,8.1,18.58,6.11,11.29,13,24.08,10.16,37.08-3.33,15-9.21,21.5-16,27.83A2.21,2.21,0,0,1,184.94,286.42Z" fill="#80682e"/>
      <path d="M182,205.13a2.24,2.24,0,0,1-2.22-1.9c-.88-5.63-4.08-12-7.46-18.82-5.72-11.5-12.21-24.53-8.88-37.43,4.17-16.19,11.14-22.23,17.87-28.08l1.17-1a2.25,2.25,0,1,1,3,3.39l-1.18,1c-6.5,5.64-12.64,11-16.46,25.8-2.91,11.28,2.91,23,8.55,34.3,3.54,7.11,6.88,13.82,7.87,20.14a2.26,2.26,0,0,1-1.87,2.57Z" fill="#80682e"/>
      <path d="M179,286.09a2.21,2.21,0,0,1-1.53-.61c-6.78-6.33-12.67-12.79-16-27.83-2.87-13,4.06-25.78,10.17-37.06,3.62-6.68,7-13,8.11-18.59a2.25,2.25,0,0,1,4.42.84c-1.21,6.29-4.79,12.9-8.57,19.89-6,11.11-12.24,22.59-9.74,34,3.06,13.8,8.24,19.5,14.68,25.52a2.25,2.25,0,0,1,.11,3.18A2.28,2.28,0,0,1,179,286.09Z" fill="#80682e"/>
    </g>
  </g>
</svg>
