<svg id="icons-outline" xmlns="http://www.w3.org/2000/svg" viewBox="0 0 400 400.99">
  <title>pistachio</title>
  <g>
    <g>
      <path d="M236.21,224.21c0,25.88-16.21,46.88-36.22,46.88s-36.21-21-36.21-46.88c0-87.89,36.21-87.89,36.21-87.89S236.21,136.32,236.21,224.21Z" fill="#70b52d"/>
      <path d="M200,273.34c-21.21,0-38.46-22-38.46-49.13,0-89.11,36.89-90.14,38.46-90.14s38.47,1,38.47,90.14C238.46,251.3,221.21,273.34,200,273.34Zm0-134.77c-.32,0-8.41.25-16.7,10.58C169,166.92,166,199.78,166,224.21c0,24.61,15.24,44.63,34,44.63s34-20,34-44.63C234,139.55,200.33,138.57,200,138.57Z"/>
    </g>
    <g>
      <path d="M169.48,126.42S126.12,138,144.53,233.89c5.44,28.24,29.25,45.95,53.2,39.55.3-.08.58-.21.89-.3l-28.21-146.9C169.82,126.33,169.48,126.42,169.48,126.42Z" fill="#d8d8bd"/>
      <path d="M187.9,277a41.35,41.35,0,0,1-22-6.47c-12-7.51-20.55-20.7-23.53-36.21-7.74-40.31-5.78-71,5.82-91.23,8.88-15.47,20.21-18.68,20.75-18.83h0a10,10,0,0,1,1.16-.23,2.25,2.25,0,0,1,2.56,1.8l28.21,146.9a2.25,2.25,0,0,1-1.57,2.58l-.26.09a6.67,6.67,0,0,1-.72.23A40,40,0,0,1,187.9,277ZM168.67,129.13c-3.08,1.34-10.65,5.58-16.84,16.59-13.51,24-10.23,61-5.09,87.74,2.75,14.29,10.59,26.4,21.51,33.25A36.34,36.34,0,0,0,196,271.55Z"/>
    </g>
    <g>
      <path d="M230.52,126.42S273.88,138,255.47,233.89c-5.44,28.24-29.25,45.95-53.2,39.55-.3-.08-.59-.21-.89-.3l28.22-146.9C230.18,126.33,230.52,126.42,230.52,126.42Z" fill="#d8d8bd"/>
      <path d="M212.1,277a40.3,40.3,0,0,1-10.41-1.38,6,6,0,0,1-.69-.22l-.27-.09a2.25,2.25,0,0,1-1.56-2.58l28.22-146.9A2.26,2.26,0,0,1,230,124a10.11,10.11,0,0,1,1.15.23c.53.14,11.87,3.35,20.75,18.83,11.6,20.23,13.56,50.92,5.82,91.23-3,15.51-11.55,28.7-23.53,36.21A41.33,41.33,0,0,1,212.1,277ZM204,271.55a36.38,36.38,0,0,0,27.78-4.84c10.92-6.85,18.76-19,21.51-33.25,5.14-26.76,8.42-63.71-5.09-87.74-6.19-11-13.75-15.24-16.83-16.59Z"/>
    </g>
  </g>
</svg>
