<svg id="icons-outline" xmlns="http://www.w3.org/2000/svg" viewBox="0 0 400 400.99">
  <title>shrimp</title>
  <g>
    <g>
      <path d="M252.62,200.3a76.39,76.39,0,0,0-100.68-81l3.58,40.22q1.3.1,2.61.24a53.29,53.29,0,0,1,46.85,59c-1.3,11.34-6.08,21.42-15.75,30.85l9.25,15.79C228.25,254.81,249.14,230.67,252.62,200.3Z" fill="#f8dfec"/>
      <path d="M197.48,268.22,186.4,249.3l1.26-1.23c9-8.77,13.78-18.14,15.08-29.5a51.08,51.08,0,0,0-44.86-56.52c-.84-.09-1.68-.17-2.52-.23l-1.91-.14-3.91-43.88,1.67-.57a78.62,78.62,0,0,1,103.65,83.32h0c-3.53,30.77-24.32,55.83-55.62,67Zm-5.43-18.17,7.42,12.66c28.67-10.92,47.65-34.22,50.91-62.67h0a74.12,74.12,0,0,0-96-79.11l3.25,36.56.79.09a55.59,55.59,0,0,1,48.83,61.51C205.87,230.82,200.9,241,192.05,250.05Z" fill="#1d1e1c"/>
    </g>
    <g>
      <path d="M193,257.45l-1.62-8.75c-13.39,7.22-44.47,6-44.47,6l5.5,32.38s9.14-1.11,13.72-2.14c15.89-3.56,30.64-14.7,42.71-24.06Z" fill="#e85e65"/>
      <path d="M150.52,289.56l-6.33-37.23,2.77.11c.31,0,30.62,1.12,43.31-5.73l2.72-1.46,1.91,10.32,19.1,4.12-3.82,2.95c-11.26,8.74-26.69,20.7-43.6,24.49-4.63,1-13.56,2.13-13.93,2.17Zm-1-32.55,4.68,27.55c3-.39,8.28-1.13,11.37-1.82,14.14-3.17,27.52-12.67,38-20.7L191,259.33,189.66,252C177.5,256.93,157,257.12,149.55,257Z" fill="#1d1e1c"/>
    </g>
    <path d="M180.75,152.71l-3.41-2.93a24.21,24.21,0,0,0-2.57-34.15l2.94-3.42a28.71,28.71,0,0,1,3,40.5Z" fill="#1d1e1c"/>
    <path d="M212.47,164.54l-3-3.34A24.22,24.22,0,0,0,211.23,127l3.34-3a28.72,28.72,0,0,1-2.1,40.56Z" fill="#1d1e1c"/>
    <path d="M231.53,190.43l-2.05-4A24.22,24.22,0,0,0,240,153.82l4-2a28.73,28.73,0,0,1-12.49,38.66Z" fill="#1d1e1c"/>
  </g>
</svg>
