<svg id="icons-outline" xmlns="http://www.w3.org/2000/svg" viewBox="0 0 400 400.99">
  <title>spinach</title>
  <g>
    <g>
      <path d="M222.92,2.37c-13.63-1.54-18.58,11.9-19.54,15.57-3,11.53-25.31,18.48-27.17,39.67s10.2,39.67,6.93,50.85-18.79,23.87-17,38.33c2.78,22.46,20.84,14.8,25.32,37.07,2.72,13.53,6.45,40,6.45,40" fill="#4b9442"/>
      <path d="M197.9,226.07a2.25,2.25,0,0,1-2.23-1.94c0-.26-3.75-26.52-6.42-39.83-2-10-6.91-13.35-12.08-16.85-5.77-3.91-11.73-7.95-13.27-20.38-1.21-9.84,4.76-18.72,10-26.55,3-4.53,5.92-8.81,7.06-12.69,1.38-4.72-.47-11.45-2.61-19.25-2.54-9.23-5.41-19.7-4.4-31.17,1.19-13.55,10.23-21.69,17.51-28.23,4.66-4.2,8.69-7.82,9.72-11.8a28.58,28.58,0,0,1,5.48-10.63A18.09,18.09,0,0,1,223.17.14a2.25,2.25,0,0,1-.5,4.47C209.9,3.16,206,16.93,205.56,18.51c-1.37,5.29-6.08,9.53-11.07,14-7,6.32-15,13.49-16,25.28-.94,10.66,1.82,20.71,4.26,29.58,2.32,8.46,4.33,15.76,2.59,21.7-1.34,4.55-4.4,9.11-7.65,13.94-5.06,7.53-10.29,15.32-9.28,23.49,1.28,10.4,5.93,13.55,11.32,17.2s11.58,7.84,14,19.69c2.7,13.44,6.43,39.83,6.47,40.1a2.25,2.25,0,0,1-1.92,2.54Z" fill="#1d1d1b"/>
    </g>
    <g>
      <path d="M222.92,2.37c13.63,1.54,15.47,15.75,15.58,19.54.33,11.9,20.55,23.66,17.64,44.73s-18.8,36.39-18.1,48,13,27.47,8,41.18c-7.71,21.28-23.62,9.77-32.95,30.48-5.67,12.58-15.2,37.51-15.2,37.51" fill="#4b9442"/>
      <path d="M197.91,226.07a2.32,2.32,0,0,1-.81-.15,2.25,2.25,0,0,1-1.3-2.9c.1-.25,9.62-25.14,15.26-37.64,5-11,11.9-13.7,18-16.08s11.3-4.38,14.87-14.24c2.81-7.74-.56-16.49-3.81-25-2.08-5.44-4-10.57-4.34-15.31-.37-6.18,3.22-12.85,7.37-20.58,4.35-8.1,9.28-17.28,10.75-27.88,1.62-11.71-4.55-20.48-10-28.22-3.87-5.49-7.52-10.67-7.67-16.14-.05-1.63-.81-15.92-13.58-17.36a2.25,2.25,0,1,1,.5-4.47c13.44,1.51,17.37,14.36,17.58,21.71.11,4.1,3.23,8.54,6.85,13.67,5.63,8,12.63,18,10.77,31.43-1.58,11.4-6.72,21-11.25,29.39-3.82,7.12-7.13,13.28-6.83,18.18.24,4,2.09,8.87,4.05,14,3.38,8.81,7.21,18.79,3.83,28.11-4.27,11.78-11,14.38-17.47,16.9-5.83,2.26-11.33,4.39-15.54,13.73-5.58,12.38-15.06,37.14-15.15,37.39A2.26,2.26,0,0,1,197.91,226.07Z" fill="#1d1d1b"/>
    </g>
    <path d="M193.73,381a2.24,2.24,0,0,1-2.24-2.18c-.06-1.7-4.92-172.65,31.78-371.1a2.25,2.25,0,1,1,4.42.82C191.09,206.51,195.93,377,196,378.68A2.25,2.25,0,0,1,193.8,381Z" fill="#1d1d1b"/>
    <g>
      <path d="M184.32,21.46c-13.72,0-17.13,13.92-17.67,17.67C165,50.91,143.57,60.33,144.1,81.6s14.59,38.27,12.6,49.74-16,25.83-12.6,40c5.28,22,22.37,12.36,29.32,34,4.23,13.14,10.9,39,10.9,39" fill="#4b9442"/>
      <path d="M184.32,246.57a2.24,2.24,0,0,1-2.18-1.69c-.07-.25-6.7-25.93-10.86-38.86-3.13-9.75-8.36-12.49-13.89-15.39-6.17-3.23-12.55-6.57-15.48-18.77-2.3-9.63,2.63-19.12,7-27.49,2.52-4.85,4.9-9.43,5.59-13.42.84-4.83-1.75-11.32-4.75-18.83-3.56-8.89-7.59-19-7.88-30.47-.33-13.59,7.74-22.7,14.24-30,4.16-4.69,7.76-8.75,8.34-12.82,1-7.28,6.38-19.6,19.89-19.6a2.25,2.25,0,0,1,0,4.5c-12.84,0-15.21,14.12-15.44,15.74-.76,5.41-5,10.15-9.43,15.17-6.28,7.08-13.39,15.1-13.1,26.92.27,10.7,4.14,20.38,7.55,28.91,3.26,8.15,6.07,15.18,5,21.28-.81,4.67-3.35,9.55-6,14.72-4.18,8-8.51,16.37-6.59,24.36,2.45,10.21,7.42,12.82,13.19,15.84s12.39,6.49,16.09,18c4.19,13.05,10.86,38.86,10.93,39.12a2.26,2.26,0,0,1-1.62,2.74A2.2,2.2,0,0,1,184.32,246.57Z" fill="#1d1d1b"/>
    </g>
    <g>
      <path d="M184.32,21.46c13.72,0,17.14,13.92,17.67,17.67,1.67,11.78,23.08,21.2,22.55,42.47S210,119.87,212,131.34s16,25.83,12.59,40c-5.28,22-22.37,12.36-29.32,34-4.22,13.14-10.89,39-10.89,39" fill="#4b9442"/>
      <path d="M184.33,246.57a2.22,2.22,0,0,1-.57-.07,2.25,2.25,0,0,1-1.61-2.74c.06-.26,6.73-26.07,10.93-39.12,3.69-11.5,10.28-14.95,16.09-18s10.73-5.63,13.18-15.84c1.92-8-2.41-16.31-6.59-24.36-2.68-5.17-5.22-10-6-14.73-1.06-6.09,1.75-13.12,5-21.27,3.41-8.53,7.29-18.21,7.55-28.91.29-11.83-6.82-19.85-13.1-26.92-4.45-5-8.66-9.76-9.43-15.17-.22-1.62-2.59-15.74-15.44-15.74a2.25,2.25,0,0,1,0-4.5c13.52,0,18.87,12.32,19.9,19.61.58,4.06,4.17,8.12,8.34,12.81,6.49,7.32,14.57,16.43,14.23,30-.29,11.51-4.32,21.58-7.87,30.47-3,7.51-5.6,14-4.75,18.83.69,4,3.07,8.58,5.59,13.43,4.35,8.37,9.27,17.85,7,27.48-2.93,12.2-9.31,15.54-15.48,18.77-5.53,2.9-10.75,5.64-13.89,15.39-4.15,12.93-10.79,38.61-10.86,38.86A2.24,2.24,0,0,1,184.33,246.57Z" fill="#1d1d1b"/>
    </g>
    <path d="M197.57,401a2.26,2.26,0,0,1-2.23-1.93c-.24-1.68-24.26-171-10.08-372.32a2.25,2.25,0,1,1,4.49.31c-14.14,200.84,9.8,369.68,10.05,371.37a2.25,2.25,0,0,1-1.91,2.55Z" fill="#1d1d1b"/>
  </g>
</svg>
