<svg id="icons-outline" xmlns="http://www.w3.org/2000/svg" viewBox="0 0 400 400.99">
  <title>tomato</title>
  <g>
    <polygon points="200 153.15 213.36 126.83 212.97 156.35 237.04 139.25 222.99 165.21 252.24 161.26 227.72 177.72 255.46 187.81 226.12 190.99 245.98 212.82 218.52 201.99 225.97 230.55 206.68 208.21 200 236.95 193.3 208.21 174.03 230.55 181.48 201.99 154.01 212.82 173.89 190.99 144.53 187.81 172.26 177.72 147.75 161.26 177.01 165.21 162.95 139.25 187.01 156.35 186.63 126.83 200 153.15" fill="#1d1d1b"/>
    <g>
      <path d="M221.65,178.38A47.7,47.7,0,0,0,200,183.59a47.9,47.9,0,1,0,0,85.35,47.87,47.87,0,1,0,21.65-90.56Z" fill="#e85e65"/>
      <path d="M221.65,276.41a49.49,49.49,0,0,1-21.65-5,49.63,49.63,0,0,1-21.66,5A50.14,50.14,0,1,1,200,181.08a49.62,49.62,0,0,1,21.65-5,50.14,50.14,0,0,1,0,100.28Zm-21.65-10,1,.52a45.12,45.12,0,0,0,20.63,5,45.64,45.64,0,0,0,0-91.28,45.11,45.11,0,0,0-20.63,5l-1,.51-1-.51a45.65,45.65,0,1,0,0,81.33Z" fill="#1d1d1b"/>
    </g>
  </g>
</svg>
