<svg id="icons-outline" xmlns="http://www.w3.org/2000/svg" viewBox="0 0 400 400.99">
  <title>water</title>
  <g>
    <g>
      <polygon points="264.57 95.75 135.43 95.75 140.81 145.9 259.65 145.9 264.57 95.75" fill="#fff"/>
      <path d="M261.69,148.15H138.79L132.93,93.5H267.05Zm-118.86-4.5H257.61L262.09,98H137.94Z" fill="#1d1e1c"/>
    </g>
    <g>
      <polygon points="244.06 305.24 259.65 145.9 140.81 145.9 157.89 305.24 244.06 305.24" fill="#d1eaf9"/>
      <path d="M246.1,307.49H155.87L138.31,143.65H262.13ZM159.91,303H242l15.15-154.84H143.32Z" fill="#1d1e1c"/>
    </g>
    <path d="M177.54,189.62a14,14,0,1,1,14-14A14,14,0,0,1,177.54,189.62Zm0-23.41a9.46,9.46,0,1,0,9.45,9.45A9.47,9.47,0,0,0,177.54,166.21Z" fill="#1d1e1c"/>
    <path d="M206.77,223.13a12,12,0,1,1,12-12A12,12,0,0,1,206.77,223.13Zm0-19.57a7.54,7.54,0,1,0,7.54,7.54A7.54,7.54,0,0,0,206.77,203.56Z" fill="#1d1e1c"/>
  </g>
</svg>
