<svg id="icons-outline" xmlns="http://www.w3.org/2000/svg" viewBox="0 0 400 400.99">
  <title>yam</title>
  <g>
    <g>
      <path d="M240.09,197.48c-2.57-11.7,5.69-41.13,5.94-49.65,1.07-36.46-46-53.61-46-53.61s-47.1,17.15-46,53.61c.05,2,7.9,40.73,5.94,49.65-2.58,11.7-10.32,27.45-5.94,41.9,6.8,22.46,22.94,17.29,31.9,39.35a250.29,250.29,0,0,0,14.13,28,249.49,249.49,0,0,0,14.14-28c9-22.06,25.09-16.89,31.89-39.35C250.41,224.93,242.67,209.18,240.09,197.48Z" fill="#9a7091"/>
      <path d="M200,309h0a2.26,2.26,0,0,1-1.94-1.1,249.9,249.9,0,0,1-14.27-28.35c-4.11-10.1-9.62-14-15.46-18.16C162,257,155.54,252.33,151.82,240c-3.48-11.49.12-23.3,3.29-33.72,1-3.33,2-6.47,2.6-9.32,1.42-6.46-3-31.71-4.92-42.5-.8-4.54-1-6-1.07-6.61-.46-15.66,7.67-30.3,23.5-42.33a101.31,101.31,0,0,1,24-13.45,2.26,2.26,0,0,1,1.54,0,101.31,101.31,0,0,1,24,13.45c15.83,12,24,26.67,23.5,42.34-.09,3.16-1.18,8.78-2.43,15.29-2.17,11.24-5.14,26.65-3.56,33.81h0c.63,2.85,1.58,6,2.59,9.31,3.18,10.43,6.78,22.24,3.31,33.73C244.46,252.33,238,257,231.67,261.41c-5.83,4.15-11.34,8.06-15.45,18.16a248.47,248.47,0,0,1-14.29,28.35A2.25,2.25,0,0,1,200,309Zm0-212.38c-6,2.4-44.71,19.23-43.78,51.13,0,.45.51,3.12,1,5.95,3.38,19.17,6.3,37.8,4.88,44.25-.66,3-1.64,6.24-2.68,9.66-3,9.81-6.38,20.93-3.29,31.1,3.27,10.82,8.62,14.62,14.81,19,5.82,4.14,12.42,8.82,17,20.14a232.57,232.57,0,0,0,12,24.36,232.34,232.34,0,0,0,12.05-24.36c4.6-11.32,11.2-16,17-20.14,6.19-4.39,11.53-8.19,14.81-19,3.08-10.17-.31-21.3-3.3-31.11-1-3.41-2-6.63-2.69-9.65h0c-1.77-8.07,1.17-23.36,3.54-35.63,1.22-6.32,2.27-11.78,2.35-14.57C244.72,115.87,206,99,200,96.64Z" fill="#1d1d1b"/>
    </g>
    <path d="M198.23,175.87h0c-1.06,0-26.23-.41-44.24-17.28a2.25,2.25,0,1,1,3.07-3.28c16.7,15.64,41,16.05,41.21,16.06a2.25,2.25,0,0,1,0,4.5Z" fill="#1d1d1b"/>
    <path d="M197.06,198.49a2.25,2.25,0,0,1,0-4.5c.24,0,24.5-.41,41.2-16.05a2.25,2.25,0,0,1,3.07,3.29c-18,16.86-43.17,17.26-44.24,17.26Z" fill="#1d1d1b"/>
    <path d="M211.59,218a18.84,18.84,0,0,1-4.34-.42,2.25,2.25,0,0,1,1.09-4.36c.21.05,13.61,3,29.9-12.28a2.25,2.25,0,0,1,3.08,3.28C228.65,216.13,217.46,218,211.59,218Z" fill="#1d1d1b"/>
  </g>
</svg>
