<svg id="integrated" xmlns="http://www.w3.org/2000/svg" viewBox="0 0 188.9 176.7"><title>integrated</title><path id="sun" d="M186.7,74.8a21.3,21.3,0,1,0-39-11.9,21.5,21.5,0,0,0,3.8,12.2" transform="translate(-33.5 -39.7)" fill="none" stroke="#010101" stroke-linecap="round" stroke-miterlimit="10" stroke-width="3.75"/><path id="cloud-right" d="M84.2,98.7h135" transform="translate(-33.5 -39.7)" fill="none" stroke="#010101" stroke-linecap="round" stroke-linejoin="round" stroke-width="3.75"/><path id="cloud-left" d="M48.9,85.5h93.9" transform="translate(-33.5 -39.7)" fill="none" stroke="#010101" stroke-linecap="round" stroke-linejoin="round" stroke-width="3.75"/><path id="mountain-left" d="M36.4,189.5,87.5,63.1,128,167.7" transform="translate(-33.5 -39.7)" fill="none" stroke="#010101" stroke-linecap="round" stroke-linejoin="round" stroke-width="3.75"/><path id="mountain-right" d="M219.4,189.5,169,63.1,128,167.7" transform="translate(-33.5 -39.7)" fill="none" stroke="#010101" stroke-linecap="round" stroke-linejoin="round" stroke-width="3.75"/><path id="trunk-1" d="M66.9,152.3v33.3" transform="translate(-33.5 -39.7)" fill="none" stroke="#010101" stroke-linecap="round" stroke-linejoin="bevel" stroke-width="3.75"/><path id="trunk-2" d="M107.7,152.3v33.3" transform="translate(-33.5 -39.7)" fill="none" stroke="#010101" stroke-linecap="round" stroke-linejoin="bevel" stroke-width="3.75"/><path id="trunk-3" d="M148.7,152.3v33.3" transform="translate(-33.5 -39.7)" fill="none" stroke="#010101" stroke-linecap="round" stroke-linejoin="bevel" stroke-width="3.75"/><path id="trunk-4" d="M189.6,152.3v33.3" transform="translate(-33.5 -39.7)" fill="none" stroke="#010101" stroke-linecap="round" stroke-linejoin="bevel" stroke-width="3.75"/><path id="treecontour-left" d="M67.6,115.2l19.6,52.2,20.5-51" transform="translate(-33.5 -39.7)" fill="none" stroke="#010101" stroke-linecap="round" stroke-linejoin="round" stroke-width="3.75"/><path id="treecontour-right" d="M188.5,115.4l-19.4,52-20.4-52" transform="translate(-33.5 -39.7)" fill="none" stroke="#010101" stroke-linecap="round" stroke-linejoin="round" stroke-width="3.75"/><path id="treebase-left" d="M42.2,176.7H128" transform="translate(-33.5 -39.7)" fill="none" stroke="#010101" stroke-linecap="round" stroke-linejoin="bevel" stroke-width="3.75"/><path id="treebase-right" d="M128,176.7h85.7" transform="translate(-33.5 -39.7)" fill="none" stroke="#010101" stroke-linecap="round" stroke-linejoin="bevel" stroke-width="3.75"/><path id="riverbottom-left" d="M35.4,209.5c11.6,0,11.6,5,23.1,5s11.6-5,23.2-5,11.6,5,23.1,5,11.6-5,23.2-5" transform="translate(-33.5 -39.7)" fill="none" stroke="#010101" stroke-linecap="round" stroke-linejoin="round" stroke-width="3.75"/><path id="riverbottom-right" d="M220.6,209.5c-11.6,0-11.6,5-23.2,5s-11.6-5-23.1-5-11.6,5-23.2,5-11.6-5-23.1-5" transform="translate(-33.5 -39.7)" fill="none" stroke="#010101" stroke-linecap="round" stroke-linejoin="round" stroke-width="3.75"/><path id="rivertop-left" d="M36.5,189.8c11.4,0,11.4,5,22.8,5s11.4-5,22.8-5,11.4,5,22.8,5,11.3-5,22.7-5" transform="translate(-33.5 -39.7)" fill="none" stroke="#010101" stroke-linecap="round" stroke-linejoin="round" stroke-width="3.75"/><path id="rivertop-right" d="M218.8,189.8c-11.4,0-11.4,5-22.8,5s-11.4-5-22.8-5-11.4,5-22.8,5-11.4-5-22.8-5" transform="translate(-33.5 -39.7)" fill="none" stroke="#010101" stroke-linecap="round" stroke-linejoin="round" stroke-width="3.75"/><path id="wave-1" d="M35.4,199.3c7.6,0,10.2,2.1,14.4,3.6" transform="translate(-33.5 -39.7)" fill="none" stroke="#010101" stroke-linecap="round" stroke-linejoin="round" stroke-width="3.75"/><path id="wave-2" d="M82,199.3a27.1,27.1,0,0,1,7.5,1c2.5.7,4.7,2,7.1,2.8a24.5,24.5,0,0,0,7.6,1.1,28,28,0,0,0,7.6-.7" transform="translate(-33.5 -39.7)" fill="none" stroke="#010101" stroke-linecap="round" stroke-linejoin="round" stroke-width="3.75" stroke-dasharray="32.21 32.21"/><path id="wave-3" d="M174,199.3a27.1,27.1,0,0,0-7.5,1c-2.5.7-4.7,2-7.1,2.8a24.5,24.5,0,0,1-7.6,1.1,28,28,0,0,1-7.6-.7" transform="translate(-33.5 -39.7)" fill="none" stroke="#010101" stroke-linecap="round" stroke-linejoin="round" stroke-width="3.75" stroke-dasharray="32.21 32.21"/><path id="wave-4" d="M220.6,199.3c-7.6,0-10.2,2.1-14.4,3.6" transform="translate(-33.5 -39.7)" fill="none" stroke="#010101" stroke-linecap="round" stroke-linejoin="round" stroke-width="3.75"/></svg>