<svg id="icons-outline" xmlns="http://www.w3.org/2000/svg" viewBox="0 0 400 400.99">
  <title>blueberry</title>
  <g>
    <g>
      <path d="M256.66,202.35c0,27.21-25.37,49.27-56.66,49.27s-56.66-22.06-56.66-49.27,25.37-49.26,56.66-49.26S256.66,175.14,256.66,202.35Z" fill="#5583cf"/>
      <path d="M200,253.87c-32.48,0-58.91-23.11-58.91-51.52s26.43-51.51,58.91-51.51,58.91,23.11,58.91,51.51S232.48,253.87,200,253.87Zm0-98.53c-30,0-54.41,21.09-54.41,47s24.41,47,54.41,47,54.41-21.09,54.41-47S230,155.34,200,155.34Z"/>
    </g>
    <g>
      <polygon points="200 149.37 209 162.82 231.16 161.24 217.99 173.09 231.16 184.96 209 183.36 200 196.81 191 183.36 168.84 184.96 182.01 173.09 168.84 161.24 191 162.82 200 149.37" fill="#142d56"/>
      <path d="M200,200.86,189.86,185.7l-27.39,2,16.18-14.58-16.19-14.57,27.4,2L200,145.32l10.14,15.16,27.4-2-16.19,14.57,16.18,14.58-27.39-2ZM192.15,181,200,192.76,207.85,181l16.94,1.21-10.17-9.15L224.78,164l-16.93,1.21L200,153.42l-7.85,11.74L175.22,164l10.16,9.14-10.17,9.15Z"/>
    </g>
  </g>
</svg>
