<svg id="icons-outline" xmlns="http://www.w3.org/2000/svg" viewBox="0 0 400 400.99">
  <title>cashew</title>
  <g>
    <g>
      <path d="M144.49,157c-7.06-7.06-10.25-23.09-2.29-29.12,8.65-6.55,14.42-2.47,18.23-.54,7.68,3.92,17.37-.5,20.24-4.87,7.27-11,4.36-14.7-2.7-21.75l-.05,0c-10.9-10.16-1.87-25.63,6.81-29.89,9-4.38,20.23-4.09,28.52,3.23,21.15,21.15,19.62,53.75-3,73.36-19.47,16.89-44.61,30.64-65.76,9.5Z" fill="#ebe7cc"/>
      <path d="M168.57,170q-13.24,0-24.08-9.92l0,0-1.56-1.47c-5-5-8.07-13.64-7.56-21.1.35-5,2.25-8.93,5.51-11.4,9.07-6.87,15.69-3.36,19.65-1.26.33.18.65.35,1,.5,6.7,3.42,15.15-.77,17.34-4.1,6.33-9.6,4.28-12.21-1.73-18.23l-.67-.6a17,17,0,0,1-5.52-15.56,25.5,25.5,0,0,1,12.87-18c10.53-5.16,22.7-3.76,31,3.57l.1.09a51.67,51.67,0,0,1,15.59,38.58c-.51,14.54-7.14,28.06-18.67,38.07C195.8,163,181.36,170,168.57,170ZM145.16,154.4l1,1c16.15,16.14,36.65,13,62.69-9.61,10.58-9.18,16.66-21.55,17.12-34.83a47.19,47.19,0,0,0-14.22-35.19c-8.4-7.36-18.93-6.3-26-2.85a21,21,0,0,0-10.4,14.61A12.44,12.44,0,0,0,178.41,98l1.15,1.09c7.39,7.38,11.17,12.16,3,24.58-3.42,5.2-14.39,10.1-23.14,5.63l-1-.53c-3.77-2-8-4.27-14.82.87-2.77,2.09-3.56,5.57-3.74,8.12A25.06,25.06,0,0,0,145.16,154.4Z" fill="#1d1e1c"/>
    </g>
    <g>
      <path d="M194.24,182.27c7-7.06,18-7.92,24,0,6.56,8.65-.4,17.82-2.33,21.63-3.92,7.68-1,13.52,3.32,16.4,11,7.26,19.7,9.52,26.75,2.46l0,0c10.17-10.9,25.64-1.87,29.89,6.81,4.4,9,4.09,20.22-3.23,28.53-21.15,21.13-58.74,14.43-78.34-8.15-16.9-19.47-21.12-46.49,0-67.64Z" fill="#ebe7cc"/>
      <path d="M240,273.13l-2,0a64.25,64.25,0,0,1-45.46-21.68c-19.35-22.28-19.85-49.11-1.53-69l0,0,1.66-1.74a20.21,20.21,0,0,1,15.52-6.24A16.12,16.12,0,0,1,220,181c6.6,8.73,1.32,18-1.22,22.38-.35.62-.67,1.16-.9,1.62-4.19,8.22.89,12.42,2.54,13.51,11.06,7.27,17.91,8.26,23.37,3.28l.46-.52a17.13,17.13,0,0,1,15.59-5.51,25.47,25.47,0,0,1,18,12.87c5.16,10.52,3.77,22.69-3.56,31l-.1.11C265.46,268.4,253.4,273.13,240,273.13Zm-43.12-90.27-1,1c-22.13,22.12-13.79,48.61.07,64.57a59.6,59.6,0,0,0,42.22,20.13c12.87.45,24.52-3.82,32.78-12,7.37-8.42,6.31-18.95,2.85-26a21,21,0,0,0-14.58-10.4,12.45,12.45,0,0,0-10.55,3.07l-1.1,1.16c-9.23,9.25-20.66,3.7-29.58-2.17-4.81-3.17-8.77-10.13-4.08-19.31.26-.51.61-1.12,1-1.82,3.21-5.6,6-11.56,1.53-17.42a11.53,11.53,0,0,0-8.59-4.74A15.61,15.61,0,0,0,196.92,182.86Z" fill="#1d1e1c"/>
    </g>
    <g>
      <path d="M202.32,243.53c-7.06-7.05-18-7.91-24,.05-6.54,8.65.4,17.81,2.33,21.63,3.93,7.68-.5,17.37-4.87,20.25-11,7.26-14.7,4.35-21.75-2.71l0-.05c-10.16-10.89-25.63-1.87-29.88,6.81-4.39,9-4.09,20.22,3.22,28.53,21.15,21.14,53.75,19.61,73.36-3,16.9-19.47,22.66-50.35,1.52-71.49Z" fill="#ebe7cc"/>
      <path d="M162.59,335.24a51.78,51.78,0,0,1-36.78-15.61l-.09-.1c-7.32-8.31-8.72-20.48-3.56-31,2.67-5.46,9.69-11.63,18-12.86a17.06,17.06,0,0,1,15.59,5.51l1.16,1.24c5.63,5.57,8.38,7.29,17.67,1.17,3.33-2.19,7.53-10.66,4.11-17.34-.24-.48-.56-1-.91-1.65-2.54-4.43-7.81-13.65-1.22-22.37a16.15,16.15,0,0,1,11.87-6.51,20.3,20.3,0,0,1,15.53,6.23l1.58,1.58-.08.08A47.6,47.6,0,0,1,218,280.11c-.91,12.81-6.59,26.09-15.57,36.44-10,11.52-23.53,18.15-38.07,18.66Q163.49,335.24,162.59,335.24ZM129.05,316.5a47.18,47.18,0,0,0,35.18,14.21c13.28-.46,25.65-6.54,34.83-17.11,16.18-18.64,21.93-48.13,1.62-68.43l-1.08-1.08a15.65,15.65,0,0,0-10.91-3.89,11.53,11.53,0,0,0-8.59,4.74c-4.43,5.86-1.67,11.82,1.53,17.42.4.7.75,1.31,1,1.84a18,18,0,0,1,.82,13.6c-1.27,4.1-3.75,7.75-6.46,9.54-12.42,8.17-17.2,4.39-24.58-3L151,283h0a12.45,12.45,0,0,0-10.28-2.83A20.9,20.9,0,0,0,126.2,290.5C122.74,297.56,121.68,308.09,129.05,316.5Z" fill="#1d1e1c"/>
    </g>
  </g>
</svg>
