<svg id="icons-outline" xmlns="http://www.w3.org/2000/svg" viewBox="0 0 400 400.99">
  <title>chocolate</title>
  <g>
    <g>
      <rect x="147" y="92.94" width="86.92" height="216.04" fill="#ee9bc1"/>
      <path d="M236.17,311.23H144.75V90.69h91.42Zm-86.92-4.5h82.42V95.19H149.25Z" fill="#1d1d1b"/>
    </g>
    <rect x="147" y="256.88" width="86.92" height="4.5" fill="#1d1d1b"/>
    <g>
      <polygon points="147 259.13 253 288.13 233.92 259.13 147 259.13" fill="#cdcdcd"/>
      <path d="M253,290.38a2.47,2.47,0,0,1-.6-.08l-106-29a2.25,2.25,0,0,1,.59-4.42h86.92a2.25,2.25,0,0,1,1.88,1l19.08,29a2.26,2.26,0,0,1-.06,2.56A2.23,2.23,0,0,1,253,290.38Zm-89.25-29,84.09,23-15.13-23Z" fill="#1d1d1b"/>
    </g>
    <g>
      <rect x="204.95" y="92.01" width="28.97" height="41.44" fill="#8a7056"/>
      <path d="M236.17,135.7H202.71V89.76h33.46Zm-29-4.5h24.46V94.26H207.21Z" fill="#1d1d1b"/>
    </g>
    <g>
      <rect x="175.98" y="92.01" width="28.98" height="41.44" fill="#8a7056"/>
      <path d="M207.21,135.7H173.73V89.76h33.48Zm-29-4.5h24.48V94.26H178.23Z" fill="#1d1d1b"/>
    </g>
    <g>
      <rect x="147" y="92.01" width="28.97" height="41.44" fill="#8a7056"/>
      <path d="M178.23,135.7H144.75V89.76h33.48Zm-29-4.5h24.48V94.26H149.25Z" fill="#1d1d1b"/>
    </g>
    <g>
      <rect x="204.95" y="133.45" width="28.97" height="41.43" fill="#8a7056"/>
      <path d="M236.17,177.14H202.71V131.2h33.46Zm-29-4.5h24.46V135.7H207.21Z" fill="#1d1d1b"/>
    </g>
    <g>
      <rect x="175.98" y="133.45" width="28.98" height="41.43" fill="#8a7056"/>
      <path d="M207.21,177.14H173.73V131.2h33.48Zm-29-4.5h24.48V135.7H178.23Z" fill="#1d1d1b"/>
    </g>
    <g>
      <rect x="147" y="133.45" width="28.97" height="41.43" fill="#8a7056"/>
      <path d="M178.23,177.14H144.75V131.2h33.48Zm-29-4.5h24.48V135.7H149.25Z" fill="#1d1d1b"/>
    </g>
    <g>
      <rect x="204.95" y="174.89" width="28.97" height="41.45" fill="#8a7056"/>
      <path d="M236.17,218.59H202.71v-46h33.46Zm-29-4.5h24.46v-37H207.21Z" fill="#1d1d1b"/>
    </g>
    <g>
      <rect x="175.98" y="174.89" width="28.98" height="41.45" fill="#8a7056"/>
      <path d="M207.21,218.59H173.73v-46h33.48Zm-29-4.5h24.48v-37H178.23Z" fill="#1d1d1b"/>
    </g>
    <g>
      <rect x="147" y="174.89" width="28.97" height="41.45" fill="#8a7056"/>
      <path d="M178.23,218.59H144.75v-46h33.48Zm-29-4.5h24.48v-37H149.25Z" fill="#1d1d1b"/>
    </g>
    <g>
      <rect x="204.95" y="216.34" width="28.97" height="41.44" fill="#8a7056"/>
      <path d="M236.17,260H202.71V214.09h33.46Zm-29-4.5h24.46V218.59H207.21Z" fill="#1d1d1b"/>
    </g>
    <g>
      <rect x="175.98" y="216.34" width="28.98" height="41.44" fill="#8a7056"/>
      <path d="M207.21,260H173.73V214.09h33.48Zm-29-4.5h24.48V218.59H178.23Z" fill="#1d1d1b"/>
    </g>
    <g>
      <rect x="147" y="216.34" width="28.97" height="41.44" fill="#8a7056"/>
      <path d="M178.23,260H144.75V214.09h33.48Zm-29-4.5h24.48V218.59H149.25Z" fill="#1d1d1b"/>
    </g>
  </g>
</svg>
