<svg id="icons-outline" xmlns="http://www.w3.org/2000/svg" viewBox="0 0 400 400.99">
  <title>egg</title>
  <g>
    <g>
      <path d="M254,213.69a54,54,0,1,1-107.94,0c0-29.8,24.16-80.37,54-80.37S254,183.89,254,213.69Z" fill="#fff"/>
      <path d="M200,269.92a56.29,56.29,0,0,1-56.22-56.23c0-15.48,6.33-36.1,16.12-52.51,11.59-19.41,25.83-30.11,40.1-30.11s28.51,10.7,40.1,30.11c9.79,16.41,16.12,37,16.12,52.51A56.29,56.29,0,0,1,200,269.92Zm0-134.35c-7.31,0-21.74,3.63-36.23,27.91-9.41,15.77-15.49,35.48-15.49,50.21a51.72,51.72,0,1,0,103.44,0c0-14.73-6.08-34.44-15.49-50.21C221.74,139.2,207.31,135.57,200,135.57Z" fill="#1d1d1b"/>
    </g>
    <g>
      <path d="M228.62,211.64A28.62,28.62,0,1,1,200,183,28.62,28.62,0,0,1,228.62,211.64Z" fill="#f59a00"/>
      <path d="M200,242.51a30.87,30.87,0,1,1,30.87-30.87A30.9,30.9,0,0,1,200,242.51Zm0-57.24a26.37,26.37,0,1,0,26.37,26.37A26.4,26.4,0,0,0,200,185.27Z"/>
    </g>
  </g>
</svg>
