<svg id="icons-outline" xmlns="http://www.w3.org/2000/svg" viewBox="0 0 400 400.99">
  <title>fish</title>
  <g>
    <g>
      <path d="M154,100.3H122a119.25,119.25,0,0,0-6.44,37.79c0,42.51,25.53,80.6,48.51,106.28l9.67-11.17c-11.88-25.06-23.32-58.79-23.32-95.93A195.3,195.3,0,0,1,154,100.3Z" fill="#959f8b"/>
      <path d="M164,246.62a2.24,2.24,0,0,1-1.67-.74c-22.4-25-49.09-64-49.09-107.79a121.53,121.53,0,0,1,6.56-38.51A2.24,2.24,0,0,1,122,98.05H154a2.26,2.26,0,0,1,2.21,2.67,193.33,193.33,0,0,0-3.61,36.55c0,30.7,7.78,62.65,23.11,95a2.25,2.25,0,0,1-.33,2.43l-9.67,11.18a2.24,2.24,0,0,1-1.69.77ZM123.6,102.55a116.64,116.64,0,0,0-5.82,35.54c0,41.23,24.74,78.38,46.24,102.87l7-8.12c-15.2-32.47-22.91-64.62-22.91-95.57a196.71,196.71,0,0,1,3.19-34.72Z" fill="#1d1d1b"/>
    </g>
    <g>
      <path d="M249.62,137.27c0,37.17-11.46,70.92-23.36,96l9.66,11.17c23-25.69,48.55-63.8,48.55-106.34A119.24,119.24,0,0,0,278,100.3H246A196.13,196.13,0,0,1,249.62,137.27Z" fill="#959f8b"/>
      <path d="M235.92,246.68h0a2.21,2.21,0,0,1-1.68-.78l-9.66-11.16a2.25,2.25,0,0,1-.34-2.44c15.36-32.34,23.15-64.31,23.15-95a194.72,194.72,0,0,0-3.61-36.55A2.23,2.23,0,0,1,246,98.05H278a2.26,2.26,0,0,1,2.13,1.53,121.65,121.65,0,0,1,6.55,38.51c0,43.79-26.71,82.82-49.12,107.84A2.25,2.25,0,0,1,235.92,246.68Zm-7-13.78,7,8.12c21.52-24.49,46.28-61.65,46.28-102.93a116.52,116.52,0,0,0-5.81-35.54H248.68a198.18,198.18,0,0,1,3.19,34.72C251.87,168.24,244.15,200.41,228.92,232.9Z" fill="#1d1d1b"/>
    </g>
    <g>
      <path d="M208.07,265.82a279.17,279.17,0,0,0,18.19-32.56c11.9-25.07,23.36-58.82,23.36-96a196.13,196.13,0,0,0-3.65-37H154a195.3,195.3,0,0,0-3.65,37c0,37.14,11.44,70.87,23.32,95.93a280.48,280.48,0,0,0,17.79,31.94c-6.15,4.55-14.63,11.53-20.51,19.22-10.22,13.37-15.66,34.44-15.66,34.44h88s-5.45-21.07-15.66-34.44C222.07,277.05,214.13,270.38,208.07,265.82Z" fill="#ced0c8"/>
      <path d="M243.33,321.05h-88a2.25,2.25,0,0,1-2.18-2.81c.23-.88,5.67-21.67,16-35.25,5.51-7.21,13.24-13.8,19.28-18.4a279.28,279.28,0,0,1-16.8-30.42c-15.62-32.93-23.54-65.53-23.54-96.9a198.11,198.11,0,0,1,3.69-37.4A2.24,2.24,0,0,1,154,98.05H246a2.24,2.24,0,0,1,2.21,1.82,198.75,198.75,0,0,1,3.69,37.4c0,31.39-7.94,64-23.58,97a283,283,0,0,1-17.2,31.06c5.74,4.44,13.06,10.78,18.36,17.7,10.38,13.58,15.83,34.37,16.06,35.25a2.25,2.25,0,0,1-2.18,2.81Zm-85-4.5h82c-1.85-6.11-6.82-20.82-14.46-30.83-5.52-7.2-13.46-13.82-19.16-18.1a2.25,2.25,0,0,1-.53-3,279.25,279.25,0,0,0,18-32.29c15.36-32.34,23.15-64.31,23.15-95a193.08,193.08,0,0,0-3.27-34.72H155.9a193.37,193.37,0,0,0-3.26,34.72c0,30.7,7.78,62.65,23.11,95a276.75,276.75,0,0,0,17.64,31.67,2.25,2.25,0,0,1-.55,3c-6,4.43-14.34,11.29-20.06,18.77C165.12,295.75,160.15,310.45,158.31,316.55Z" fill="#1d1d1b"/>
    </g>
    <g>
      <path d="M200,118.42c-23.63,0-42.79-18.12-42.79-18.12S176.37,82.19,200,82.19s42.79,18.11,42.79,18.11S223.64,118.42,200,118.42Z" fill="#f0b0ce"/>
      <path d="M200,120.67c-24.25,0-43.53-18-44.34-18.74l-1.73-1.63,1.73-1.64c.81-.76,20.09-18.72,44.34-18.72s43.53,18,44.34,18.72l1.73,1.64-1.73,1.63C243.53,102.7,224.25,120.67,200,120.67ZM160.65,100.3c5.3,4.35,21.06,15.87,39.35,15.87s34.05-11.52,39.35-15.87C234.05,96,218.29,84.44,200,84.44S165.94,96,160.65,100.3Z" fill="#1d1d1b"/>
    </g>
    <path d="M208,100.87a8.61,8.61,0,1,1-8.61-8.61A8.62,8.62,0,0,1,208,100.87Z" fill="#1d1e1c"/>
    <g>
      <line x1="249.06" y1="123.05" x2="284.3" y2="143.94" fill="#d38c64"/>
      <path d="M284.3,146.19a2.25,2.25,0,0,1-1.14-.31L247.91,125a2.25,2.25,0,1,1,2.29-3.87L285.45,142a2.25,2.25,0,0,1-1.15,4.18Z" fill="#1d1d1b"/>
    </g>
    <g>
      <line x1="248.21" y1="160.03" x2="273.42" y2="180.51" fill="#d38c64"/>
      <path d="M273.42,182.76a2.24,2.24,0,0,1-1.42-.5l-25.21-20.49a2.25,2.25,0,1,1,2.84-3.49l25.21,20.49a2.25,2.25,0,0,1-1.42,4Z" fill="#1d1d1b"/>
    </g>
    <g>
      <line x1="241.56" y1="192.79" x2="255.37" y2="216.96" fill="#d38c64"/>
      <path d="M255.37,219.22a2.23,2.23,0,0,1-2-1.14l-13.81-24.17a2.25,2.25,0,1,1,3.91-2.23l13.81,24.17a2.26,2.26,0,0,1-2,3.37Z" fill="#1d1d1b"/>
    </g>
    <g>
      <line x1="149.9" y1="120.46" x2="119.3" y2="141.35" fill="#d38c64"/>
      <path d="M119.3,143.6a2.25,2.25,0,0,1-1.27-4.11l30.6-20.89a2.25,2.25,0,0,1,2.54,3.72l-30.6,20.89A2.28,2.28,0,0,1,119.3,143.6Z" fill="#1d1d1b"/>
    </g>
    <g>
      <line x1="150.75" y1="157.44" x2="125.53" y2="177.92" fill="#d38c64"/>
      <path d="M125.53,180.17a2.25,2.25,0,0,1-1.42-4l25.22-20.47a2.25,2.25,0,1,1,2.84,3.49L127,179.67A2.24,2.24,0,0,1,125.53,180.17Z" fill="#1d1d1b"/>
    </g>
    <g>
      <line x1="157.39" y1="190.2" x2="143.59" y2="214.37" fill="#d38c64"/>
      <path d="M143.58,216.62a2.22,2.22,0,0,1-1.11-.29,2.25,2.25,0,0,1-.84-3.07l13.81-24.17a2.25,2.25,0,1,1,3.9,2.23l-13.8,24.17A2.25,2.25,0,0,1,143.58,216.62Z" fill="#1d1d1b"/>
    </g>
  </g>
</svg>
