<svg xmlns="http://www.w3.org/2000/svg" viewBox="0 0 214.19 216.09"><title>biodynamicfarming-icon</title><g id="integrated"><path id="sun" d="M165.82,55.84a21.33,21.33,0,1,0-35.19.27" style="fill:none;stroke:#010101;stroke-linecap:round;stroke-miterlimit:10;stroke-width:3.75px"/><path id="cloud-right" d="M198.32,77.75h-135" style="fill:none;stroke:#010101;stroke-linecap:round;stroke-linejoin:round;stroke-width:3.75px"/><path id="cloud-left" d="M28,64.57H121.9" style="fill:none;stroke:#010101;stroke-linecap:round;stroke-linejoin:round;stroke-width:3.75px"/><path id="trunk-1" d="M46,164.61V131.32" style="fill:none;stroke:#010101;stroke-linecap:round;stroke-linejoin:bevel;stroke-width:3.75px"/><path id="trunk-2" d="M86.83,164.61V131.32" style="fill:none;stroke:#010101;stroke-linecap:round;stroke-linejoin:bevel;stroke-width:3.75px"/><path id="trunk-3" d="M127.8,164.61V131.32" style="fill:none;stroke:#010101;stroke-linecap:round;stroke-linejoin:bevel;stroke-width:3.75px"/><path id="trunk-4" d="M168.7,164.61V131.32" style="fill:none;stroke:#010101;stroke-linecap:round;stroke-linejoin:bevel;stroke-width:3.75px"/><path id="treebase-left" d="M21.25,155.75h85.84" style="fill:none;stroke:#010101;stroke-linecap:round;stroke-linejoin:bevel;stroke-width:3.75px"/><path id="treebase-right" d="M192.78,155.75H107.09" style="fill:none;stroke:#010101;stroke-linecap:round;stroke-linejoin:bevel;stroke-width:3.75px"/><path id="riverbottom-left" d="M14.5,188.51c11.57,0,11.57,5,23.14,5s11.57-5,23.14-5,11.57,5,23.14,5,11.57-5,23.14-5" style="fill:none;stroke:#010101;stroke-linecap:round;stroke-linejoin:round;stroke-width:3.75px"/><path id="riverbottom-right" d="M199.68,188.51c-11.58,0-11.58,5-23.16,5s-11.58-5-23.16-5-11.57,5-23.14,5-11.58-5-23.16-5" style="fill:none;stroke:#010101;stroke-linecap:round;stroke-linejoin:round;stroke-width:3.75px"/><path id="rivertop-left" d="M15.64,168.82c11.38,0,11.38,5,22.77,5s11.38-5,22.77-5,11.39,5,22.77,5,11.39-5,22.78-5" style="fill:none;stroke:#010101;stroke-linecap:round;stroke-linejoin:round;stroke-width:3.75px"/><path id="rivertop-right" d="M197.88,168.82c-11.39,0-11.39,5-22.79,5s-11.4-5-22.8-5-11.38,5-22.77,5-11.4-5-22.79-5" style="fill:none;stroke:#010101;stroke-linecap:round;stroke-linejoin:round;stroke-width:3.75px"/><path id="wave-1" d="M14.5,178.3c7.61,0,10.22,2.16,14.4,3.64" style="fill:none;stroke:#010101;stroke-linecap:round;stroke-linejoin:round;stroke-width:3.75px"/><path id="wave-2" d="M61.05,178.3a26,26,0,0,1,7.55,1.06c2.45.73,4.7,2,7.13,2.77a25.94,25.94,0,0,0,7.53,1.15,27.68,27.68,0,0,0,7.59-.78" style="fill:none;stroke:#010101;stroke-linecap:round;stroke-linejoin:round;stroke-width:3.75px;stroke-dasharray:32.210750579833984,32.210750579833984"/><path id="wave-3" d="M153.13,178.3a26,26,0,0,0-7.55,1c-2.45.73-4.71,2-7.13,2.77a25.68,25.68,0,0,1-7.53,1.17,27.29,27.29,0,0,1-7.59-.77" style="fill:none;stroke:#010101;stroke-linecap:round;stroke-linejoin:round;stroke-width:3.75px;stroke-dasharray:32.210750579833984,32.210750579833984"/><path id="wave-4" d="M199.68,178.3c-7.61,0-10.22,2.16-14.4,3.64" style="fill:none;stroke:#010101;stroke-linecap:round;stroke-linejoin:round;stroke-width:3.75px"/><path id="tree-right" d="M198.53,168.58l-30.28-75.9h0L148.2,146.43,127.8,93.9l-20.71,52.8" style="fill:none;stroke:#010101;stroke-linecap:round;stroke-linejoin:round;stroke-width:3.75px"/><path id="tree-left" d="M15.51,168.58,46.12,92.8l20.2,53.67L87,94.82l20.1,51.88" style="fill:none;stroke:#231f20;stroke-linecap:round;stroke-linejoin:round;stroke-width:3.75px"/><path id="mountain-right" d="M168.25,92.68,148.09,42.14,127.8,93.9" style="fill:none;stroke:#010101;stroke-linecap:round;stroke-linejoin:round;stroke-width:3.75px"/><path id="mountain-left" d="M46.15,92.72,66.58,42.14,86.66,94" style="fill:none;stroke:#010101;stroke-linecap:round;stroke-linejoin:round;stroke-width:3.75px"/></g><g id="herbal-spray"><path d="M89,28.73V93.56C65.52,102.1,52,121.44,52,144a55.08,55.08,0,1,0,110.15,0c0-22.65-13.68-42.1-37.32-50.56V28.73" style="fill:#fff;stroke:#010101;stroke-miterlimit:10;stroke-width:3.75px"/><path d="M111.88,175.43c-3.58,5.51-18.1,10.35-18.1,10.35S92,170.35,95.6,164.85s17.54-9.29,17.54-9.29S115.46,169.93,111.88,175.43Z" style="fill:#fff;stroke:#010101;stroke-linecap:round;stroke-linejoin:round;stroke-width:3.75px"/><path d="M97.46,140.19C101,145.72,99.39,161,99.39,161s-14.77-4.78-18.3-10.32-1.2-19.81-1.2-19.81S93.93,134.66,97.46,140.19Z" style="fill:#fff;stroke:#010101;stroke-linecap:round;stroke-linejoin:round;stroke-width:3.75px"/><line x1="99.39" y1="160.95" x2="89.44" y2="145.89" style="fill:none;stroke:#010101;stroke-linecap:round;stroke-linejoin:round;stroke-width:3.75px"/><line x1="93.78" y1="185.78" x2="103.61" y2="170.67" style="fill:none;stroke:#010101;stroke-linecap:round;stroke-linejoin:round;stroke-width:3.75px"/><path d="M134.55,131.11c-2.19,6.19-15.17,14.31-15.17,14.31s-5.33-14.58-3.14-20.77S131.1,111.5,131.1,111.5,136.73,124.92,134.55,131.11Z" style="fill:#fff;stroke:#010101;stroke-linecap:round;stroke-linejoin:round;stroke-width:3.75px"/><line x1="119.38" y1="145.42" x2="125.38" y2="130.51" style="fill:none;stroke:#010101;stroke-linecap:round;stroke-linejoin:round;stroke-width:3.75px"/><path d="M59.53,120.54c16.51,0,16.51,5,33,5s16.52-5,33-5,16.52,5,33,5" style="fill:none;stroke:#010101;stroke-linecap:square;stroke-linejoin:round;stroke-width:3.75px"/><line x1="86.41" y1="17.06" x2="115.32" y2="17.06" style="fill:none;stroke:#010101;stroke-linecap:round;stroke-miterlimit:10;stroke-width:3.75px"/><path d="M86.8,28.73a5.84,5.84,0,0,1,0-11.67" style="fill:none;stroke:#010101;stroke-linecap:round;stroke-miterlimit:10;stroke-width:3.75px"/><line x1="87.39" y1="28.73" x2="126.81" y2="28.73" style="fill:none;stroke:#010101;stroke-linecap:round;stroke-miterlimit:10;stroke-width:3.75px"/><path d="M127.38,28.73a5.84,5.84,0,1,0,0-11.67" style="fill:none;stroke:#010101;stroke-linecap:round;stroke-miterlimit:10;stroke-width:3.75px"/><line x1="127.47" y1="17.06" x2="98.57" y2="17.06" style="fill:none;stroke:#010101;stroke-linecap:round;stroke-miterlimit:10;stroke-width:3.75px"/></g><g id="prey-predator"><path d="M172.83,137.35c0,39.69-29.43,58.56-65.73,58.56S41.36,177,41.36,137.35,107.1,20.18,107.1,20.18,172.83,97.66,172.83,137.35Z" style="fill:none;stroke:#010101;stroke-miterlimit:10;stroke-width:3.75px"/><line x1="155.73" y1="86.88" x2="106.02" y2="124.5" style="fill:none;stroke:#010101;stroke-miterlimit:10;stroke-width:3.75px"/><line x1="58.96" y1="86.88" x2="108.66" y2="124.5" style="fill:none;stroke:#010101;stroke-miterlimit:10;stroke-width:3.75px"/><line x1="51.03" y1="103.8" x2="107.56" y2="145.78" style="fill:none;stroke:#010101;stroke-miterlimit:10;stroke-width:3.75px"/><line x1="43.77" y1="120.18" x2="108.47" y2="170.33" style="fill:none;stroke:#010101;stroke-miterlimit:10;stroke-width:3.75px"/><line x1="41.4" y1="141.38" x2="108.43" y2="193.34" style="fill:none;stroke:#010101;stroke-miterlimit:10;stroke-width:3.75px"/><line x1="106.94" y1="20.18" x2="106.94" y2="195.91" style="fill:none;stroke:#010101;stroke-miterlimit:10;stroke-width:3.75px"/><line x1="89.54" y1="42.42" x2="106.83" y2="56.41" style="fill:none;stroke:#010101;stroke-miterlimit:10;stroke-width:3.75px"/><line x1="79.3" y1="58.66" x2="106.84" y2="79.05" style="fill:none;stroke:#010101;stroke-miterlimit:10;stroke-width:3.75px"/><line x1="67.14" y1="71.63" x2="106.54" y2="101.67" style="fill:none;stroke:#010101;stroke-miterlimit:10;stroke-width:3.75px"/><line x1="124.27" y1="42.42" x2="106.98" y2="56.41" style="fill:none;stroke:#010101;stroke-miterlimit:10;stroke-width:3.75px"/><line x1="135.39" y1="58.66" x2="107.85" y2="79.05" style="fill:none;stroke:#010101;stroke-miterlimit:10;stroke-width:3.75px"/><line x1="145.24" y1="71.63" x2="105.84" y2="101.67" style="fill:none;stroke:#010101;stroke-miterlimit:10;stroke-width:3.75px"/><line x1="163.45" y1="103.35" x2="107.33" y2="145.02" style="fill:none;stroke:#010101;stroke-miterlimit:10;stroke-width:3.75px"/><line x1="170.92" y1="120.18" x2="106.22" y2="170.33" style="fill:none;stroke:#010101;stroke-miterlimit:10;stroke-width:3.75px"/><line x1="147.56" y1="161.33" x2="106.25" y2="193.35" style="fill:none;stroke:#010101;stroke-miterlimit:10;stroke-width:3.75px"/><line x1="172.79" y1="141.76" x2="147.56" y2="161.33" style="fill:none;stroke:#010101;stroke-miterlimit:10;stroke-width:3.75px"/><path d="M146.53,153.46c0,22.48-17.94,40.7-40.07,40.7s-40.07-18.22-40.07-40.7,17.94-40.69,40.07-40.69S146.53,131,146.53,153.46Z" style="fill:#fff"/><path d="M111,118.59l-9,70a35.3,35.3,0,1,1,9-70Z" style="fill:#010101"/><path d="M98.55,135a5.63,5.63,0,1,1-5.63-5.63A5.64,5.64,0,0,1,98.55,135Z" style="fill:#fff"/><path d="M96.68,171.55a5.63,5.63,0,1,1-5.63-5.63A5.63,5.63,0,0,1,96.68,171.55Z" style="fill:#fff"/><path d="M91.56,153.29a7.72,7.72,0,1,1-7.72-7.72A7.72,7.72,0,0,1,91.56,153.29Z" style="fill:#fff"/><path d="M101.42,118.59l9,70a35.3,35.3,0,0,0-9-70Z" style="fill:#010101"/><path d="M113.84,135a5.63,5.63,0,1,0,5.63-5.63A5.63,5.63,0,0,0,113.84,135Z" style="fill:#fff"/><path d="M115.71,171.55a5.63,5.63,0,1,0,5.62-5.63A5.63,5.63,0,0,0,115.71,171.55Z" style="fill:#fff"/><path d="M120.83,153.29a7.72,7.72,0,1,0,7.72-7.72A7.72,7.72,0,0,0,120.83,153.29Z" style="fill:#fff"/><rect x="104.59" y="105.54" width="5" height="5" style="fill:#010101"/></g><g id="moon-phase"><path d="M42,112.17A16.77,16.77,0,1,1,25.19,95.4,16.77,16.77,0,0,1,42,112.17Z" style="fill:#fff;stroke:#010101;stroke-miterlimit:10;stroke-width:3.75px"/><path d="M122.11,35a16.77,16.77,0,1,1-16.77-16.76A16.76,16.76,0,0,1,122.11,35Z" style="fill:#fff;stroke:#010101;stroke-miterlimit:10;stroke-width:3.75px"/><path d="M105.34,18.19V51.71a16.76,16.76,0,1,0,0-33.52Z" style="fill:#010101"/><path d="M177.85,58.75A16.76,16.76,0,1,1,161.09,42,16.75,16.75,0,0,1,177.85,58.75Z" style="fill:#010101;stroke:#010101;stroke-miterlimit:10;stroke-width:3.75px"/><path d="M155.83,58.75a20.07,20.07,0,0,1,8.54-16.44,16.15,16.15,0,0,0-3.28-.33,16.76,16.76,0,1,0,3.28,33.2A20.08,20.08,0,0,1,155.83,58.75Z" style="fill:#fff;stroke:#010101;stroke-miterlimit:10;stroke-width:3.75px"/><path d="M33.76,58.74A16.76,16.76,0,1,0,50.52,42,16.76,16.76,0,0,0,33.76,58.74Z" style="fill:#fff;stroke:#010101;stroke-miterlimit:10;stroke-width:3.75px"/><path d="M55.78,58.74a20,20,0,0,0-8.55-16.43A16.32,16.32,0,0,1,50.52,42a16.76,16.76,0,0,1,0,33.52,17.07,17.07,0,0,1-3.29-.32A20.06,20.06,0,0,0,55.78,58.74Z" style="fill:#010101;stroke:#010101;stroke-miterlimit:10;stroke-width:3.75px"/><path d="M205.76,112.17A16.77,16.77,0,1,1,189,95.4,16.77,16.77,0,0,1,205.76,112.17Z" style="fill:#010101;stroke:#010101;stroke-miterlimit:10;stroke-width:3.75px"/><path d="M68.38,112.29a5.84,5.84,0,1,1,0-11.67" style="fill:none;stroke:#010101;stroke-miterlimit:10;stroke-width:3.75px"/><path d="M114.28,174.06a5.63,5.63,0,1,1-5.63-5.63A5.63,5.63,0,0,1,114.28,174.06Z" style="fill:#010101;stroke:#010101;stroke-miterlimit:10;stroke-width:2.5px"/><path d="M122.48,146.81a5.85,5.85,0,1,1-5.85-5.84A5.84,5.84,0,0,1,122.48,146.81Z" style="fill:#010101;stroke:#010101;stroke-miterlimit:10;stroke-width:2.5px"/><path d="M134.42,163.22a5.84,5.84,0,1,1-5.84-5.84A5.83,5.83,0,0,1,134.42,163.22Z" style="fill:#010101;stroke:#010101;stroke-miterlimit:10;stroke-width:2.5px"/><path d="M123,192.05a5.84,5.84,0,1,1-5.84-5.84A5.84,5.84,0,0,1,123,192.05Z" style="fill:#010101;stroke:#010101;stroke-miterlimit:10;stroke-width:2.5px"/><path d="M130.44,90.83h-39c0,10.33,5.23,12.53,11.7,12.53" style="fill:none;stroke:#010101;stroke-linejoin:round;stroke-width:3.75px"/><path d="M130.5,114a10.66,10.66,0,0,1-10.67-10.68H101.75" style="fill:none;stroke:#010101;stroke-linecap:round;stroke-linejoin:round;stroke-width:3.75px"/><line x1="67.76" y1="100.62" x2="94.51" y2="100.62" style="fill:none;stroke:#010101;stroke-miterlimit:10;stroke-width:3.75px"/><line x1="69.75" y1="112.29" x2="102.29" y2="112.29" style="fill:none;stroke:#010101;stroke-linecap:round;stroke-miterlimit:10;stroke-width:3.75px"/><path d="M65.92,124a5.84,5.84,0,1,1,0-11.67" style="fill:none;stroke:#010101;stroke-miterlimit:10;stroke-width:3.75px"/><line x1="65.92" y1="112.29" x2="94.82" y2="112.29" style="fill:none;stroke:#010101;stroke-miterlimit:10;stroke-width:3.75px"/><line x1="65.92" y1="123.96" x2="102.29" y2="123.96" style="fill:none;stroke:#010101;stroke-linecap:round;stroke-miterlimit:10;stroke-width:3.75px"/><path d="M68.38,135.63a5.84,5.84,0,1,1,0-11.67" style="fill:none;stroke:#010101;stroke-linecap:round;stroke-miterlimit:10;stroke-width:3.75px"/><line x1="73.29" y1="123.96" x2="102.2" y2="123.96" style="fill:none;stroke:#010101;stroke-linecap:round;stroke-miterlimit:10;stroke-width:3.75px"/><path d="M81.58,147.29a5.83,5.83,0,1,1,0-11.66" style="fill:none;stroke:#010101;stroke-miterlimit:10;stroke-width:3.75px"/><line x1="68.92" y1="135.63" x2="101.83" y2="135.63" style="fill:none;stroke:#010101;stroke-linecap:round;stroke-miterlimit:10;stroke-width:3.75px"/><line x1="80.37" y1="147.29" x2="130.5" y2="147.29" style="fill:none;stroke:#010101;stroke-miterlimit:10;stroke-width:3.75px"/><path d="M151,134.05a22.57,22.57,0,0,1-20.58,13.24" style="fill:none;stroke:#010101;stroke-linecap:round;stroke-miterlimit:10;stroke-width:3.75px"/><path d="M152.39,108.05a22.57,22.57,0,0,0-21.95-17.22" style="fill:none;stroke:#010101;stroke-linecap:round;stroke-miterlimit:10;stroke-width:3.75px"/></g><g id="land"><line x1="101.13" y1="129.05" x2="101.13" y2="93.66" style="fill:none;stroke:#010101;stroke-linecap:round;stroke-linejoin:round;stroke-width:3.75px"/><path d="M113.65,78.84a12.52,12.52,0,1,1-12.52-12.52A12.52,12.52,0,0,1,113.65,78.84Z" style="fill:none;stroke:#010101;stroke-linecap:round;stroke-linejoin:round;stroke-width:3.75px"/><path d="M109,99.77a7.86,7.86,0,1,1-7.86-7.86A7.86,7.86,0,0,1,109,99.77Z" style="fill:#fff;stroke:#010101;stroke-miterlimit:10;stroke-width:3.75px"/><path d="M109,58.46a7.86,7.86,0,1,1-7.86-7.86A7.86,7.86,0,0,1,109,58.46Z" style="fill:#fff;stroke:#010101;stroke-miterlimit:10;stroke-width:3.75px"/><path d="M121.29,88.16a7.86,7.86,0,1,1-11.11,0A7.85,7.85,0,0,1,121.29,88.16Z" style="fill:#fff;stroke:#010101;stroke-miterlimit:10;stroke-width:3.75px"/><path d="M92.08,59A7.86,7.86,0,1,1,81,59,7.86,7.86,0,0,1,92.08,59Z" style="fill:#fff;stroke:#010101;stroke-miterlimit:10;stroke-width:3.75px"/><path d="M121.78,71.25a7.86,7.86,0,1,1-7.85,7.86A7.87,7.87,0,0,1,121.78,71.25Z" style="fill:#fff;stroke:#010101;stroke-miterlimit:10;stroke-width:3.75px"/><path d="M80.47,71.25a7.86,7.86,0,1,1-7.85,7.86A7.88,7.88,0,0,1,80.47,71.25Z" style="fill:#fff;stroke:#010101;stroke-miterlimit:10;stroke-width:3.75px"/><path d="M110.17,59a7.86,7.86,0,1,1,0,11.12A7.86,7.86,0,0,1,110.17,59Z" style="fill:#fff;stroke:#010101;stroke-miterlimit:10;stroke-width:3.75px"/><path d="M81,88.16a7.86,7.86,0,1,1,0,11.11A7.86,7.86,0,0,1,81,88.16Z" style="fill:#fff;stroke:#010101;stroke-miterlimit:10;stroke-width:3.75px"/><line x1="149.84" y1="204.91" x2="149.84" y2="58.6" style="fill:none;stroke:#010101;stroke-linecap:round;stroke-linejoin:round;stroke-width:3.75px"/><path d="M162.36,30.11A12.52,12.52,0,1,1,149.84,17.6,12.52,12.52,0,0,1,162.36,30.11Z" style="fill:none;stroke:#010101;stroke-linecap:round;stroke-linejoin:round;stroke-width:3.75px"/><path d="M157.7,51a7.86,7.86,0,1,1-7.86-7.86A7.86,7.86,0,0,1,157.7,51Z" style="fill:#fff;stroke:#010101;stroke-miterlimit:10;stroke-width:3.75px"/><path d="M157.7,9.74a7.86,7.86,0,1,1-7.86-7.86A7.87,7.87,0,0,1,157.7,9.74Z" style="fill:#fff;stroke:#010101;stroke-miterlimit:10;stroke-width:3.75px"/><path d="M170,39.44a7.86,7.86,0,1,1-11.11,0A7.85,7.85,0,0,1,170,39.44Z" style="fill:#fff;stroke:#010101;stroke-miterlimit:10;stroke-width:3.75px"/><path d="M140.79,10.23a7.86,7.86,0,1,1-11.11,0A7.86,7.86,0,0,1,140.79,10.23Z" style="fill:#fff;stroke:#010101;stroke-miterlimit:10;stroke-width:3.75px"/><path d="M170.49,22.53a7.86,7.86,0,1,1-7.86,7.86A7.87,7.87,0,0,1,170.49,22.53Z" style="fill:#fff;stroke:#010101;stroke-miterlimit:10;stroke-width:3.75px"/><path d="M129.18,22.53a7.86,7.86,0,1,1-7.85,7.86A7.85,7.85,0,0,1,129.18,22.53Z" style="fill:#fff;stroke:#010101;stroke-miterlimit:10;stroke-width:3.75px"/><path d="M158.88,10.23a7.86,7.86,0,1,1,0,11.12A7.86,7.86,0,0,1,158.88,10.23Z" style="fill:#fff;stroke:#010101;stroke-miterlimit:10;stroke-width:3.75px"/><path d="M129.67,39.44a7.86,7.86,0,1,1,0,11.11A7.86,7.86,0,0,1,129.67,39.44Z" style="fill:#fff;stroke:#010101;stroke-miterlimit:10;stroke-width:3.75px"/><path d="M79.46,140.31a38.4,38.4,0,0,1,48.28,24.84c6.48,20.19,3.08,46.13-24.82,48.28s-59.69,1.09-66.17-19.1S59.28,146.79,79.46,140.31Z" style="fill:none;stroke:#1d1d1b;stroke-linecap:round;stroke-linejoin:round;stroke-width:3.75px"/><path d="M59.46,186a5.22,5.22,0,1,1-5.22-5.22A5.22,5.22,0,0,1,59.46,186Z" style="fill:#010101"/><path d="M69.73,210.43c0-7.78,13.46-13.77,16.61-10.13" style="fill:#fff;stroke:#010101;stroke-linecap:round;stroke-linejoin:round;stroke-width:3.75px"/><path d="M40.51,172.72c2.34-6.12,2-13.63,10-27.36s19-22.26,24.44-19.06,3.4,16.92-4.63,30.65a66,66,0,0,1-8.16,11.19" style="fill:#fff;stroke:#010101;stroke-linecap:round;stroke-miterlimit:10;stroke-width:3.75px"/><path d="M62.14,168.14" style="fill:#fff;stroke:#010101;stroke-miterlimit:10;stroke-width:3.75px"/><path d="M110.55,174.21a17.68,17.68,0,0,0-25,25" style="fill:none;stroke:#010101;stroke-linecap:round;stroke-miterlimit:10;stroke-width:3.75px"/><path d="M139.76,157.75a9.22,9.22,0,1,1-9.22-9.21A9.22,9.22,0,0,1,139.76,157.75Z" style="fill:#fff;stroke:#010101;stroke-miterlimit:10;stroke-width:3.75px"/></g><g id="cross"><path d="M133.37,46.75a31.8,31.8,0,0,0-21.88,8.67" style="fill:none;stroke:#010101;stroke-linecap:round;stroke-linejoin:round;stroke-width:3.75px"/><path d="M99.78,161.76a31.92,31.92,0,0,1-31.2,25.09" style="fill:none;stroke:#010101;stroke-linecap:round;stroke-linejoin:round;stroke-width:3.75px"/><path d="M100.12,159.93" style="fill:none;stroke:#010101;stroke-linecap:round;stroke-linejoin:round;stroke-width:3.75px"/><line x1="68.58" y1="186.85" x2="34.24" y2="186.85" style="fill:none;stroke:#010101;stroke-linecap:round;stroke-linejoin:round;stroke-width:3.75px"/><path d="M101.45,61.17A31.92,31.92,0,0,0,69.51,29.24" style="fill:none;stroke:#010101;stroke-linecap:round;stroke-linejoin:round;stroke-width:3.75px"/><line x1="101.45" y1="60.89" x2="101.45" y2="138.34" style="fill:none;stroke:#010101;stroke-linecap:round;stroke-linejoin:round;stroke-width:3.75px"/><line x1="69.44" y1="29.24" x2="34.18" y2="29.24" style="fill:none;stroke:#010101;stroke-linecap:round;stroke-linejoin:round;stroke-width:3.75px"/><line x1="133.71" y1="169.33" x2="175.83" y2="169.33" style="fill:none;stroke:#010101;stroke-linecap:round;stroke-linejoin:round;stroke-width:3.75px"/><line x1="132.77" y1="46.75" x2="175.13" y2="46.75" style="fill:none;stroke:#010101;stroke-linecap:round;stroke-linejoin:round;stroke-width:3.75px"/><polyline points="164.56 62.19 180 46.75 164.56 31.31" style="fill:none;stroke:#000;stroke-linecap:round;stroke-linejoin:round;stroke-width:3.75px;fill-rule:evenodd"/><polyline points="164.56 183.47 180 168.03 164.56 152.59" style="fill:none;stroke:#000;stroke-linecap:round;stroke-linejoin:round;stroke-width:3.75px;fill-rule:evenodd"/><path d="M133.37,169.33a31.91,31.91,0,0,1-31.93-31.93" style="fill:none;stroke:#010101;stroke-linecap:round;stroke-linejoin:round;stroke-width:3.75px"/><polygon points="148.61 82.47 154.09 71.67 153.93 83.78 163.81 76.77 158.04 87.42 170.04 85.8 159.99 92.55 171.37 96.69 159.33 97.99 167.47 106.95 156.21 102.51 159.26 114.23 151.35 105.06 148.61 116.85 145.86 105.06 137.96 114.23 141.01 102.51 129.74 106.95 137.89 97.99 125.85 96.69 137.23 92.55 127.17 85.8 139.18 87.42 133.41 76.77 143.28 83.78 143.12 71.67 148.61 82.47" style="fill:#1d1d1b"/><path d="M157.49,92.82A19.5,19.5,0,0,0,148.61,95a19.65,19.65,0,1,0,0,35,19.64,19.64,0,1,0,8.88-37.16Z" style="fill:#fff;stroke:#1d1d1b;stroke-miterlimit:10;stroke-width:3.75px"/><line x1="59.64" y1="85.13" x2="59.64" y2="48.75" style="fill:none;stroke:#010101;stroke-linecap:round;stroke-linejoin:round;stroke-width:3.75px"/><line x1="61.09" y1="67.5" x2="79.15" y2="49.44" style="fill:none;stroke:#010101;stroke-linecap:round;stroke-linejoin:round;stroke-width:3.75px"/><line x1="78.77" y1="69.85" x2="69.26" y2="60.73" style="fill:none;stroke:#010101;stroke-linecap:round;stroke-linejoin:round;stroke-width:3.75px"/><path d="M72.65,101.18c0,9.52-13,72-13,72s-13-62.53-13-72,5.83-17.24,13-17.24S72.65,91.66,72.65,101.18Z" style="fill:#fff;stroke:#010101;stroke-linecap:round;stroke-linejoin:round;stroke-width:3.75px"/><line x1="47.26" y1="101.18" x2="63.53" y2="101.18" style="fill:none;stroke:#010101;stroke-linecap:round;stroke-linejoin:round;stroke-width:3.75px"/><line x1="56.26" y1="110.62" x2="70.88" y2="110.62" style="fill:none;stroke:#010101;stroke-linecap:round;stroke-linejoin:round;stroke-width:3.75px"/><line x1="52.6" y1="128.59" x2="60.28" y2="128.59" style="fill:none;stroke:#010101;stroke-linecap:round;stroke-linejoin:round;stroke-width:3.75px"/><line x1="74.68" y1="64.42" x2="80.59" y2="58.51" style="fill:none;stroke:#010101;stroke-linecap:round;stroke-linejoin:round;stroke-width:3.75px"/><line x1="58.09" y1="67.5" x2="40.03" y2="49.44" style="fill:none;stroke:#010101;stroke-linecap:round;stroke-linejoin:round;stroke-width:3.75px"/><line x1="50.56" y1="58.04" x2="51.83" y2="51.08" style="fill:none;stroke:#010101;stroke-linecap:round;stroke-linejoin:round;stroke-width:3.75px"/><line x1="68.87" y1="58.04" x2="67.6" y2="51.08" style="fill:none;stroke:#010101;stroke-linecap:round;stroke-linejoin:round;stroke-width:3.75px"/><line x1="40.41" y1="69.85" x2="49.92" y2="60.73" style="fill:none;stroke:#010101;stroke-linecap:round;stroke-linejoin:round;stroke-width:3.75px"/><line x1="44.5" y1="64.42" x2="38.59" y2="58.51" style="fill:none;stroke:#010101;stroke-linecap:round;stroke-linejoin:round;stroke-width:3.75px"/></g><g id="composite"><path d="M214,146.37c-.88-4.58-2.71-6.53-6.15-6.53-.53,0-1.09,0-1.69.09a10.36,10.36,0,0,1-4.59-.41c-.51-.21-.68-.28-.42-2.46.23-1.89.54-4.49-1.58-6.49a6,6,0,0,0-4.34-1.68,15.35,15.35,0,0,0-1.9.15,14.17,14.17,0,0,1-1.45.12,2.3,2.3,0,0,1-1.76-.66c-.83-.78-.81-1.58-.71-3.17s.28-4.12-1.87-6.15a6,6,0,0,0-4.33-1.68,15.51,15.51,0,0,0-1.91.15,11.81,11.81,0,0,1-1.45.12,2.27,2.27,0,0,1-1.75-.65c-.82-.78-.81-1.57-.7-3.16s.28-4.12-1.86-6.15a6,6,0,0,0-4.34-1.68,15.2,15.2,0,0,0-1.9.15,12,12,0,0,1-1.45.12,2.28,2.28,0,0,1-1.76-.65c-.83-.78-.81-1.58-.71-3.17s.28-4.12-1.86-6.15a6.07,6.07,0,0,0-4.35-1.68,17.34,17.34,0,0,0-1.9.14,11.81,11.81,0,0,1-1.45.12,2.29,2.29,0,0,1-1.77-.66c-.83-.78-.82-1.58-.71-3.18s.27-4.12-1.88-6.15a6,6,0,0,0-4.34-1.68,15.35,15.35,0,0,0-1.9.15,11.81,11.81,0,0,1-1.45.12A2.26,2.26,0,0,1,142,83c-.83-.78-.81-1.58-.71-3.17s.27-4.12-1.87-6.15A6,6,0,0,0,135.05,72a15.35,15.35,0,0,0-1.9.15,12,12,0,0,1-1.45.12,2.29,2.29,0,0,1-1.76-.65c-.83-.78-.81-1.58-.7-3.18s.27-4.11-1.87-6.14A6,6,0,0,0,123,60.57a17.74,17.74,0,0,0-1.91.15,11.83,11.83,0,0,1-1.45.13,2.27,2.27,0,0,1-1.75-.65c-.82-.78-.81-1.58-.7-3.18s.27-4.11-1.87-6.14c-2.9-2.74-4.18-3.13-7.42-3.13h-3.06c-3.4,0-4.65.37-7.57,3.14-2.15,2-2,4.41-1.88,6.15s.12,2.4-.71,3.19a2.29,2.29,0,0,1-1.76.65,11.65,11.65,0,0,1-1.45-.12,15.36,15.36,0,0,0-1.91-.15,6,6,0,0,0-4.34,1.68c-2.14,2-2,4.41-1.87,6.15s.12,2.4-.7,3.18a2.31,2.31,0,0,1-1.76.65,12,12,0,0,1-1.46-.12,15.2,15.2,0,0,0-1.9-.15,6,6,0,0,0-4.34,1.68c-2.14,2-2,4.41-1.86,6.15s.12,2.39-.71,3.17a2.25,2.25,0,0,1-1.74.65,12,12,0,0,1-1.46-.13,17.55,17.55,0,0,0-1.91-.15,6,6,0,0,0-4.32,1.68c-2.15,2-2,4.41-1.87,6.15.1,1.59.12,2.39-.71,3.17A2.27,2.27,0,0,1,56.9,95a11.81,11.81,0,0,1-1.45-.12,15.51,15.51,0,0,0-1.91-.15,6,6,0,0,0-4.33,1.68c-2.15,2-2,4.41-1.88,6.15s.12,2.4-.71,3.19a2.32,2.32,0,0,1-1.77.65,11.81,11.81,0,0,1-1.45-.12,17.53,17.53,0,0,0-1.9-.14,6.05,6.05,0,0,0-4.35,1.68c-2.14,2-2,4.41-1.87,6.15s.12,2.39-.71,3.18a2.28,2.28,0,0,1-1.76.65,12,12,0,0,1-1.45-.12,15.2,15.2,0,0,0-1.9-.15,6,6,0,0,0-4.34,1.68c-2.14,2-2,4.41-1.87,6.15s.12,2.39-.7,3.18a2.33,2.33,0,0,1-1.76.65,11.83,11.83,0,0,1-1.45-.13,17.74,17.74,0,0,0-1.91-.15,6,6,0,0,0-4.33,1.68c-2.12,2-1.74,4.9-1.47,7a11.74,11.74,0,0,1,.16,1.78C3.86,139.43,0,142.15,0,147.74c0,2.25,1,7.49,10.13,7.49a10.28,10.28,0,0,0,7.22-2.94c1.39-1.15,2.49-2.06,4.82-2.06s3.43.91,4.82,2.06a10.31,10.31,0,0,0,14.42,0c1.39-1.15,2.49-2.06,4.82-2.06s3.42.91,4.81,2.06a10.31,10.31,0,0,0,14.42,0c1.39-1.15,2.48-2.06,4.81-2.06s3.43.91,4.82,2.06a10.31,10.31,0,0,0,14.42,0c1.39-1.15,2.48-2.06,4.81-2.06s3.42.91,4.81,2.06a10.25,10.25,0,0,0,7.21,2.94,10,10,0,0,0,7.17-2.74,8.51,8.51,0,0,1,4.78-2.26c2.23-.31,3.32.58,4.88,1.9s3.66,3.1,7.25,3.1a10.26,10.26,0,0,0,7.22-2.94c1.39-1.15,2.49-2.06,4.82-2.06s3.42.91,4.81,2.06a10.31,10.31,0,0,0,14.42,0c1.39-1.15,2.48-2.06,4.81-2.06s3.43.91,4.81,2.06a10.32,10.32,0,0,0,14.43,0c1.39-1.15,2.48-2.06,4.81-2.06s3.4.86,4.85,2.05a10.51,10.51,0,0,0,7,2.94l.33.05a22.71,22.71,0,0,0,3.39.3c3,0,5.21-.84,6.58-2.5S214.49,149.19,214,146.37Z" style="fill:#010101"/><path d="M67.43,141.94A10.79,10.79,0,0,1,56.69,131.1c0,6-2.3-15.72-8.22-15.72s-17.47,4.16-17.26-.91c-.11,2.5,1.57,14.55.32,19.93-.59,2.55-1.84,3.37-3.4,2.62A9.72,9.72,0,0,1,25,133.78c-1.41-2.17-7.57-3-8.33,2.5-2,14.25,10.1,26.14,29.35,26.14a31.31,31.31,0,0,0,30.87-26.24A10.67,10.67,0,0,1,67.43,141.94Z" style="fill:#fff"/><path d="M26.73,113.5c0-15.06,11.22-27.27,25.06-27.27S76.85,98.44,76.85,113.5s-11.22,27.28-25.06,27.28" style="fill:#fff"/><path d="M98.89,119.08c-16-8.31-35.5-8.47-47.16,17.83-12.33,27.83,13.73,31.7,19.53,31.42,24.54-1.22,46.25-7.38,52.7-25.2,9.21-25.43,3-29.34.48-29.83C118.66,112.17,106.71,123.14,98.89,119.08Z" style="fill:#fff"/><path d="M72.93,154.59c7.45,3.12,16.6,3.22,18.67,3.42" style="fill:#fff;stroke:#010101;stroke-linecap:round;stroke-miterlimit:10;stroke-width:3.75px"/><path d="M122.52,119.54s-6.75,7.08-21.33,6.73c-9.59-.23-26.53-15.58-35.79,4.51-.17.37-.33.74-.48,1.09" style="fill:#fff;stroke:#010101;stroke-linecap:round;stroke-miterlimit:10;stroke-width:3.75px"/><path d="M29,106.83a8.52,8.52,0,0,1,8.47,8.55,8.47,8.47,0,1,1,16.94,0,8.43,8.43,0,0,1,15.91-4,24.69,24.69,0,0,0-48.74,0A8.4,8.4,0,0,1,29,106.83Z" style="fill:#fff;stroke:#010101;stroke-linecap:square;stroke-linejoin:round;stroke-width:3.75px"/><path d="M62.91,143a8.51,8.51,0,0,1-8.47-8.55,8.47,8.47,0,1,1-16.94,0A8.52,8.52,0,0,1,29,143a8.38,8.38,0,0,1-7.42-4.53,24.69,24.69,0,0,0,48.74,0A8.44,8.44,0,0,1,62.91,143Z" style="fill:#fff;stroke:#010101;stroke-linecap:square;stroke-linejoin:round;stroke-width:3.75px"/><line x1="37.5" y1="115.38" x2="37.5" y2="134.4" style="fill:none;stroke:#010101;stroke-linecap:square;stroke-linejoin:round;stroke-width:3.75px"/><line x1="54.48" y1="114.47" x2="54.48" y2="133.6" style="fill:none;stroke:#010101;stroke-linecap:square;stroke-linejoin:round;stroke-width:3.75px"/><path d="M46,90.66A14.76,14.76,0,0,0,31.21,75.9" style="fill:none;stroke:#010101;stroke-linecap:round;stroke-linejoin:round;stroke-width:3.75px"/><path d="M122.52,119.54c0,21.54-13.76,38.47-30.92,38.47" style="fill:none;stroke:#010101;stroke-miterlimit:10;stroke-width:3.75px"/><path d="M122.52,119.54c-3.94,15.94-20.79,25.49-37.63,21.32a33.2,33.2,0,0,1-5-1.67" style="fill:none;stroke:#010101;stroke-linecap:round;stroke-miterlimit:10;stroke-width:3.75px"/><path d="M27.35,117.88s4.34-2,4.53,5.11.48-7.27.48-7.27Z" style="fill:#fff"/><path d="M17.82,146.76s1.8,4.53-2.4,7,7.06-1.44,7.06-1.44l-4.75-5.8" style="fill:#fff"/><path d="M76.52,109.08s.69,5.15,5.9,5.1S81,116,81,116l-6.4-1.24,1.87-6" style="fill:#fff"/><path d="M62.75,89s-2.81-2.28-.9-4.44-2.3-1.25-2.3-1.25l-1.84,6.19Z" style="fill:#fff"/><path d="M122.52,146.44a5.12,5.12,0,0,0,.65,5.69c2.34,2.67-2.57,3.17-2.57,3.17l-3.75-4.43,3.75-5.48Z" style="fill:#fff"/></g><g id="cover_crop" data-name="cover crop"><line x1="106.79" y1="33.76" x2="106.79" y2="180.66" style="fill:none;stroke:#010101;stroke-linecap:round;stroke-miterlimit:10;stroke-width:3.75px"/><path d="M90.53,116a16.94,16.94,0,0,0,16.94,17" style="fill:none;stroke:#010101;stroke-miterlimit:10;stroke-width:3.75px"/><path d="M123.06,116a17,17,0,0,1-17,17" style="fill:none;stroke:#010101;stroke-miterlimit:10;stroke-width:3.75px"/><path d="M90.53,99A16.93,16.93,0,0,0,107.47,116" style="fill:none;stroke:#010101;stroke-miterlimit:10;stroke-width:3.75px"/><path d="M123.06,99a16.94,16.94,0,0,1-17,16.94" style="fill:none;stroke:#010101;stroke-miterlimit:10;stroke-width:3.75px"/><path d="M90.53,82.06A16.93,16.93,0,0,0,107.47,99" style="fill:none;stroke:#010101;stroke-miterlimit:10;stroke-width:3.75px"/><path d="M123.06,82.06a16.94,16.94,0,0,1-17,16.94" style="fill:none;stroke:#010101;stroke-miterlimit:10;stroke-width:3.75px"/><path d="M90.53,65.08a16.94,16.94,0,0,0,16.94,17" style="fill:none;stroke:#010101;stroke-miterlimit:10;stroke-width:3.75px"/><path d="M123.06,65.08a17,17,0,0,1-17,17" style="fill:none;stroke:#010101;stroke-miterlimit:10;stroke-width:3.75px"/><path d="M90.53,48.11a16.93,16.93,0,0,0,16.94,16.94" style="fill:none;stroke:#010101;stroke-miterlimit:10;stroke-width:3.75px"/><path d="M123.06,48.11a16.94,16.94,0,0,1-17,16.94" style="fill:none;stroke:#010101;stroke-miterlimit:10;stroke-width:3.75px"/><line x1="90.53" y1="118.86" x2="90.53" y2="33.89" style="fill:none;stroke:#010101;stroke-linecap:round;stroke-miterlimit:10;stroke-width:3.75px"/><line x1="123.06" y1="118.81" x2="123.06" y2="33.99" style="fill:none;stroke:#010101;stroke-linecap:round;stroke-miterlimit:10;stroke-width:3.75px"/><line x1="41.83" y1="70.96" x2="71.26" y2="180.78" style="fill:none;stroke:#010101;stroke-linecap:round;stroke-miterlimit:10;stroke-width:3.75px"/><path d="M43.12,138.62a16.92,16.92,0,0,0,20.75,12" style="fill:none;stroke:#010101;stroke-miterlimit:10;stroke-width:3.75px"/><path d="M74.54,130.2a16.94,16.94,0,0,1-12,20.76" style="fill:none;stroke:#010101;stroke-miterlimit:10;stroke-width:3.75px"/><path d="M38.73,122.23a16.94,16.94,0,0,0,20.75,12" style="fill:none;stroke:#010101;stroke-miterlimit:10;stroke-width:3.75px"/><path d="M70.15,113.8a17,17,0,0,1-12,20.76" style="fill:none;stroke:#010101;stroke-miterlimit:10;stroke-width:3.75px"/><path d="M34.33,105.83a17,17,0,0,0,20.76,12" style="fill:none;stroke:#010101;stroke-miterlimit:10;stroke-width:3.75px"/><path d="M65.76,97.41a16.94,16.94,0,0,1-12,20.75" style="fill:none;stroke:#010101;stroke-miterlimit:10;stroke-width:3.75px"/><path d="M29.94,89.43a16.94,16.94,0,0,0,20.75,12" style="fill:none;stroke:#010101;stroke-miterlimit:10;stroke-width:3.75px"/><path d="M61.36,81a16.93,16.93,0,0,1-12,20.75" style="fill:none;stroke:#010101;stroke-miterlimit:10;stroke-width:3.75px"/><line x1="42.92" y1="137.88" x2="26.15" y2="75.27" style="fill:none;stroke:#010101;stroke-linecap:round;stroke-miterlimit:10;stroke-width:3.75px"/><line x1="74.34" y1="129.43" x2="57.59" y2="66.92" style="fill:none;stroke:#010101;stroke-linecap:round;stroke-miterlimit:10;stroke-width:3.75px"/><line x1="172.56" y1="70.82" x2="143.25" y2="179.37" style="fill:none;stroke:#010101;stroke-linecap:round;stroke-miterlimit:10;stroke-width:3.75px"/><path d="M171.06,138.62a16.92,16.92,0,0,1-20.75,12" style="fill:none;stroke:#010101;stroke-miterlimit:10;stroke-width:3.75px"/><path d="M139.64,130.2a17,17,0,0,0,12,20.76" style="fill:none;stroke:#010101;stroke-miterlimit:10;stroke-width:3.75px"/><path d="M175.46,122.23a17,17,0,0,1-20.75,12" style="fill:none;stroke:#010101;stroke-miterlimit:10;stroke-width:3.75px"/><path d="M144,113.8a16.94,16.94,0,0,0,12,20.76" style="fill:none;stroke:#010101;stroke-miterlimit:10;stroke-width:3.75px"/><path d="M179.85,105.83a16.94,16.94,0,0,1-20.75,12" style="fill:none;stroke:#010101;stroke-miterlimit:10;stroke-width:3.75px"/><path d="M148.43,97.41a16.94,16.94,0,0,0,12,20.75" style="fill:none;stroke:#010101;stroke-miterlimit:10;stroke-width:3.75px"/><path d="M184.25,89.43a16.94,16.94,0,0,1-20.76,12" style="fill:none;stroke:#010101;stroke-miterlimit:10;stroke-width:3.75px"/><path d="M152.82,81a16.93,16.93,0,0,0,12,20.75" style="fill:none;stroke:#010101;stroke-miterlimit:10;stroke-width:3.75px"/><line x1="171.26" y1="137.88" x2="188.04" y2="75.27" style="fill:none;stroke:#010101;stroke-linecap:round;stroke-miterlimit:10;stroke-width:3.75px"/><line x1="139.85" y1="129.43" x2="156.6" y2="66.92" style="fill:none;stroke:#010101;stroke-linecap:round;stroke-miterlimit:10;stroke-width:3.75px"/><path d="M50.88,179.82c7.56,0,7.56,5,15.12,5s7.56-5,15.12-5,7.55,5,15.11,5,7.56-5,15.12-5,7.56,5,15.12,5,7.55-5,15.11-5,7.57,5,15.13,5,7.56-5,15.12-5" style="fill:none;stroke:#010101;stroke-linecap:round;stroke-linejoin:round;stroke-width:3.75px"/></g><g id="breath"><path d="M24.89,134.32A36.35,36.35,0,0,1,61.26,98" style="fill:none;stroke:#010101;stroke-linecap:round;stroke-linejoin:round;stroke-width:3.75px"/><path d="M46.32,145.93a32.76,32.76,0,0,1,32.77-32.77" style="fill:none;stroke:#010101;stroke-linecap:round;stroke-linejoin:round;stroke-width:3.75px"/><path d="M107,53.14A44.78,44.78,0,0,1,62.16,98" style="fill:none;stroke:#010101;stroke-linecap:round;stroke-linejoin:round;stroke-width:3.75px"/><path d="M189,134.32A36.35,36.35,0,0,0,152.58,98" style="fill:none;stroke:#010101;stroke-linecap:round;stroke-linejoin:round;stroke-width:3.75px"/><path d="M106.87,53.14A44.78,44.78,0,0,0,151.68,98" style="fill:none;stroke:#010101;stroke-linecap:round;stroke-linejoin:round;stroke-width:3.75px"/><path d="M159.3,152.51a36.35,36.35,0,0,0-36.37-36.37" style="fill:none;stroke:#010101;stroke-linecap:round;stroke-linejoin:round;stroke-width:3.75px"/><path d="M70.07,169.15a49.57,49.57,0,0,0,0-70.15" style="fill:none;stroke:#010101;stroke-linecap:round;stroke-linejoin:round;stroke-width:3.75px"/><path d="M97.29,141.87a41.63,41.63,0,0,0,0-58.92" style="fill:none;stroke:#010101;stroke-linecap:round;stroke-linejoin:round;stroke-width:3.75px"/><path d="M109,182.67a19.42,19.42,0,0,0,0-27.49" style="fill:none;stroke:#010101;stroke-linecap:round;stroke-linejoin:round;stroke-width:3.75px"/><path d="M59.31,150.65a19.43,19.43,0,0,0,0-27.5" style="fill:none;stroke:#010101;stroke-linecap:round;stroke-linejoin:round;stroke-width:3.75px"/><path d="M144.34,150.65a19.43,19.43,0,0,1,0-27.5" style="fill:none;stroke:#010101;stroke-linecap:round;stroke-linejoin:round;stroke-width:3.75px"/><path d="M90.48,115.21A15.5,15.5,0,0,1,106,99.7" style="fill:none;stroke:#010101;stroke-linecap:round;stroke-linejoin:round;stroke-width:3.75px"/><path d="M170.67,119.64a19.42,19.42,0,0,1-19.44-19.44" style="fill:none;stroke:#010101;stroke-linecap:round;stroke-linejoin:round;stroke-width:3.75px"/><path d="M101.8,168.2a21.68,21.68,0,0,1,21.69-21.7" style="fill:none;stroke:#010101;stroke-linecap:round;stroke-linejoin:round;stroke-width:3.75px"/><path d="M132.62,159a44.41,44.41,0,0,1,0-62.83" style="fill:none;stroke:#010101;stroke-linecap:round;stroke-linejoin:round;stroke-width:3.75px"/><path d="M37.71,146.93a6,6,0,1,1-6.05-6A6.05,6.05,0,0,1,37.71,146.93Z" style="fill:none;stroke:#010101;stroke-linecap:round;stroke-linejoin:round;stroke-width:3.75px"/><path d="M55.9,161a6,6,0,1,1-6-6A6,6,0,0,1,55.9,161Z" style="fill:none;stroke:#010101;stroke-linecap:round;stroke-linejoin:round;stroke-width:3.75px"/><path d="M49.81,184a6,6,0,1,1-5.26-6.73A6,6,0,0,1,49.81,184Z" style="fill:none;stroke:#010101;stroke-linecap:round;stroke-linejoin:round;stroke-width:3.75px"/><path d="M94.74,167.58a6,6,0,1,1-6-6.05A6,6,0,0,1,94.74,167.58Z" style="fill:none;stroke:#010101;stroke-linecap:round;stroke-linejoin:round;stroke-width:3.75px"/><path d="M165.34,165.32a6,6,0,1,1-6-6A6,6,0,0,1,165.34,165.32Z" style="fill:none;stroke:#010101;stroke-linecap:round;stroke-linejoin:round;stroke-width:3.75px"/><path d="M183.44,184.29a6,6,0,1,1-6-6A6,6,0,0,1,183.44,184.29Z" style="fill:none;stroke:#010101;stroke-linecap:round;stroke-linejoin:round;stroke-width:3.75px"/><path d="M79.24,30.08a6,6,0,1,1-6-6A6,6,0,0,1,79.24,30.08Z" style="fill:none;stroke:#010101;stroke-linecap:round;stroke-linejoin:round;stroke-width:3.75px"/><path d="M153.58,42.17a6,6,0,1,1-6-6.05A6,6,0,0,1,153.58,42.17Z" style="fill:none;stroke:#010101;stroke-linecap:round;stroke-linejoin:round;stroke-width:3.75px"/><path d="M183.44,81.81a6,6,0,1,1-6-6A6,6,0,0,1,183.44,81.81Z" style="fill:none;stroke:#010101;stroke-linecap:round;stroke-linejoin:round;stroke-width:3.75px"/><path d="M76.12,80.47a6,6,0,1,1-6.05-6A6,6,0,0,1,76.12,80.47Z" style="fill:none;stroke:#010101;stroke-linecap:round;stroke-linejoin:round;stroke-width:3.75px"/><path d="M39.79,88.1a6,6,0,1,1-6-6A6,6,0,0,1,39.79,88.1Z" style="fill:none;stroke:#010101;stroke-linecap:round;stroke-linejoin:round;stroke-width:3.75px"/><circle cx="94.74" cy="186.01" r="6.04" style="fill:none;stroke:#010101;stroke-linecap:round;stroke-linejoin:round;stroke-width:3.75px"/><path d="M182.49,143.93a6,6,0,1,1-6-6A6,6,0,0,1,182.49,143.93Z" style="fill:none;stroke:#010101;stroke-linecap:round;stroke-linejoin:round;stroke-width:3.75px"/><path d="M149.35,176.33a6,6,0,1,1-6-6.05A6,6,0,0,1,149.35,176.33Z" style="fill:none;stroke:#010101;stroke-linecap:round;stroke-linejoin:round;stroke-width:3.75px"/><line x1="97.46" y1="58.21" x2="25.06" y2="58.21" style="fill:none;stroke:#010101;stroke-linecap:round;stroke-linejoin:round;stroke-width:3.75px"/><line x1="189.3" y1="58.21" x2="116.89" y2="58.21" style="fill:none;stroke:#010101;stroke-linecap:round;stroke-linejoin:round;stroke-width:3.75px"/></g><g id="zero-tolerance"><text transform="translate(46.65 133.96)" style="font-size:63.919219970703125px;fill:#010101;font-family:HelveticaNeue-CondensedBold, Helvetica Neue;font-weight:700">GMO</text><path d="M107.09,23a85,85,0,1,0,85,85A85,85,0,0,0,107.09,23ZM37.23,108A69.84,69.84,0,0,1,150.61,53.41L52.46,151.56A69.57,69.57,0,0,1,37.23,108Zm69.86,69.87a69.56,69.56,0,0,1-43.6-15.3l98.17-98.17a69.84,69.84,0,0,1-54.57,113.47Z" style="fill:#fff;stroke:#010101;stroke-miterlimit:10;stroke-width:3.75px"/></g><g id="low-till"><path d="M199,88.75H15.17a91.92,91.92,0,1,0,183.84,0Z" style="fill:#010101"/><path d="M107.09,35.41a25,25,0,0,0-25,25" style="fill:#fff;stroke:#010101;stroke-miterlimit:10;stroke-width:3.75px"/><path d="M107.09,49.92A10.71,10.71,0,0,0,96.38,60.63" style="fill:#fff;stroke:#010101;stroke-miterlimit:10;stroke-width:3.75px"/><path d="M107.09,35.41a25,25,0,0,1,25,25" style="fill:#fff;stroke:#010101;stroke-miterlimit:10;stroke-width:3.75px"/><path d="M107.09,49.92A10.71,10.71,0,0,1,117.8,60.63" style="fill:#fff;stroke:#010101;stroke-miterlimit:10;stroke-width:3.75px"/><path d="M156.86,75.7a7,7,0,0,1,0,14" style="fill:#fff;stroke:#010101;stroke-miterlimit:10;stroke-width:3.75px"/><line x1="157.16" y1="75.64" x2="146.84" y2="75.64" style="fill:none;stroke:#010101;stroke-miterlimit:10;stroke-width:3.75px"/><path d="M117.85,60.36a29.38,29.38,0,0,0,29.38,29.37" style="fill:#fff;stroke:#010101;stroke-miterlimit:10;stroke-width:3.75px"/><path d="M132.12,60.36A15.29,15.29,0,0,0,147.4,75.64" style="fill:#fff;stroke:#010101;stroke-miterlimit:10;stroke-width:3.75px"/><line x1="146.54" y1="89.73" x2="156.86" y2="89.73" style="fill:none;stroke:#010101;stroke-miterlimit:10;stroke-width:3.75px"/><path d="M57.33,75.7a7,7,0,1,0,0,14" style="fill:#fff;stroke:#010101;stroke-miterlimit:10;stroke-width:3.75px"/><line x1="57.03" y1="75.64" x2="67.35" y2="75.64" style="fill:none;stroke:#010101;stroke-miterlimit:10;stroke-width:3.75px"/><path d="M96.34,60.36A29.38,29.38,0,0,1,67,89.73" style="fill:#fff;stroke:#010101;stroke-miterlimit:10;stroke-width:3.75px"/><path d="M82.06,60.36A15.28,15.28,0,0,1,66.79,75.64" style="fill:#fff;stroke:#010101;stroke-miterlimit:10;stroke-width:3.75px"/><line x1="67.64" y1="89.73" x2="57.33" y2="89.73" style="fill:none;stroke:#010101;stroke-miterlimit:10;stroke-width:3.75px"/><path d="M54.1,122a6,6,0,1,1-6-6A6,6,0,0,1,54.1,122Z" style="fill:#fff"/><path d="M74.41,135.18a6,6,0,1,1-6-6A6,6,0,0,1,74.41,135.18Z" style="fill:#fff"/><path d="M93.31,103.05a6,6,0,1,1-6-6A6,6,0,0,1,93.31,103.05Z" style="fill:#fff"/><path d="M138.17,120.28a6,6,0,1,1-6-6A6.05,6.05,0,0,1,138.17,120.28Z" style="fill:#fff"/><path d="M171.24,111.85a6,6,0,1,1-6-6A6,6,0,0,1,171.24,111.85Z" style="fill:#fff"/><path d="M158,129.14a6,6,0,1,1-6-6A6,6,0,0,1,158,129.14Z" style="fill:#fff"/><path d="M117.41,161.59a6,6,0,1,1-6-6A6,6,0,0,1,117.41,161.59Z" style="fill:#fff"/></g></svg>