<svg id="integrated" xmlns="http://www.w3.org/2000/svg" viewBox="0 0 214.19 216.09"><title>biodynamicfarming-icon</title><path id="sun" d="M165.82,55.84a21.33,21.33,0,1,0-35.19.27" style="fill:none;stroke:#010101;stroke-linecap:round;stroke-miterlimit:10;stroke-width:3.75px"/><path id="cloud-right" d="M63.27,77.75h135" style="fill:none;stroke:#010101;stroke-linecap:round;stroke-linejoin:round;stroke-width:3.75px"/><path id="cloud-left" d="M28,64.57H121.9" style="fill:none;stroke:#010101;stroke-linecap:round;stroke-linejoin:round;stroke-width:3.75px"/><path id="mountain-left" d="M15.51,168.58,66.58,42.14,107.09,146.7" style="fill:none;stroke:#010101;stroke-linecap:round;stroke-linejoin:round;stroke-width:3.75px"/><path id="mountain-right" d="M198.53,168.58,148.09,42.14l-41,104.56" style="fill:none;stroke:#010101;stroke-linecap:round;stroke-linejoin:round;stroke-width:3.75px"/><path id="trunk-1" d="M46,131.32v33.29" style="fill:none;stroke:#010101;stroke-linecap:round;stroke-linejoin:bevel;stroke-width:3.75px"/><path id="trunk-2" d="M86.83,131.32v33.29" style="fill:none;stroke:#010101;stroke-linecap:round;stroke-linejoin:bevel;stroke-width:3.75px"/><path id="trunk-3" d="M127.8,131.32v33.29" style="fill:none;stroke:#010101;stroke-linecap:round;stroke-linejoin:bevel;stroke-width:3.75px"/><path id="trunk-4" d="M168.7,131.32v33.29" style="fill:none;stroke:#010101;stroke-linecap:round;stroke-linejoin:bevel;stroke-width:3.75px"/><path id="treecontour-left" d="M46.66,94.25l19.66,52.22,20.43-51" style="fill:none;stroke:#010101;stroke-linecap:round;stroke-linejoin:round;stroke-width:3.75px"/><path id="treecontour-right" d="M167.6,94.43l-19.4,52-20.4-52" style="fill:none;stroke:#010101;stroke-linecap:round;stroke-linejoin:round;stroke-width:3.75px"/><path id="treebase-left" d="M21.25,155.75h85.84" style="fill:none;stroke:#010101;stroke-linecap:round;stroke-linejoin:bevel;stroke-width:3.75px"/><path id="treebase-right" d="M107.09,155.75h85.69" style="fill:none;stroke:#010101;stroke-linecap:round;stroke-linejoin:bevel;stroke-width:3.75px"/><path id="riverbottom-left" d="M14.5,188.51c11.57,0,11.57,5,23.14,5s11.57-5,23.14-5,11.57,5,23.14,5,11.57-5,23.14-5" style="fill:none;stroke:#010101;stroke-linecap:round;stroke-linejoin:round;stroke-width:3.75px"/><path id="riverbottom-right" d="M199.68,188.51c-11.58,0-11.58,5-23.16,5s-11.58-5-23.16-5-11.57,5-23.14,5-11.58-5-23.16-5" style="fill:none;stroke:#010101;stroke-linecap:round;stroke-linejoin:round;stroke-width:3.75px"/><path id="rivertop-left" d="M15.64,168.82c11.38,0,11.38,5,22.77,5s11.38-5,22.77-5,11.39,5,22.77,5,11.39-5,22.78-5" style="fill:none;stroke:#010101;stroke-linecap:round;stroke-linejoin:round;stroke-width:3.75px"/><path id="rivertop-right" d="M197.88,168.82c-11.39,0-11.39,5-22.79,5s-11.4-5-22.8-5-11.38,5-22.77,5-11.4-5-22.79-5" style="fill:none;stroke:#010101;stroke-linecap:round;stroke-linejoin:round;stroke-width:3.75px"/><path id="wave-1" d="M14.5,178.3c7.61,0,10.22,2.16,14.4,3.64" style="fill:none;stroke:#010101;stroke-linecap:round;stroke-linejoin:round;stroke-width:3.75px"/><path id="wave-2" d="M61.05,178.3a26,26,0,0,1,7.55,1.06c2.45.73,4.7,2,7.13,2.77a25.94,25.94,0,0,0,7.53,1.15,27.68,27.68,0,0,0,7.59-.78" style="fill:none;stroke:#010101;stroke-linecap:round;stroke-linejoin:round;stroke-width:3.75px;stroke-dasharray:32.210750579833984,32.210750579833984"/><path id="wave-3" d="M153.13,178.3a26,26,0,0,0-7.55,1c-2.45.73-4.71,2-7.13,2.77a25.68,25.68,0,0,1-7.53,1.17,27.29,27.29,0,0,1-7.59-.77" style="fill:none;stroke:#010101;stroke-linecap:round;stroke-linejoin:round;stroke-width:3.75px;stroke-dasharray:32.210750579833984,32.210750579833984"/><path id="wave-4" d="M199.68,178.3c-7.61,0-10.22,2.16-14.4,3.64" style="fill:none;stroke:#010101;stroke-linecap:round;stroke-linejoin:round;stroke-width:3.75px"/></svg>